<?xml version="1.0" standalone="no"?>
<!DOCTYPE svg PUBLIC "-//W3C//DTD SVG 1.1//EN" "http://www.w3.org/Graphics/SVG/1.1/DTD/svg11.dtd" >
<svg xmlns="http://www.w3.org/2000/svg" xmlns:xlink="http://www.w3.org/1999/xlink" version="1.1">
<metadata></metadata>
<defs>
<font id="bank_gothicmedium" horiz-adv-x="1755" >
<font-face units-per-em="2048" ascent="1720" descent="-328" />
<missing-glyph horiz-adv-x="622" />
<glyph unicode="&#xfb01;" horiz-adv-x="1458" d="M61 815v207h205v215q0 73 64 135t143 62h305l43 -197h-317v-215h792v-1022h-237v815h-555v-815h-238v815h-205zM1040 1255v119q0 25 21.5 42.5t50.5 17.5h127q31 0 51.5 -17.5t20.5 -42.5v-119q0 -26 -20.5 -43.5t-51.5 -17.5h-127q-30 0 -51 17.5t-21 43.5z" />
<glyph unicode="&#xfb02;" horiz-adv-x="1458" d="M61 815v207h205v215q0 73 64 135t143 62h823v-1434h-237v1237h-555v-215h319v-207h-319v-815h-238v815h-205z" />
<glyph horiz-adv-x="0" />
<glyph horiz-adv-x="682" />
<glyph unicode=" "  horiz-adv-x="622" />
<glyph unicode="&#x09;" horiz-adv-x="622" />
<glyph unicode="&#xa0;" horiz-adv-x="622" />
<glyph unicode="!" horiz-adv-x="663" d="M170 74v166q0 31 21.5 52t52.5 21h176q31 0 52.5 -21t21.5 -52v-166q0 -31 -21.5 -52.5t-52.5 -21.5h-176q-31 0 -52.5 21.5t-21.5 52.5zM178 1434h307l-67 -977h-172z" />
<glyph unicode="&#x22;" horiz-adv-x="1011" d="M145 1434h248l-51 -598h-143zM618 1434h248l-51 -598h-143z" />
<glyph unicode="#" horiz-adv-x="1374" d="M106 553l31 195h221l27 190h-217l31 192h219l45 304h170l-47 -304h295l45 304h170l-47 -304h219l-31 -192h-219l-27 -190h217l-30 -195h-220l-47 -307h-170l47 307h-292l-45 -307h-170l45 307h-220zM528 748h293l27 190h-293z" />
<glyph unicode="$" d="M213 242v98l236 49v-172h360v399h-328q-93 0 -167 74t-74 168v322q0 93 80.5 173.5t173.5 80.5h315v129h174v-129h285q99 0 175.5 -74.5t76.5 -167.5v-92l-236 -49v166h-301v-381h317q93 0 167.5 -74.5t74.5 -167.5v-340q0 -93 -80.5 -173.5t-173.5 -80.5h-305v-223h-174 v223h-344q-99 0 -175.5 74.5t-76.5 167.5zM481 836h328v381h-328v-381zM983 217h315v399h-315v-399z" />
<glyph unicode="%" horiz-adv-x="2064" d="M109 860v430q0 51 48 97.5t101 46.5h459q53 0 101 -46.5t48 -97.5v-430q0 -51 -48 -97t-101 -46h-459q-53 0 -101 46t-48 97zM305 887h365v377h-365v-377zM414 0l1050 1434h189l-1053 -1434h-186zM1200 143v430q0 51 48.5 97.5t101.5 46.5h456q53 0 101.5 -46.5 t48.5 -97.5v-430q0 -51 -48.5 -97t-101.5 -46h-456q-53 0 -101.5 46t-48.5 97zM1395 170h366v377h-366v-377z" />
<glyph unicode="&#x26;" horiz-adv-x="1757" d="M117 201v301q0 82 82 141l315 221l-14 19q-45 51 -62 72.5t-31 51t-14 58.5v190q0 75 59 127t146 52h446q87 0 144 -52t57 -127v-194l-225 -51v227h-385v-156l549 -542l293 288l153 -153l-293 -289l392 -385h-340l-220 219l-139 -139q-42 -42 -82 -61t-94 -19h-541 q-80 0 -138 59.5t-58 141.5zM350 217h508l156 154l-344 342l-320 -226v-270z" />
<glyph unicode="'" horiz-adv-x="538" d="M145 1434h248l-51 -598h-143z" />
<glyph unicode="(" horiz-adv-x="765" d="M123 608v217q0 311 146.5 530.5t426.5 295.5l45 -195q-186 -51 -285.5 -221t-99.5 -410v-217q0 -239 99.5 -408t285.5 -220l-45 -197q-280 76 -426.5 295t-146.5 530z" />
<glyph unicode=")" horiz-adv-x="765" d="M25 -23q186 51 285.5 220t99.5 409v217q0 240 -99.5 410t-285.5 221l45 195q280 -76 426.5 -295.5t146.5 -530.5v-217q0 -311 -146.5 -530t-426.5 -295z" />
<glyph unicode="*" horiz-adv-x="751" d="M41 1016l203 96l-203 94l78 140l190 -119l-12 207h158l-13 -207l191 121l80 -140l-203 -96l203 -94l-80 -139l-191 118l15 -206h-160l12 206l-188 -120z" />
<glyph unicode="+" horiz-adv-x="1331" d="M129 621v196h436v440h205v-440h436v-196h-436v-441h-205v441h-436z" />
<glyph unicode="," horiz-adv-x="622" d="M150 74v182q0 31 21 52.5t52 21.5h176q31 0 52.5 -21.5t21.5 -52.5v-186q0 -34 -18 -64l-174 -309h-121l133 307h-70q-31 0 -52 20t-21 50z" />
<glyph unicode="-" horiz-adv-x="724" d="M37 440v201h651v-201h-651z" />
<glyph unicode="." horiz-adv-x="622" d="M150 74v182q0 31 21 52.5t52 21.5h176q31 0 52.5 -21.5t21.5 -52.5v-182q0 -31 -21.5 -52.5t-52.5 -21.5h-176q-31 0 -52 21.5t-21 52.5z" />
<glyph unicode="/" horiz-adv-x="1175" d="M0 45l1022 1440l154 -96l-1020 -1438z" />
<glyph unicode="0" d="M188 254v926q0 93 80.5 173.5t173.5 80.5h871q93 0 173.5 -80.5t80.5 -173.5v-926q0 -93 -80.5 -173.5t-173.5 -80.5h-871q-93 0 -173.5 80.5t-80.5 173.5zM455 233h845v969h-845v-969z" />
<glyph unicode="1" d="M502 1151v152l553 153v-1456h-262v1178z" />
<glyph unicode="2" d="M223 0v133q0 102 88 168l930 694v209h-723v-311l-248 51v248q0 93 74.5 167.5t173.5 74.5h739q93 0 165.5 -70t72.5 -160v-190q0 -64 -28.5 -112.5t-94.5 -98.5l-772 -574h707v224l249 -52v-204q0 -82 -63 -139.5t-152 -57.5h-1118z" />
<glyph unicode="3" d="M233 242v172l248 51v-238h723q41 0 65.5 30.5t24.5 74.5v182q0 44 -29 78.5t-71 34.5h-426v223h385q42 0 66 25.5t24 68.5v158q0 44 -24.5 74t-65.5 30h-647v-231l-248 51v166q0 93 74.5 167.5t173.5 74.5h727q118 0 189 -89.5t71 -207.5v-123q0 -107 -55 -175.5 t-152 -95.5q119 -17 189.5 -95t70.5 -183v-168q0 -117 -72.5 -207t-191.5 -90h-801q-99 0 -173.5 74.5t-74.5 167.5z" />
<glyph unicode="4" d="M121 332v180l954 922h225v-873h302v-229h-302v-332h-258v332h-921zM471 561h571v557z" />
<glyph unicode="5" d="M207 307q92 -36 205 -56t204 -20h549q50 0 84.5 34.5t34.5 76.5v203q0 45 -27 76.5t-63 31.5h-918l91 781h1034l-31 -232h-797l-32 -317h702q79 0 139 -31.5t93 -84t49 -111t16 -121.5v-183q0 -67 -18.5 -127t-57.5 -112.5t-108 -83.5t-160 -31h-614q-179 0 -301 47z" />
<glyph unicode="6" d="M221 354v359q0 148 47.5 270t134.5 209t209.5 146t271.5 87.5t322 28.5l142 -203q-396 0 -613 -102.5t-248 -325.5q124 31 242 31h531q64 0 115.5 -20.5t84.5 -54t55 -78.5t31.5 -91.5t9.5 -95.5v-160q0 -66 -18.5 -126t-57.5 -112.5t-108 -84t-160 -31.5h-645 q-74 0 -133.5 21t-98.5 55t-65 80.5t-37.5 96t-11.5 101.5zM479 338q0 -42 32.5 -76.5t82.5 -34.5h588q50 0 84 34.5t34 76.5v180q0 45 -27 77t-63 32h-505q-125 0 -226 -37v-103v-149z" />
<glyph unicode="7" d="M207 940v494h1370v-213l-662 -1221h-286l663 1204h-839v-315z" />
<glyph unicode="8" d="M180 291v178q0 104 63.5 174.5t166.5 89.5q-92 22 -147.5 93t-55.5 178v139q0 118 68 204.5t186 86.5h831q118 0 186 -86.5t68 -204.5v-139q0 -108 -53.5 -176t-149.5 -95q103 -19 167.5 -90t64.5 -174v-178q0 -118 -68 -204.5t-186 -86.5h-889q-118 0 -185 86t-67 205z M428 330q0 -44 24 -73.5t66 -29.5h717q42 0 66 29.5t24 73.5v178q0 44 -28.5 79.5t-69.5 35.5h-699q-42 0 -71 -35.5t-29 -79.5v-178zM457 940q0 -43 24 -69.5t66 -26.5h659q42 0 66 26.5t24 69.5v168q0 44 -24 72t-66 28h-659q-42 0 -66 -28t-24 -72v-168z" />
<glyph unicode="9" d="M199 928v153q0 52 11 100.5t37 95t64.5 81t98 55.5t133.5 21h645q91 0 160.5 -31t108.5 -83t58 -112.5t19 -126.5v-358q0 -148 -47.5 -269.5t-134.5 -207.5t-210 -144.5t-271.5 -86t-321.5 -27.5l-141 202q399 0 616.5 102t243.5 326q-108 -32 -242 -32h-530 q-79 0 -139 31t-93 82t-49 109t-16 120zM455 924q0 -45 27 -78t63 -33h506q124 0 225 37v76v172q0 42 -32.5 75t-82.5 33h-588q-50 0 -84 -33t-34 -75v-174z" />
<glyph unicode=":" horiz-adv-x="622" d="M150 74v182q0 31 21 52.5t52 21.5h176q31 0 52.5 -21.5t21.5 -52.5v-182q0 -31 -21.5 -52.5t-52.5 -21.5h-176q-31 0 -52 21.5t-21 52.5zM150 768v180q0 31 21 52.5t52 21.5h176q31 0 52.5 -21.5t21.5 -52.5v-180q0 -31 -21.5 -52.5t-52.5 -21.5h-176q-31 0 -52 21.5 t-21 52.5z" />
<glyph unicode=";" horiz-adv-x="622" d="M150 74v182q0 31 21 52.5t52 21.5h176q31 0 52.5 -21.5t21.5 -52.5v-186q0 -34 -18 -64l-174 -309h-121l133 307h-70q-31 0 -52 20t-21 50zM150 768v180q0 31 21 52.5t52 21.5h176q31 0 52.5 -21.5t21.5 -52.5v-180q0 -31 -21.5 -52.5t-52.5 -21.5h-176q-31 0 -52 21.5 t-21 52.5z" />
<glyph unicode="&#x3c;" horiz-adv-x="1331" d="M172 627v178l895 432v-217l-639 -309l639 -295v-217z" />
<glyph unicode="=" horiz-adv-x="1331" d="M129 412v196h1075v-196h-1075zM129 825v197h1075v-197h-1075z" />
<glyph unicode="&#x3e;" horiz-adv-x="1331" d="M264 199v217l639 295l-639 309v217l895 -432v-178z" />
<glyph unicode="?" horiz-adv-x="1107" d="M18 1077v137q0 83 71.5 151.5t156.5 68.5h577q85 0 156.5 -68.5t71.5 -151.5v-215q0 -77 -76 -129l-342 -231v-182h-240v227q0 50 60 92l358 242v199h-553v-187zM352 74v166q0 31 21.5 52t52.5 21h176q31 0 52.5 -21t21.5 -52v-166q0 -31 -21.5 -52.5t-52.5 -21.5h-176 q-31 0 -52.5 21.5t-21.5 52.5z" />
<glyph unicode="@" horiz-adv-x="1964" d="M180 223v441q0 89 16 166t54 147t96 119.5t148.5 78.5t205.5 29h564q115 0 205.5 -29t148.5 -78.5t96 -119.5t54 -147t16 -166v-474q0 -79 -59 -134.5t-150 -55.5h-213q-134 0 -158 113q-53 -57 -124.5 -85t-178.5 -28h-199q-67 0 -120.5 51.5t-53.5 116.5v190 q0 65 52.5 118.5t121.5 53.5h502v183h-461v-103l-198 41v78q0 64 52.5 110t121.5 46h510q68 0 122 -49.5t54 -116.5v-494q0 -23 16.5 -37t36.5 -14h152v490q0 69 -10 124.5t-34.5 104.5t-63.5 81.5t-99 51t-139 18.5h-564q-79 0 -139 -18.5t-99 -51t-63.5 -81.5 t-34.5 -104.5t-10 -124.5v-441q0 -87 17 -153.5t55 -120t107 -81.5t167 -28h740v-159h-740q-115 0 -205.5 29.5t-148.5 79t-96 120t-54 147.5t-16 166zM731 174h270q122 0 203 43v158h-473v-201z" />
<glyph unicode="A" horiz-adv-x="1640" d="M-18 0l733 1434h221l713 -1434h-285l-150 311h-806l-154 -311h-272zM518 537h586l-291 598z" />
<glyph unicode="B" horiz-adv-x="1701" d="M201 0v1434h1089q93 0 166.5 -72.5t73.5 -165.5v-209q0 -95 -62 -168t-153 -80q90 -4 154.5 -79.5t64.5 -172.5v-247q0 -93 -75.5 -166.5t-168.5 -73.5h-1089zM453 225h739q41 0 65.5 30.5t24.5 74.5v202q0 43 -24 69t-66 26h-739v-402zM453 848h737q42 0 66 25.5 t24 68.5v166q0 44 -24.5 74t-65.5 30h-737v-364z" />
<glyph unicode="C" horiz-adv-x="1703" d="M180 254v926q0 93 80.5 173.5t173.5 80.5h854q93 0 173.5 -80.5t80.5 -173.5v-230l-258 -51v301h-835v-964h835v315l258 -49v-248q0 -93 -80.5 -173.5t-173.5 -80.5h-854q-93 0 -173.5 80.5t-80.5 173.5z" />
<glyph unicode="D" horiz-adv-x="1802" d="M201 0v1434h731q112 0 208 -16.5t166 -44.5t128 -68.5t96.5 -84t67 -96.5t44.5 -100.5t25.5 -102t12.5 -94t3 -82.5v-55q0 -57 -5 -109t-23 -124.5t-48.5 -132.5t-88 -122t-134 -105t-193 -70t-259.5 -27h-731zM463 231h461q93 0 168.5 17t126 44.5t87.5 68.5t57 81.5 t32 91.5t15 90.5t3 86.5v12q0 47 -3 86t-15 91t-32 92t-57 81.5t-87 68.5t-125.5 44.5t-169.5 17.5h-461v-973z" />
<glyph unicode="E" horiz-adv-x="1568" d="M201 0v1434h1251v-230h-989v-352h594v-231h-594v-390h1003v-231h-1265z" />
<glyph unicode="F" horiz-adv-x="1454" d="M201 0v1434h1214v-230h-952v-352h577v-231h-577v-621h-262z" />
<glyph unicode="G" horiz-adv-x="1798" d="M180 254v926q0 101 76.5 177.5t177.5 76.5h942q101 0 177.5 -76.5t76.5 -177.5v-119l-258 -51v190h-923v-964h921v354h-463v217h723v-553q0 -101 -76.5 -177.5t-177.5 -76.5h-942q-101 0 -177.5 76.5t-76.5 177.5z" />
<glyph unicode="H" horiz-adv-x="1832" d="M201 0v1434h262v-574h907v574h262v-1434h-262v631h-907v-631h-262z" />
<glyph unicode="I" horiz-adv-x="663" d="M201 0v1434h262v-1434h-262z" />
<glyph unicode="J" horiz-adv-x="1419" d="M100 254v383l256 49v-450h609v1198h266v-1180q0 -93 -80.5 -173.5t-173.5 -80.5h-623q-93 0 -173.5 80.5t-80.5 173.5z" />
<glyph unicode="K" horiz-adv-x="1619" d="M201 0v1434h262v-629l737 629h340l-790 -672l905 -762h-383l-809 678v-678h-262z" />
<glyph unicode="L" horiz-adv-x="1421" d="M201 0v1434h262v-1201h928v-233h-1190z" />
<glyph unicode="M" horiz-adv-x="1992" d="M201 0v1434h225l575 -830l568 830h223v-1434h-250v991l-551 -801l-553 795v-985h-237z" />
<glyph unicode="N" horiz-adv-x="1826" d="M201 0v1434h196l983 -1022v1022h246v-1434h-196l-984 1024v-1024h-245z" />
<glyph unicode="O" horiz-adv-x="1835" d="M180 254v926q0 93 80.5 173.5t173.5 80.5h967q93 0 173.5 -80.5t80.5 -173.5v-926q0 -93 -80.5 -173.5t-173.5 -80.5h-967q-93 0 -173.5 80.5t-80.5 173.5zM449 238h937v960h-937v-960z" />
<glyph unicode="P" horiz-adv-x="1656" d="M201 0v1434h1085q94 0 166 -72t72 -166v-424q0 -94 -72 -167t-166 -73h-833v-532h-252zM453 758h731q42 0 66 27t24 71v250q0 44 -24.5 74t-65.5 30h-731v-452z" />
<glyph unicode="Q" horiz-adv-x="1835" d="M180 254v926q0 93 80.5 173.5t173.5 80.5h967q93 0 173.5 -80.5t80.5 -173.5v-926q0 -93 -80.5 -173.5t-173.5 -80.5h-152l127 -291h-243l-123 291h-576q-93 0 -173.5 80.5t-80.5 173.5zM449 238h462l-108 256l196 77l148 -333h239v960h-937v-960z" />
<glyph unicode="R" horiz-adv-x="1712" d="M201 0v1434h1085q94 0 166 -72t72 -166v-397q0 -94 -72 -167t-166 -73h-225l588 -559h-340l-580 559h-276v-559h-252zM453 784h733q42 0 65 27.5t23 71.5v223q0 45 -23.5 74.5t-64.5 29.5h-733v-426z" />
<glyph unicode="S" horiz-adv-x="1652" d="M139 242v92l252 51v-152h856v375h-844q-93 0 -167 74t-74 168v330q0 93 80.5 173.5t173.5 80.5h819q99 0 175.5 -74.5t76.5 -167.5v-86l-252 -51v147h-813v-358h844q92 0 166.5 -74t74.5 -168v-348q0 -93 -80.5 -173.5t-173.5 -80.5h-862q-99 0 -175.5 74.5t-76.5 167.5z " />
<glyph unicode="T" horiz-adv-x="1454" d="M6 1204v230h1442v-230h-590v-1204h-262v1204h-590z" />
<glyph unicode="U" horiz-adv-x="1765" d="M188 254v1180h267v-1196h854v1196h268v-1180q0 -93 -80.5 -173.5t-173.5 -80.5h-881q-93 0 -173.5 80.5t-80.5 173.5z" />
<glyph unicode="V" horiz-adv-x="1595" d="M6 1434h285l510 -1086l518 1086h276l-712 -1434h-187z" />
<glyph unicode="W" horiz-adv-x="2011" d="M20 1434h263l317 -983l328 983h180l326 -988l319 988h236l-478 -1434h-186l-324 967l-329 -967h-172z" />
<glyph unicode="X" horiz-adv-x="1572" d="M8 0l610 741l-581 693h321l420 -510l412 510h293l-557 -674l639 -760h-322l-475 578l-467 -578h-293z" />
<glyph unicode="Y" horiz-adv-x="1495" d="M-39 1434h318l471 -584l485 584h295l-651 -783v-651h-261v641z" />
<glyph unicode="Z" horiz-adv-x="1490" d="M74 0v121l887 1087h-805v226h1228v-103l-901 -1106h914v-225h-1323z" />
<glyph unicode="[" horiz-adv-x="765" d="M231 -186v1806h396v-190h-172v-1426h172v-190h-396z" />
<glyph unicode="\" horiz-adv-x="1175" d="M0 1389l156 96l1020 -1440l-154 -94z" />
<glyph unicode="]" horiz-adv-x="765" d="M139 4h172v1426h-172v190h396v-1806h-396v190z" />
<glyph unicode="^" horiz-adv-x="1331" d="M178 758l389 676h197l393 -676l-186 -70l-305 539l-304 -539z" />
<glyph unicode="_" horiz-adv-x="1024" d="M0 -154h1024v-133h-1024v133z" />
<glyph unicode="`" horiz-adv-x="681" d="M37 1386l104 181l434 -287l-49 -88z" />
<glyph unicode="a" horiz-adv-x="1386" d="M135 199v221q0 73 59 130.5t138 57.5h659v215h-608v-96l-229 43v64q0 73 60.5 130.5t141.5 57.5h662q76 0 141.5 -62.5t65.5 -136.5v-823h-234v129q-61 -65 -143.5 -97t-204.5 -32h-303q-78 0 -141.5 63t-63.5 136zM369 236q0 -14 8.5 -23.5t21.5 -9.5h359 q64 0 128.5 13.5t104.5 35.5v180h-592q-13 0 -21.5 -8.5t-8.5 -22.5v-165z" />
<glyph unicode="b" horiz-adv-x="1404" d="M162 0v1434h239v-539q59 64 142 95.5t205 31.5h286q90 0 153.5 -60.5t63.5 -142.5v-616q0 -82 -63.5 -142.5t-153.5 -60.5h-286q-122 0 -204 32t-143 97v-129h-239zM401 256q40 -22 104 -35.5t128 -13.5h381v608h-381q-64 0 -128 -13.5t-104 -35.5v-510z" />
<glyph unicode="c" horiz-adv-x="1394" d="M154 199v624q0 72 65.5 135.5t140.5 63.5h678q75 0 140 -63.5t65 -135.5v-147l-229 -43v182h-621v-608h621v192l229 -41v-159q0 -72 -65 -135.5t-140 -63.5h-678q-75 0 -140.5 63.5t-65.5 135.5z" />
<glyph unicode="d" horiz-adv-x="1404" d="M154 203v616q0 82 63.5 142.5t153.5 60.5h286q122 0 205 -31.5t142 -95.5v539h239v-1434h-239v129q-60 -65 -143 -97t-204 -32h-286q-90 0 -153.5 60.5t-63.5 142.5zM391 207h381q64 0 128 13.5t104 35.5v510q-40 22 -104 35.5t-128 13.5h-381v-608z" />
<glyph unicode="e" horiz-adv-x="1394" d="M154 199v624q0 78 62 138.5t144 60.5h676q82 0 144.5 -60.5t62.5 -138.5v-387h-856v-237h635v106l221 -43v-63q0 -78 -62.5 -138.5t-144.5 -60.5h-676q-82 0 -144 60.5t-62 138.5zM387 612h633v211h-633v-211z" />
<glyph unicode="f" horiz-adv-x="899" d="M61 815v207h205v215q0 73 64 135t143 62h336l43 -197h-348v-215h319v-207h-319v-815h-238v815h-205z" />
<glyph unicode="g" horiz-adv-x="1351" d="M131 -106q0 67 34 119t89 83q-80 47 -80 148q0 97 96 157q-52 24 -84 70.5t-32 99.5v265q0 71 60.5 128.5t133.5 57.5h529q53 0 103.5 -34.5t74.5 -84.5q69 139 182 139h33v-204q-32 6 -60 6q-90 0 -139 -60v-213q0 -72 -59.5 -129t-134.5 -57h-463q-31 0 -47.5 -18 t-16.5 -45q0 -26 16.5 -44t47.5 -18h647q81 0 144 -60t63 -137v-174q0 -78 -62.5 -137t-144.5 -59h-721q-97 0 -153 45.5t-56 120.5v35zM332 -47v-68h649q57 0 57 58v69q0 56 -57 56h-608h-6q-35 -35 -35 -115zM365 578h495v251h-495v-251z" />
<glyph unicode="h" horiz-adv-x="1355" d="M162 0v1434h239v-539q61 64 143 95.5t204 31.5h227q91 0 155 -60t64 -143v-819h-240v815h-321q-64 0 -128 -13.5t-104 -35.5v-766h-239z" />
<glyph unicode="i" horiz-adv-x="569" d="M150 1255v119q0 25 21 42.5t50 17.5h127q31 0 51.5 -17.5t20.5 -42.5v-119q0 -26 -20.5 -43.5t-51.5 -17.5h-127q-30 0 -50.5 17.5t-20.5 43.5zM168 0v1022h238v-1022h-238z" />
<glyph unicode="j" horiz-adv-x="571" d="M-14 -113h182v1135h238v-1135q0 -73 -64 -134.5t-143 -61.5h-168zM150 1255v119q0 25 21 42.5t50 17.5h129q29 0 50.5 -17.5t21.5 -42.5v-119q0 -26 -21 -43.5t-51 -17.5h-129q-30 0 -50.5 17.5t-20.5 43.5z" />
<glyph unicode="k" horiz-adv-x="1224" d="M170 0v1434h238v-832l475 420h297l-555 -481l637 -541h-332l-522 451v-451h-238z" />
<glyph unicode="l" horiz-adv-x="561" d="M162 0v1434h237v-1434h-237z" />
<glyph unicode="m" horiz-adv-x="1855" d="M162 0v1022h239v-127q56 64 131 95.5t187 31.5h112q66 0 120 -35t79 -90q59 64 137 94.5t195 30.5h113q91 0 155 -60t64 -143v-819h-240v815h-194q-126 0 -211 -47v-768h-238v815h-195q-60 0 -119 -13.5t-96 -35.5v-766h-239z" />
<glyph unicode="n" horiz-adv-x="1355" d="M162 0v1022h239v-127q61 64 143 95.5t204 31.5h227q91 0 155 -60t64 -143v-819h-240v815h-321q-64 0 -128 -13.5t-104 -35.5v-766h-239z" />
<glyph unicode="o" horiz-adv-x="1394" d="M154 199v624q0 72 65.5 135.5t140.5 63.5h676q75 0 141 -63.5t66 -135.5v-624q0 -72 -66 -135.5t-141 -63.5h-676q-75 0 -140.5 63.5t-65.5 135.5zM393 207h608v608h-608v-608z" />
<glyph unicode="p" horiz-adv-x="1404" d="M162 -309v1331h239v-127q61 64 143 95.5t204 31.5h286q90 0 153.5 -60.5t63.5 -142.5v-616q0 -82 -63.5 -142.5t-153.5 -60.5h-286q-123 0 -205.5 32t-141.5 97v-438h-239zM401 256q40 -22 104 -35.5t128 -13.5h381v608h-381q-64 0 -128 -13.5t-104 -35.5v-510z" />
<glyph unicode="q" horiz-adv-x="1429" d="M154 203v616q0 82 63.5 142.5t153.5 60.5h286q121 0 203.5 -31.5t143.5 -95.5v127h239v-1331h-239v438q-59 -65 -141.5 -97t-205.5 -32h-286q-90 0 -153.5 60.5t-63.5 142.5zM391 207h381q64 0 128 13.5t104 35.5v510q-40 22 -104 35.5t-128 13.5h-381v-608z" />
<glyph unicode="r" horiz-adv-x="1056" d="M162 0v1022h239v-127q52 65 121 98t172 33h92q91 0 148 -58t57 -143v-147l-225 -39v180h-162q-130 0 -203 -49v-770h-239z" />
<glyph unicode="s" horiz-adv-x="1376" d="M135 188v68l225 43v-109h635v230h-645q-76 0 -136 58t-60 130v215q0 74 65 136.5t141 62.5h644q79 0 140.5 -58t61.5 -130v-64l-225 -43v100h-598v-211h643q81 0 140 -57.5t59 -130.5v-229q0 -73 -66 -136t-141 -63h-680q-79 0 -141 58t-62 130z" />
<glyph unicode="t" horiz-adv-x="878" d="M41 815v207h205v246l237 49v-295h320v-207h-320v-608h348l-43 -207h-335q-78 0 -142.5 63t-64.5 136v616h-205z" />
<glyph unicode="u" horiz-adv-x="1355" d="M162 203v819h239v-815h322q141 0 231 49v766h240v-1022h-240v129q-60 -65 -142.5 -97t-203.5 -32h-227q-91 0 -155 60t-64 143z" />
<glyph unicode="v" horiz-adv-x="1222" d="M8 1022h252l354 -715l357 715h243l-522 -1022h-170z" />
<glyph unicode="w" horiz-adv-x="1583" d="M31 1022h235l223 -655l230 655h164l227 -653l225 653h217l-364 -1022h-166l-231 649l-238 -649h-156z" />
<glyph unicode="x" horiz-adv-x="1193" d="M2 0l449 526l-424 496h288l279 -332l280 332h267l-412 -483l463 -539h-289l-319 377l-314 -377h-268z" />
<glyph unicode="y" horiz-adv-x="1222" d="M8 1022h252l361 -705l350 705h243l-583 -1143q-96 -188 -295 -188h-184l-37 207h284l97 186z" />
<glyph unicode="z" horiz-adv-x="1191" d="M61 0v106l644 719h-576v197h942v-102l-649 -723h657v-197h-1018z" />
<glyph unicode="{" horiz-adv-x="765" d="M117 635v164h47q41 0 65.5 29t24.5 83v519q0 76 51 133t125 57h262v-190h-135q-86 0 -86 -95v-436q0 -73 -40.5 -121.5t-115.5 -60.5q75 -12 115.5 -58t40.5 -122v-437q0 -96 86 -96h135v-190h-262q-74 0 -125 57.5t-51 134.5v518q0 54 -24.5 82.5t-65.5 28.5h-47z" />
<glyph unicode="|" horiz-adv-x="681" d="M238 -512v2048h206v-2048h-206z" />
<glyph unicode="}" horiz-adv-x="765" d="M74 4h135q86 0 86 96v437q0 76 40.5 122t115.5 58q-76 12 -116 60t-40 122v436q0 95 -86 95h-135v190h262q74 0 125 -57t51 -133v-519q0 -54 24.5 -83t65.5 -29h47v-164h-47q-41 0 -65.5 -28.5t-24.5 -82.5v-518q0 -77 -51 -134.5t-125 -57.5h-262v190z" />
<glyph unicode="~" horiz-adv-x="1275" d="M127 532v203q0 72 50.5 126t125.5 54h117q51 0 115 -34l325 -164h45q39 0 39 45v139h205v-205q0 -72 -51.5 -125t-126.5 -53h-117q-47 0 -113 35l-327 164h-45q-37 0 -37 -47v-138h-205z" />
<glyph unicode="&#xa0;" />
<glyph unicode="&#xa1;" horiz-adv-x="663" d="M170 836v165q0 31 21.5 52.5t52.5 21.5h176q31 0 52.5 -21.5t21.5 -52.5v-165q0 -31 -21.5 -52.5t-52.5 -21.5h-176q-31 0 -52.5 21.5t-21.5 52.5zM178 -358l68 976h172l69 -976h-309z" />
<glyph unicode="&#xa2;" d="M205 391v656q0 76 70.5 142t150.5 66h283v179h174v-179h260q80 0 150.5 -66t70.5 -142v-152l-240 -47v190h-241v-639h241v201l240 -45v-164q0 -76 -70.5 -143.5t-150.5 -67.5h-260v-274h-174v274h-283q-80 0 -150.5 67.5t-70.5 143.5zM457 399h252v639h-252v-639z" />
<glyph unicode="&#xa3;" d="M166 -43v244q72 35 188 69v351h-188v223h188v241q0 62 19 122t56 111.5t99.5 83.5t141.5 32h606q99 0 175.5 -74.5t76.5 -167.5v-131l-248 -51v196h-561q-107 0 -107 -119v-243h430v-223h-430v-314q49 10 160 10q129 0 307.5 -23.5t298.5 -53.5v229l250 -51v-207 q0 -86 -64 -148.5t-153 -62.5q-73 0 -231 33q-241 55 -408 55q-334 0 -606 -131z" />
<glyph unicode="&#xa4;" horiz-adv-x="1331" d="M170 328l111 108q-84 125 -84 256q0 135 84 260l-111 107l129 129l109 -107q121 80 258 80q143 0 262 -80l106 107l127 -129l-106 -107q84 -122 84 -260q0 -141 -84 -258l106 -106l-127 -127l-106 108q-119 -82 -258 -82q-140 0 -262 82l-109 -108zM393 692 q0 -115 78.5 -195.5t194.5 -80.5t196 80.5t80 195.5t-80 198t-196 83q-114 0 -193.5 -83t-79.5 -198z" />
<glyph unicode="&#xa5;" d="M92 1434h316l473 -584l483 584h297l-500 -605h254v-192h-405v-143h405v-193h-405v-301h-260v301h-410v193h410v143h-410v192h252z" />
<glyph unicode="&#xa6;" horiz-adv-x="681" d="M238 -358v716h206v-716h-206zM238 666v716h206v-716h-206z" />
<glyph unicode="&#xa7;" horiz-adv-x="1396" d="M131 713v135q0 63 35.5 126.5t99.5 96.5v191q0 71 51.5 121.5t124.5 50.5h535q74 0 127 -51t53 -121v-134l-215 -57v170h-459v-141l682 -330q66 -32 87.5 -86t21.5 -135v-133q0 -62 -34.5 -122.5t-96.5 -94.5v-217q0 -71 -52.5 -123t-125.5 -52h-582q-73 0 -127.5 52 t-54.5 123v141l215 59v-180h508v162l-670 325q-70 34 -96.5 88.5t-26.5 135.5zM344 690l680 -330q37 18 37 58v157l-680 330q-37 -19 -37 -61v-154z" />
<glyph unicode="&#xa8;" horiz-adv-x="681" d="M-2 1292v121q0 28 18.5 47t46.5 19h119q28 0 47 -19t19 -47v-121q0 -28 -19 -46.5t-47 -18.5h-119q-28 0 -46.5 18.5t-18.5 46.5zM436 1292v121q0 28 19 47t47 19h116q28 0 47 -19t19 -47v-121q0 -28 -19 -46.5t-47 -18.5h-116q-28 0 -47 18.5t-19 46.5z" />
<glyph unicode="&#xa9;" horiz-adv-x="1746" d="M172 588v258q0 79 18.5 153.5t59 143t99 119.5t144 81.5t187.5 30.5h387q102 0 187.5 -30.5t144 -81.5t99 -119.5t59 -143t18.5 -153.5v-258q0 -79 -18.5 -153.5t-59 -143t-99 -120t-144 -82t-187.5 -30.5h-387q-102 0 -187.5 30.5t-144 82t-99 120t-59 143t-18.5 153.5z M328 588q0 -77 21.5 -144.5t63.5 -122t110.5 -86.5t156.5 -32h387q88 0 156.5 32t110.5 86.5t63.5 122t21.5 144.5v258q0 77 -21.5 144.5t-63.5 122t-110.5 86.5t-156.5 32h-387q-88 0 -156.5 -32t-110.5 -86.5t-63.5 -122t-21.5 -144.5v-258zM512 500v434q0 56 48 101.5 t106 45.5h424q58 0 103.5 -43.5t45.5 -99.5v-102l-182 -35v119h-357v-406h357v127l182 -33v-110q0 -56 -45.5 -101t-103.5 -45h-424q-58 0 -106 46t-48 102z" />
<glyph unicode="&#xaa;" horiz-adv-x="1079" d="M158 860v156q0 52 45.5 95.5t101.5 43.5h422v113h-365v-68l-192 29v61q0 52 49 98t105 46h448q53 0 101.5 -46t48.5 -98v-573h-195v92q-83 -92 -246 -92h-174q-53 0 -101 46t-48 97zM182 428v150h740v-150h-740zM352 909q0 -9 7 -15.5t16 -6.5h186q98 0 166 35v88h-352 q-9 0 -16 -6t-7 -15v-80z" />
<glyph unicode="&#xab;" horiz-adv-x="1267" d="M72 455v178l454 350l103 -98l-322 -342l322 -340l-103 -101zM639 455v178l455 350l102 -98l-322 -342l322 -340l-102 -101z" />
<glyph unicode="&#xac;" horiz-adv-x="1331" d="M98 807v194h1063v-641h-207v447h-856z" />
<glyph unicode="&#xad;" horiz-adv-x="724" d="M37 440v201h651v-201h-651z" />
<glyph unicode="&#xae;" horiz-adv-x="1118" d="M94 928v153q0 65 21 126.5t61 113t106.5 82.5t149.5 31h254q83 0 149.5 -31t106.5 -82.5t61 -113t21 -126.5v-153q0 -65 -21 -126t-61 -112t-106.5 -81.5t-149.5 -30.5h-254q-83 0 -149.5 30.5t-106.5 81.5t-61 112t-21 126zM213 928q0 -100 57.5 -170t161.5 -70h254 q104 0 161.5 70t57.5 170v153q0 100 -58 171t-161 71h-254q-103 0 -161 -71t-58 -171v-153zM338 791v430h352q39 0 67.5 -25t28.5 -59v-111q0 -31 -23 -57.5t-54 -26.5h-27l168 -151h-160l-160 149h-65v-149h-127zM465 1032h168q22 0 22 25v41q0 24 -22 24h-168v-90z" />
<glyph unicode="&#xaf;" horiz-adv-x="681" d="M16 1251v162h652v-162h-652z" />
<glyph unicode="&#xb0;" horiz-adv-x="819" d="M96 1149q0 126 93 215.5t221 89.5t220.5 -89.5t92.5 -215.5t-92.5 -215.5t-220.5 -89.5t-221 89.5t-93 215.5zM250 1149q0 -66 47 -113t113 -47t113.5 47t47.5 113t-47.5 114t-113.5 48t-113 -48t-47 -114z" />
<glyph unicode="&#xb1;" horiz-adv-x="1124" d="M25 0v197h1077v-197h-1077zM25 700v197h436v381h205v-381h436v-197h-436v-383h-205v383h-436z" />
<glyph unicode="&#xb2;" horiz-adv-x="956" d="M137 717v88q0 61 56 100l440 305v64h-307v-131l-172 35v116q0 55 45.5 97.5t107.5 42.5h363q59 0 104 -40t45 -94v-88q0 -68 -74 -118l-313 -215h254v100l170 -35v-108q0 -50 -41.5 -84.5t-97.5 -34.5h-580z" />
<glyph unicode="&#xb3;" horiz-adv-x="956" d="M121 858v88l170 35v-102h325q10 0 18.5 7t8.5 19v70q0 13 -10.5 23t-22.5 10h-207v149h187q10 0 18 6t8 17v67q0 27 -26 27h-287v-100l-170 34v86q0 55 46 97.5t108 42.5h356q73 0 116.5 -50t43.5 -114v-58q0 -72 -58 -120q40 -22 62 -57.5t22 -76.5v-75 q0 -64 -44.5 -115t-118.5 -51h-392q-62 0 -107.5 43t-45.5 98z" />
<glyph unicode="&#xb4;" horiz-adv-x="681" d="M109 1280l432 287l104 -181l-487 -194z" />
<glyph unicode="&#xb5;" horiz-adv-x="1376" d="M162 -309v1331h239v-727q0 -42 20.5 -65t55.5 -23h246q141 0 231 49v766h240v-815h106l-47 -207h-147q-132 0 -152 129q-60 -65 -142.5 -97t-203.5 -32h-78q-38 0 -75 14t-54 37v-360h-239z" />
<glyph unicode="&#xb6;" horiz-adv-x="1343" d="M131 786v465q0 71 56 127t130 56h912v-164h-103v-1264q0 -85 -53.5 -142t-134.5 -57h-459l-53 164h295v635h-404q-75 0 -130.5 54t-55.5 126zM862 -29h123v1299h-123v-1299z" />
<glyph unicode="&#xb7;" horiz-adv-x="1024" d="M348 506v182q0 31 22.5 53.5t53.5 22.5h178q31 0 52.5 -22.5t21.5 -53.5v-182q0 -31 -21.5 -53.5t-52.5 -22.5h-178q-31 0 -53.5 22.5t-22.5 53.5z" />
<glyph unicode="&#xb8;" horiz-adv-x="681" d="M109 -242l151 39v-55h170v98h-194v191h141v-62h115q40 0 70 -29t30 -69v-166q0 -40 -30 -69t-70 -29h-283q-41 0 -70.5 30.5t-29.5 69.5v51z" />
<glyph unicode="&#xb9;" horiz-adv-x="956" d="M246 1239v109l356 102v-733h-188v540z" />
<glyph unicode="&#xba;" horiz-adv-x="1079" d="M158 860v430q0 51 48 97.5t101 46.5h465q53 0 101.5 -46.5t48.5 -97.5v-430q0 -51 -48.5 -97t-101.5 -46h-465q-53 0 -101 46t-48 97zM182 428v150h715v-150h-715zM354 887h371v377h-371v-377z" />
<glyph unicode="&#xbb;" horiz-adv-x="1267" d="M74 203l321 340l-321 342l100 98l455 -350v-178l-455 -353zM641 203l322 340l-322 342l100 98l455 -350v-178l-455 -353z" />
<glyph unicode="&#xbc;" horiz-adv-x="1824" d="M207 1239v109l356 102v-733h-188v540zM233 0l1051 1434h189l-1053 -1434h-187zM840 164v125l454 428h174v-398h154v-155h-154v-164h-184v164h-444zM1075 319h209v201z" />
<glyph unicode="&#xbd;" horiz-adv-x="1824" d="M145 1239v109l357 102v-733h-189v540zM172 0l1051 1434h188l-1053 -1434h-186zM967 0v88q0 62 55 100l440 306v63h-307v-131l-172 35v117q0 55 46 97t108 42h362q59 0 104.5 -39.5t45.5 -93.5v-88q0 -69 -74 -119l-313 -215h254v100l170 -35v-108q0 -50 -41.5 -84.5 t-98.5 -34.5h-579z" />
<glyph unicode="&#xbe;" horiz-adv-x="1824" d="M94 858v88l170 35v-102h326q10 0 18 6.5t8 19.5v70q0 13 -10 23t-22 10h-207v149h186q10 0 18.5 6t8.5 17v67q0 13 -8 20t-19 7h-287v-100l-170 34v86q0 55 46 97.5t108 42.5h356q73 0 116.5 -50t43.5 -114v-58q0 -73 -57 -120q40 -22 62 -57.5t22 -76.5v-75 q0 -63 -45 -114.5t-119 -51.5h-391q-62 0 -108 43t-46 98zM358 0l1053 1434h186l-1050 -1434h-189zM965 164v125l454 428h176v-398h152v-155h-152v-164h-186v164h-444zM1202 319h207v201z" />
<glyph unicode="&#xbf;" horiz-adv-x="1107" d="M88 119q0 69 48 116.5t134 90.5l222 112v180h239v-206q0 -32 -9.5 -56t-33.5 -43t-41.5 -29t-56.5 -28l-262 -129v-266h538v186l240 -49v-135q0 -83 -71 -152t-156 -69h-564q-85 0 -156 69t-71 152v256zM449 836v165q0 31 21 52.5t52 21.5h176q31 0 52.5 -21.5 t21.5 -52.5v-165q0 -31 -21.5 -52.5t-52.5 -21.5h-176q-31 0 -52 21.5t-21 52.5z" />
<glyph unicode="&#xc0;" horiz-adv-x="1640" d="M-18 0l733 1434h221l713 -1434h-285l-150 311h-806l-154 -311h-272zM508 1735l104 180l435 -287l-50 -88zM518 537h586l-291 598z" />
<glyph unicode="&#xc1;" horiz-adv-x="1640" d="M-18 0l733 1434h221l713 -1434h-285l-150 311h-806l-154 -311h-272zM518 537h586l-291 598zM604 1628l432 287l105 -180l-488 -195z" />
<glyph unicode="&#xc2;" horiz-adv-x="1640" d="M-18 0l733 1434h221l713 -1434h-285l-150 311h-806l-154 -311h-272zM446 1614l299 258h173l296 -258l-53 -74l-330 170l-327 -170zM518 537h586l-291 598z" />
<glyph unicode="&#xc3;" horiz-adv-x="1640" d="M-18 0l733 1434h221l713 -1434h-285l-150 311h-806l-154 -311h-272zM461 1569v160q0 55 39 96t94 41h72q35 0 77 -25l197 -119h27q24 0 24 33v100h156v-157q0 -55 -40 -97t-95 -42h-72q-38 0 -78 24l-196 121h-27q-25 0 -25 -35v-100h-153zM518 537h586l-291 598z" />
<glyph unicode="&#xc4;" horiz-adv-x="1640" d="M-18 0l733 1434h221l713 -1434h-285l-150 311h-806l-154 -311h-272zM477 1640v121q0 28 19 47t47 19h119q28 0 46.5 -19t18.5 -47v-121q0 -28 -18.5 -46.5t-46.5 -18.5h-119q-28 0 -47 18.5t-19 46.5zM518 537h586l-291 598zM915 1640v121q0 28 19 47t47 19h117 q28 0 46.5 -19t18.5 -47v-121q0 -28 -18.5 -46.5t-46.5 -18.5h-117q-28 0 -47 18.5t-19 46.5z" />
<glyph unicode="&#xc5;" horiz-adv-x="1640" d="M-18 0l692 1356q-76 44 -76 123v131q0 67 52 109t116 42h117q63 0 114.5 -42t51.5 -109v-131q0 -78 -74 -121l674 -1358h-285l-150 311h-806l-154 -311h-272zM518 537h586l-291 598zM733 1454h182v180h-182v-180z" />
<glyph unicode="&#xc6;" horiz-adv-x="2584" d="M-31 0l1080 1434h1419v-230h-991v-352h594v-231h-594v-390h1005v-231h-1263v311h-707l-229 -311h-314zM676 537h543v667h-50z" />
<glyph unicode="&#xc7;" horiz-adv-x="1703" d="M180 254v926q0 93 80.5 173.5t173.5 80.5h854q93 0 173.5 -80.5t80.5 -173.5v-230l-258 -51v301h-835v-964h835v315l258 -49v-248q0 -93 -80.5 -173.5t-173.5 -80.5h-401v-31h119q39 0 67.5 -29.5t28.5 -68.5v-166q0 -39 -28.5 -67.5t-67.5 -28.5h-285q-39 0 -68.5 29.5 t-29.5 68.5v51l147 37v-55h174v102h-194v158h-316q-93 0 -173.5 80.5t-80.5 173.5z" />
<glyph unicode="&#xc8;" horiz-adv-x="1568" d="M201 0v1434h1251v-230h-989v-352h594v-231h-594v-390h1003v-231h-1265zM524 1735l105 180l434 -287l-49 -88z" />
<glyph unicode="&#xc9;" horiz-adv-x="1568" d="M201 0v1434h1251v-230h-989v-352h594v-231h-594v-390h1003v-231h-1265zM598 1628l432 287l105 -180l-488 -195z" />
<glyph unicode="&#xca;" horiz-adv-x="1568" d="M201 0v1434h1251v-230h-989v-352h594v-231h-594v-390h1003v-231h-1265zM444 1614l299 258h172l297 -258l-53 -74l-330 170l-327 -170z" />
<glyph unicode="&#xcb;" horiz-adv-x="1568" d="M201 0v1434h1251v-230h-989v-352h594v-231h-594v-390h1003v-231h-1265zM483 1640v121q0 28 19 47t47 19h119q28 0 46.5 -19t18.5 -47v-121q0 -28 -18.5 -46.5t-46.5 -18.5h-119q-28 0 -47 18.5t-19 46.5zM922 1640v121q0 28 18.5 47t46.5 19h117q28 0 46.5 -19t18.5 -47 v-121q0 -28 -18.5 -46.5t-46.5 -18.5h-117q-28 0 -46.5 18.5t-18.5 46.5z" />
<glyph unicode="&#xcc;" horiz-adv-x="659" d="M16 1735l105 180l434 -287l-49 -88zM201 0v1434h262v-1434h-262z" />
<glyph unicode="&#xcd;" horiz-adv-x="663" d="M109 1628l432 287l104 -180l-487 -195zM201 0v1434h262v-1434h-262z" />
<glyph unicode="&#xce;" horiz-adv-x="663" d="M-53 1614l299 258h172l297 -258l-53 -74l-330 170l-328 -170zM201 0v1434h262v-1434h-262z" />
<glyph unicode="&#xcf;" horiz-adv-x="663" d="M-12 1640v121q0 28 18.5 47t46.5 19h119q28 0 47 -19t19 -47v-121q0 -28 -19 -46.5t-47 -18.5h-119q-28 0 -46.5 18.5t-18.5 46.5zM201 0v1434h262v-1434h-262zM426 1640v121q0 28 19 47t47 19h116q28 0 47 -19t19 -47v-121q0 -28 -19 -46.5t-47 -18.5h-116 q-28 0 -47 18.5t-19 46.5z" />
<glyph unicode="&#xd0;" horiz-adv-x="1802" d="M47 625v200h154v609h731q112 0 208 -16.5t166 -44.5t128 -68.5t96.5 -84t67 -96.5t44.5 -100.5t25.5 -102t12.5 -94t3 -82.5v-55q0 -57 -5 -109t-23 -124.5t-48.5 -132.5t-88 -122t-134 -105t-193 -70t-259.5 -27h-731v625h-154zM463 231h461q93 0 168.5 17t126 44.5 t87.5 68.5t57 81.5t32 91.5t15 90.5t3 86.5v12q0 47 -3 86t-15 91t-32 92t-57 81.5t-87 68.5t-125.5 44.5t-169.5 17.5h-461v-379h473v-200h-473v-394z" />
<glyph unicode="&#xd1;" horiz-adv-x="1851" d="M201 0v1434h196l983 -1022v1022h246v-1434h-196l-984 1024v-1024h-245zM582 1569v160q0 55 39 96t94 41h71q36 0 78 -25l197 -119h26q25 0 25 33v100h156v-157q0 -55 -40 -97t-95 -42h-72q-37 0 -78 24l-197 121h-26q-25 0 -25 -35v-100h-153z" />
<glyph unicode="&#xd2;" horiz-adv-x="1835" d="M180 254v926q0 93 80.5 173.5t173.5 80.5h967q93 0 173.5 -80.5t80.5 -173.5v-926q0 -93 -80.5 -173.5t-173.5 -80.5h-967q-93 0 -173.5 80.5t-80.5 173.5zM449 238h937v960h-937v-960zM629 1735l104 180l434 -287l-49 -88z" />
<glyph unicode="&#xd3;" horiz-adv-x="1835" d="M180 254v926q0 93 80.5 173.5t173.5 80.5h967q93 0 173.5 -80.5t80.5 -173.5v-926q0 -93 -80.5 -173.5t-173.5 -80.5h-967q-93 0 -173.5 80.5t-80.5 173.5zM449 238h937v960h-937v-960zM666 1628l432 287l104 -180l-487 -195z" />
<glyph unicode="&#xd4;" horiz-adv-x="1835" d="M180 254v926q0 93 80.5 173.5t173.5 80.5h967q93 0 173.5 -80.5t80.5 -173.5v-926q0 -93 -80.5 -173.5t-173.5 -80.5h-967q-93 0 -173.5 80.5t-80.5 173.5zM449 238h937v960h-937v-960zM532 1614l299 258h173l296 -258l-53 -74l-329 170l-328 -170z" />
<glyph unicode="&#xd5;" horiz-adv-x="1835" d="M180 254v926q0 93 80.5 173.5t173.5 80.5h967q93 0 173.5 -80.5t80.5 -173.5v-926q0 -93 -80.5 -173.5t-173.5 -80.5h-967q-93 0 -173.5 80.5t-80.5 173.5zM449 238h937v960h-937v-960zM573 1569v160q0 55 39.5 96t94.5 41h71q36 0 78 -25l197 -119h26q25 0 25 33v100 h156v-157q0 -55 -40.5 -97t-95.5 -42h-71q-37 0 -78 24l-197 121h-26q-25 0 -25 -35v-100h-154z" />
<glyph unicode="&#xd6;" horiz-adv-x="1835" d="M180 254v926q0 93 80.5 173.5t173.5 80.5h967q93 0 173.5 -80.5t80.5 -173.5v-926q0 -93 -80.5 -173.5t-173.5 -80.5h-967q-93 0 -173.5 80.5t-80.5 173.5zM449 238h937v960h-937v-960zM573 1640v121q0 28 19 47t47 19h119q28 0 46.5 -19t18.5 -47v-121 q0 -28 -18.5 -46.5t-46.5 -18.5h-119q-28 0 -47 18.5t-19 46.5zM1012 1640v121q0 28 18.5 47t46.5 19h117q28 0 47 -19t19 -47v-121q0 -28 -19 -46.5t-47 -18.5h-117q-28 0 -46.5 18.5t-18.5 46.5z" />
<glyph unicode="&#xd7;" horiz-adv-x="1331" d="M215 410l313 313l-309 305l139 139l310 -305l305 305l143 -139l-309 -307l313 -311l-139 -140l-313 312l-314 -312z" />
<glyph unicode="&#xd8;" horiz-adv-x="1835" d="M180 254v926q0 93 80.5 173.5t173.5 80.5h909l152 208l123 -86l-111 -153q63 -35 105.5 -97t42.5 -126v-926q0 -93 -80.5 -173.5t-173.5 -80.5h-909l-152 -209l-123 86l111 152q-63 35 -105.5 97.5t-42.5 127.5zM449 238h28l697 960h-725v-960zM664 238h722v960h-28z" />
<glyph unicode="&#xd9;" horiz-adv-x="1765" d="M188 254v1180h267v-1196h854v1196h268v-1180q0 -93 -80.5 -173.5t-173.5 -80.5h-881q-93 0 -173.5 80.5t-80.5 173.5zM565 1735l105 180l434 -287l-49 -88z" />
<glyph unicode="&#xda;" horiz-adv-x="1765" d="M188 254v1180h267v-1196h854v1196h268v-1180q0 -93 -80.5 -173.5t-173.5 -80.5h-881q-93 0 -173.5 80.5t-80.5 173.5zM659 1628l433 287l104 -180l-487 -195z" />
<glyph unicode="&#xdb;" horiz-adv-x="1765" d="M188 254v1180h267v-1196h854v1196h268v-1180q0 -93 -80.5 -173.5t-173.5 -80.5h-881q-93 0 -173.5 80.5t-80.5 173.5zM498 1614l299 258h172l297 -258l-54 -74l-329 170l-328 -170z" />
<glyph unicode="&#xdc;" horiz-adv-x="1765" d="M188 254v1180h267v-1196h854v1196h268v-1180q0 -93 -80.5 -173.5t-173.5 -80.5h-881q-93 0 -173.5 80.5t-80.5 173.5zM539 1640v121q0 28 18.5 47t46.5 19h119q28 0 46.5 -19t18.5 -47v-121q0 -28 -18.5 -46.5t-46.5 -18.5h-119q-28 0 -46.5 18.5t-18.5 46.5zM977 1640 v121q0 28 18.5 47t46.5 19h117q28 0 47 -19t19 -47v-121q0 -28 -19 -46.5t-47 -18.5h-117q-28 0 -46.5 18.5t-18.5 46.5z" />
<glyph unicode="&#xdd;" horiz-adv-x="1495" d="M-39 1434h318l471 -584l485 584h295l-651 -783v-651h-261v641zM543 1628l432 287l104 -180l-487 -195z" />
<glyph unicode="&#xde;" horiz-adv-x="1662" d="M201 0v1434h252v-248h833q94 0 166 -73t72 -167v-414q0 -94 -72 -165.5t-166 -71.5h-833v-295h-252zM453 518h731q42 0 66 28t24 72v238q0 44 -24.5 74.5t-65.5 30.5h-731v-443z" />
<glyph unicode="&#xdf;" horiz-adv-x="1490" d="M61 815v207h205v215q0 73 64 135t143 62h602q99 0 159 -75t60 -175v-33q0 -90 -46.5 -147t-127.5 -80q99 -13 158 -79t59 -155v-440q0 -100 -60.5 -175t-160.5 -75h-391l-51 190h350q35 0 55.5 26t20.5 63v442q0 36 -25 65t-59 29h-316v207h308q36 0 55.5 21t19.5 57v49 q0 37 -20 62.5t-55 25.5h-504v-1237h-238v815h-205z" />
<glyph unicode="&#xe0;" horiz-adv-x="1386" d="M135 199v221q0 73 59 130.5t138 57.5h659v215h-608v-96l-229 43v64q0 73 60.5 130.5t141.5 57.5h662q76 0 141.5 -62.5t65.5 -136.5v-823h-234v129q-61 -65 -143.5 -97t-204.5 -32h-303q-78 0 -141.5 63t-63.5 136zM369 236q0 -14 8.5 -23.5t21.5 -9.5h359 q64 0 128.5 13.5t104.5 35.5v180h-592q-13 0 -21.5 -8.5t-8.5 -22.5v-165zM424 1386l104 181l435 -287l-50 -88z" />
<glyph unicode="&#xe1;" horiz-adv-x="1386" d="M135 199v221q0 73 59 130.5t138 57.5h659v215h-608v-96l-229 43v64q0 73 60.5 130.5t141.5 57.5h662q76 0 141.5 -62.5t65.5 -136.5v-823h-234v129q-61 -65 -143.5 -97t-204.5 -32h-303q-78 0 -141.5 63t-63.5 136zM369 236q0 -14 8.5 -23.5t21.5 -9.5h359 q64 0 128.5 13.5t104.5 35.5v180h-592q-13 0 -21.5 -8.5t-8.5 -22.5v-165zM424 1280l432 287l105 -181l-488 -194z" />
<glyph unicode="&#xe2;" horiz-adv-x="1386" d="M135 199v221q0 73 59 130.5t138 57.5h659v215h-608v-96l-229 43v64q0 73 60.5 130.5t141.5 57.5h662q76 0 141.5 -62.5t65.5 -136.5v-823h-234v129q-61 -65 -143.5 -97t-204.5 -32h-303q-78 0 -141.5 63t-63.5 136zM309 1266l299 258h172l297 -258l-53 -74l-330 170 l-327 -170zM369 236q0 -14 8.5 -23.5t21.5 -9.5h359q64 0 128.5 13.5t104.5 35.5v180h-592q-13 0 -21.5 -8.5t-8.5 -22.5v-165z" />
<glyph unicode="&#xe3;" horiz-adv-x="1386" d="M135 199v221q0 73 59 130.5t138 57.5h659v215h-608v-96l-229 43v64q0 73 60.5 130.5t141.5 57.5h662q76 0 141.5 -62.5t65.5 -136.5v-823h-234v129q-61 -65 -143.5 -97t-204.5 -32h-303q-78 0 -141.5 63t-63.5 136zM350 1221v159q0 55 39 96.5t94 41.5h72q36 0 78 -25 l196 -119h27q25 0 25 33v100h155v-157q0 -55 -40 -97.5t-95 -42.5h-72q-35 0 -77 25l-197 121h-27q-24 0 -24 -35v-100h-154zM369 236q0 -14 8.5 -23.5t21.5 -9.5h359q64 0 128.5 13.5t104.5 35.5v180h-592q-13 0 -21.5 -8.5t-8.5 -22.5v-165z" />
<glyph unicode="&#xe4;" horiz-adv-x="1386" d="M135 199v221q0 73 59 130.5t138 57.5h659v215h-608v-96l-229 43v64q0 73 60.5 130.5t141.5 57.5h662q76 0 141.5 -62.5t65.5 -136.5v-823h-234v129q-61 -65 -143.5 -97t-204.5 -32h-303q-78 0 -141.5 63t-63.5 136zM350 1292v121q0 28 19 47t47 19h119q28 0 46.5 -19 t18.5 -47v-121q0 -28 -18.5 -46.5t-46.5 -18.5h-119q-28 0 -47 18.5t-19 46.5zM369 236q0 -14 8.5 -23.5t21.5 -9.5h359q64 0 128.5 13.5t104.5 35.5v180h-592q-13 0 -21.5 -8.5t-8.5 -22.5v-165zM788 1292v121q0 28 19 47t47 19h117q28 0 46.5 -19t18.5 -47v-121 q0 -28 -18.5 -46.5t-46.5 -18.5h-117q-28 0 -47 18.5t-19 46.5z" />
<glyph unicode="&#xe5;" horiz-adv-x="1386" d="M135 199v221q0 73 59 130.5t138 57.5h659v215h-608v-96l-229 43v64q0 73 60.5 130.5t141.5 57.5h662q76 0 141.5 -62.5t65.5 -136.5v-823h-234v129q-61 -65 -143.5 -97t-204.5 -32h-303q-78 0 -141.5 63t-63.5 136zM369 236q0 -14 8.5 -23.5t21.5 -9.5h359 q64 0 128.5 13.5t104.5 35.5v180h-592q-13 0 -21.5 -8.5t-8.5 -22.5v-165zM467 1352v131q0 67 51 109t115 42h117q63 0 115.5 -42t52.5 -109v-131q0 -67 -51.5 -108.5t-116.5 -41.5h-117q-63 0 -114.5 41.5t-51.5 108.5zM600 1327h182v180h-182v-180z" />
<glyph unicode="&#xe6;" horiz-adv-x="2232" d="M135 199v221q0 73 59 130.5t138 57.5h659v215h-608v-96l-229 43v64q0 73 60.5 130.5t141.5 57.5h584q44 0 89 -25t77 -65q28 41 74 65.5t96 24.5h598q82 0 144.5 -60.5t62.5 -138.5v-387h-856v-237h635v106l221 -43v-63q0 -78 -62.5 -138.5t-144.5 -60.5h-676 q-62 0 -114 36t-76 91q-121 -127 -365 -127h-303q-78 0 -141.5 63t-63.5 136zM369 236q0 -14 8.5 -23.5t21.5 -9.5h359q64 0 128.5 13.5t104.5 35.5v180h-592q-13 0 -21.5 -8.5t-8.5 -22.5v-165zM1225 612h633v211h-633v-211z" />
<glyph unicode="&#xe7;" horiz-adv-x="1394" d="M154 199v624q0 72 65.5 135.5t140.5 63.5h678q75 0 140 -63.5t65 -135.5v-147l-229 -43v182h-621v-608h621v192l229 -41v-159q0 -72 -65 -135.5t-140 -63.5h-315v-31h115q40 0 70 -29t30 -69v-166q0 -40 -30 -69t-70 -29h-283q-41 0 -70.5 30.5t-29.5 69.5v51l151 39v-55 h170v98h-194v160h-222q-75 0 -140.5 63.5t-65.5 135.5z" />
<glyph unicode="&#xe8;" horiz-adv-x="1394" d="M154 199v624q0 78 62 138.5t144 60.5h676q82 0 144.5 -60.5t62.5 -138.5v-387h-856v-237h635v106l221 -43v-63q0 -78 -62.5 -138.5t-144.5 -60.5h-676q-82 0 -144 60.5t-62 138.5zM387 612h633v211h-633v-211zM428 1386l104 181l435 -287l-49 -88z" />
<glyph unicode="&#xe9;" horiz-adv-x="1394" d="M154 199v624q0 78 62 138.5t144 60.5h676q82 0 144.5 -60.5t62.5 -138.5v-387h-856v-237h635v106l221 -43v-63q0 -78 -62.5 -138.5t-144.5 -60.5h-676q-82 0 -144 60.5t-62 138.5zM387 612h633v211h-633v-211zM428 1280l432 287l105 -181l-488 -194z" />
<glyph unicode="&#xea;" horiz-adv-x="1394" d="M154 199v624q0 78 62 138.5t144 60.5h676q82 0 144.5 -60.5t62.5 -138.5v-387h-856v-237h635v106l221 -43v-63q0 -78 -62.5 -138.5t-144.5 -60.5h-676q-82 0 -144 60.5t-62 138.5zM313 1266l299 258h172l297 -258l-53 -74l-330 170l-327 -170zM387 612h633v211h-633v-211 z" />
<glyph unicode="&#xeb;" horiz-adv-x="1394" d="M154 199v624q0 78 62 138.5t144 60.5h676q82 0 144.5 -60.5t62.5 -138.5v-387h-856v-237h635v106l221 -43v-63q0 -78 -62.5 -138.5t-144.5 -60.5h-676q-82 0 -144 60.5t-62 138.5zM354 1292v121q0 28 19 47t47 19h119q28 0 46.5 -19t18.5 -47v-121q0 -28 -18.5 -46.5 t-46.5 -18.5h-119q-28 0 -47 18.5t-19 46.5zM387 612h633v211h-633v-211zM793 1292v121q0 28 18.5 47t46.5 19h117q28 0 46.5 -19t18.5 -47v-121q0 -28 -18.5 -46.5t-46.5 -18.5h-117q-28 0 -46.5 18.5t-18.5 46.5z" />
<glyph unicode="&#xec;" horiz-adv-x="569" d="M16 1386l105 181l434 -287l-49 -88zM168 0v1022h238v-1022h-238z" />
<glyph unicode="&#xed;" horiz-adv-x="569" d="M16 1280l433 287l104 -181l-487 -194zM168 0v1022h238v-1022h-238z" />
<glyph unicode="&#xee;" horiz-adv-x="569" d="M-98 1266l299 258h172l297 -258l-54 -74l-329 170l-328 -170zM168 0v1022h238v-1022h-238z" />
<glyph unicode="&#xef;" horiz-adv-x="569" d="M-57 1292v121q0 28 18.5 47t46.5 19h119q28 0 47 -19t19 -47v-121q0 -28 -19 -46.5t-47 -18.5h-119q-28 0 -46.5 18.5t-18.5 46.5zM168 0v1022h238v-1022h-238zM381 1292v121q0 28 18.5 47t46.5 19h117q28 0 47 -19t19 -47v-121q0 -28 -19 -46.5t-47 -18.5h-117 q-28 0 -46.5 18.5t-18.5 46.5z" />
<glyph unicode="&#xf0;" horiz-adv-x="1456" d="M154 199v624q0 72 65.5 135.5t140.5 63.5h297q122 0 205 -31.5t142 -95.5q-12 163 -115 293l-279 -103v111l201 74q-71 60 -170 112l254 93q75 -48 145 -121l263 96v-111l-195 -71q135 -198 135 -500v-569q0 -72 -66 -135.5t-141 -63.5h-676q-75 0 -140.5 63.5 t-65.5 135.5zM393 207h608v559q-38 22 -101.5 35.5t-127.5 13.5h-379v-608z" />
<glyph unicode="&#xf1;" horiz-adv-x="1355" d="M162 0v1022h239v-127q61 64 143 95.5t204 31.5h227q91 0 155 -60t64 -143v-819h-240v815h-321q-64 0 -128 -13.5t-104 -35.5v-766h-239zM334 1221v159q0 55 39 96.5t94 41.5h72q35 0 77 -25l197 -119h27q24 0 24 33v100h156v-157q0 -55 -40 -97.5t-95 -42.5h-72 q-36 0 -78 25l-196 121h-27q-25 0 -25 -35v-100h-153z" />
<glyph unicode="&#xf2;" horiz-adv-x="1394" d="M154 199v624q0 72 65.5 135.5t140.5 63.5h676q75 0 141 -63.5t66 -135.5v-624q0 -72 -66 -135.5t-141 -63.5h-676q-75 0 -140.5 63.5t-65.5 135.5zM393 207h608v608h-608v-608zM428 1386l104 181l435 -287l-49 -88z" />
<glyph unicode="&#xf3;" horiz-adv-x="1394" d="M154 199v624q0 72 65.5 135.5t140.5 63.5h676q75 0 141 -63.5t66 -135.5v-624q0 -72 -66 -135.5t-141 -63.5h-676q-75 0 -140.5 63.5t-65.5 135.5zM393 207h608v608h-608v-608zM428 1280l432 287l105 -181l-488 -194z" />
<glyph unicode="&#xf4;" horiz-adv-x="1394" d="M154 199v624q0 72 65.5 135.5t140.5 63.5h676q75 0 141 -63.5t66 -135.5v-624q0 -72 -66 -135.5t-141 -63.5h-676q-75 0 -140.5 63.5t-65.5 135.5zM313 1266l299 258h172l297 -258l-53 -74l-330 170l-327 -170zM393 207h608v608h-608v-608z" />
<glyph unicode="&#xf5;" horiz-adv-x="1394" d="M154 199v624q0 72 65.5 135.5t140.5 63.5h676q75 0 141 -63.5t66 -135.5v-624q0 -72 -66 -135.5t-141 -63.5h-676q-75 0 -140.5 63.5t-65.5 135.5zM354 1221v159q0 55 39 96.5t94 41.5h72q36 0 78 -25l197 -119h26q25 0 25 33v100h155v-157q0 -55 -40 -97.5t-95 -42.5 h-71q-36 0 -78 25l-197 121h-27q-24 0 -24 -35v-100h-154zM393 207h608v608h-608v-608z" />
<glyph unicode="&#xf6;" horiz-adv-x="1394" d="M154 199v624q0 72 65.5 135.5t140.5 63.5h676q75 0 141 -63.5t66 -135.5v-624q0 -72 -66 -135.5t-141 -63.5h-676q-75 0 -140.5 63.5t-65.5 135.5zM354 1292v121q0 28 19 47t47 19h119q28 0 46.5 -19t18.5 -47v-121q0 -28 -18.5 -46.5t-46.5 -18.5h-119q-28 0 -47 18.5 t-19 46.5zM393 207h608v608h-608v-608zM793 1292v121q0 28 18.5 47t46.5 19h117q28 0 46.5 -19t18.5 -47v-121q0 -28 -18.5 -46.5t-46.5 -18.5h-117q-28 0 -46.5 18.5t-18.5 46.5z" />
<glyph unicode="&#xf7;" horiz-adv-x="1124" d="M25 621v196h1077v-196h-1077zM438 270v119q0 28 19 47t47 19h119q28 0 46.5 -19t18.5 -47v-119q0 -28 -18.5 -46.5t-46.5 -18.5h-119q-28 0 -47 18.5t-19 46.5zM438 1049v116q0 28 19 48t47 20h119q27 0 46 -20t19 -48v-116q0 -28 -19 -48t-46 -20h-119q-28 0 -47 20 t-19 48z" />
<glyph unicode="&#xf8;" horiz-adv-x="1394" d="M154 199v624q0 72 65.5 135.5t140.5 63.5h568l131 209l123 -86l-84 -135q59 -22 102 -76.5t43 -110.5v-624q0 -72 -66 -135.5t-141 -63.5h-569l-129 -209l-123 86l84 133q-60 24 -102.5 78t-42.5 111zM393 207h27l379 608h-406v-608zM596 207h405v608h-26z" />
<glyph unicode="&#xf9;" horiz-adv-x="1355" d="M162 203v819h239v-815h322q141 0 231 49v766h240v-1022h-240v129q-60 -65 -142.5 -97t-203.5 -32h-227q-91 0 -155 60t-64 143zM408 1386l104 181l434 -287l-49 -88z" />
<glyph unicode="&#xfa;" horiz-adv-x="1355" d="M162 203v819h239v-815h322q141 0 231 49v766h240v-1022h-240v129q-60 -65 -142.5 -97t-203.5 -32h-227q-91 0 -155 60t-64 143zM410 1280l432 287l104 -181l-487 -194z" />
<glyph unicode="&#xfb;" horiz-adv-x="1355" d="M162 203v819h239v-815h322q141 0 231 49v766h240v-1022h-240v129q-60 -65 -142.5 -97t-203.5 -32h-227q-91 0 -155 60t-64 143zM293 1266l299 258h172l297 -258l-53 -74l-330 170l-328 -170z" />
<glyph unicode="&#xfc;" horiz-adv-x="1355" d="M162 203v819h239v-815h322q141 0 231 49v766h240v-1022h-240v129q-60 -65 -142.5 -97t-203.5 -32h-227q-91 0 -155 60t-64 143zM334 1292v121q0 28 18.5 47t46.5 19h119q28 0 47 -19t19 -47v-121q0 -28 -19 -46.5t-47 -18.5h-119q-28 0 -46.5 18.5t-18.5 46.5zM772 1292 v121q0 28 19 47t47 19h116q28 0 47 -19t19 -47v-121q0 -28 -19 -46.5t-47 -18.5h-116q-28 0 -47 18.5t-19 46.5z" />
<glyph unicode="&#xfd;" horiz-adv-x="1222" d="M8 1022h252l361 -705l350 705h243l-583 -1143q-96 -188 -295 -188h-184l-37 207h284l97 186zM356 1280l432 287l105 -181l-487 -194z" />
<glyph unicode="&#xfe;" horiz-adv-x="1404" d="M162 -309v1743h239v-539q61 64 143 95.5t204 31.5h286q90 0 153.5 -60.5t63.5 -142.5v-616q0 -82 -63.5 -142.5t-153.5 -60.5h-286q-123 0 -205.5 32t-141.5 97v-438h-239zM401 256q40 -22 104 -35.5t128 -13.5h381v608h-381q-64 0 -128 -13.5t-104 -35.5v-510z" />
<glyph unicode="&#xff;" horiz-adv-x="1222" d="M8 1022h252l361 -705l350 705h243l-583 -1143q-96 -188 -295 -188h-184l-37 207h284l97 186zM281 1292v121q0 28 18.5 47t46.5 19h119q28 0 46.5 -19t18.5 -47v-121q0 -28 -18.5 -46.5t-46.5 -18.5h-119q-28 0 -46.5 18.5t-18.5 46.5zM719 1292v121q0 28 18.5 47t46.5 19 h117q28 0 47 -19t19 -47v-121q0 -28 -19 -46.5t-47 -18.5h-117q-28 0 -46.5 18.5t-18.5 46.5z" />
<glyph unicode="&#x152;" horiz-adv-x="2740" d="M180 254v926q0 93 80.5 173.5t173.5 80.5h2189v-230h-991v-352h594v-231h-594v-390h1006v-231h-2204q-93 0 -173.5 80.5t-80.5 173.5zM449 238h925v960h-925v-960z" />
<glyph unicode="&#x153;" horiz-adv-x="2250" d="M154 199v624q0 72 65.5 135.5t140.5 63.5h592q44 0 90 -26.5t78 -67.5q28 42 74.5 68t97.5 26h600q82 0 144.5 -60.5t62.5 -138.5v-387h-856v-237h635v106l221 -43v-63q0 -78 -62.5 -138.5t-144.5 -60.5h-600q-51 0 -97 25.5t-75 66.5q-31 -41 -77 -66.5t-91 -25.5h-592 q-75 0 -140.5 63.5t-65.5 135.5zM393 207h608v608h-608v-608zM1243 612h633v211h-633v-211z" />
<glyph unicode="&#x178;" horiz-adv-x="1503" d="M-39 1434h318l471 -584l485 584h295l-651 -783v-651h-261v641zM410 1640v121q0 28 18.5 47t46.5 19h119q28 0 46.5 -19t18.5 -47v-121q0 -28 -18.5 -46.5t-46.5 -18.5h-119q-28 0 -46.5 18.5t-18.5 46.5zM848 1640v121q0 28 18.5 47t46.5 19h117q28 0 47 -19t19 -47v-121 q0 -28 -19 -46.5t-47 -18.5h-117q-28 0 -46.5 18.5t-18.5 46.5z" />
<glyph unicode="&#x2c6;" horiz-adv-x="681" d="M-43 1266l299 258h172l297 -258l-53 -74l-330 170l-328 -170z" />
<glyph unicode="&#x2dc;" horiz-adv-x="681" d="M-2 1221v159q0 55 39 96.5t94 41.5h72q36 0 78 -25l196 -119h27q24 0 24 33v100h156v-157q0 -55 -40 -97.5t-95 -42.5h-72q-36 0 -78 25l-196 121h-27q-24 0 -24 -35v-100h-154z" />
<glyph unicode="&#x2000;" horiz-adv-x="957" />
<glyph unicode="&#x2001;" horiz-adv-x="1915" />
<glyph unicode="&#x2002;" horiz-adv-x="957" />
<glyph unicode="&#x2003;" horiz-adv-x="1915" />
<glyph unicode="&#x2004;" horiz-adv-x="638" />
<glyph unicode="&#x2005;" horiz-adv-x="478" />
<glyph unicode="&#x2006;" horiz-adv-x="319" />
<glyph unicode="&#x2007;" horiz-adv-x="319" />
<glyph unicode="&#x2008;" horiz-adv-x="239" />
<glyph unicode="&#x2009;" horiz-adv-x="383" />
<glyph unicode="&#x200a;" horiz-adv-x="106" />
<glyph unicode="&#x2010;" horiz-adv-x="724" d="M37 440v201h651v-201h-651z" />
<glyph unicode="&#x2011;" horiz-adv-x="724" d="M37 440v201h651v-201h-651z" />
<glyph unicode="&#x2012;" horiz-adv-x="724" d="M37 440v201h651v-201h-651z" />
<glyph unicode="&#x2013;" horiz-adv-x="1024" d="M0 457v170h1024v-170h-1024z" />
<glyph unicode="&#x2014;" horiz-adv-x="2048" d="M0 457v170h2048v-170h-2048z" />
<glyph unicode="&#x2018;" horiz-adv-x="589" d="M129 1171v189q0 31 21.5 52.5t52.5 21.5h176q31 0 52.5 -21.5t21.5 -52.5v-180q0 -31 -21.5 -51.5t-52.5 -20.5h-78l150 -356h-125l-181 354q-16 32 -16 65z" />
<glyph unicode="&#x2019;" horiz-adv-x="589" d="M137 1180v180q0 31 21.5 52.5t52.5 21.5h176q31 0 52.5 -21.5t21.5 -52.5v-189q0 -31 -17 -65l-180 -354h-125l150 356h-78q-31 0 -52.5 20.5t-21.5 51.5z" />
<glyph unicode="&#x201a;" horiz-adv-x="589" d="M133 74v180q0 31 21.5 53.5t52.5 22.5h176q31 0 52.5 -22.5t21.5 -53.5v-188q0 -32 -17 -66l-180 -354h-125l150 358h-78q-31 0 -52.5 20t-21.5 50z" />
<glyph unicode="&#x201c;" horiz-adv-x="1130" d="M129 1171v189q0 31 21.5 52.5t52.5 21.5h176q31 0 52.5 -21.5t21.5 -52.5v-180q0 -31 -21.5 -51.5t-52.5 -20.5h-78l150 -356h-125l-181 354q-16 32 -16 65zM670 1171v189q0 31 21 52.5t52 21.5h177q31 0 52 -21.5t21 -52.5v-180q0 -31 -21 -51.5t-52 -20.5h-78l149 -356 h-125l-180 354q-16 32 -16 65z" />
<glyph unicode="&#x201d;" horiz-adv-x="1130" d="M137 1180v180q0 31 21.5 52.5t52.5 21.5h176q31 0 52.5 -21.5t21.5 -52.5v-189q0 -31 -17 -65l-180 -354h-125l150 356h-78q-31 0 -52.5 20.5t-21.5 51.5zM678 1180v180q0 31 21.5 52.5t52.5 21.5h176q31 0 52 -21.5t21 -52.5v-189q0 -33 -16 -65l-180 -354h-125l149 356 h-77q-31 0 -52.5 20.5t-21.5 51.5z" />
<glyph unicode="&#x201e;" horiz-adv-x="1130" d="M133 74v180q0 31 21.5 52.5t52.5 21.5h176q31 0 52.5 -21.5t21.5 -52.5v-188q0 -32 -17 -66l-180 -354h-125l150 356h-78q-31 0 -52.5 20.5t-21.5 51.5zM674 74v180q0 31 21.5 52.5t52.5 21.5h176q31 0 52 -21.5t21 -52.5v-188q0 -34 -16 -66l-180 -354h-125l149 356h-77 q-31 0 -52.5 20.5t-21.5 51.5z" />
<glyph unicode="&#x2022;" horiz-adv-x="1331" d="M344 707q0 133 94 227t228 94t227.5 -94t93.5 -227q0 -134 -94 -228t-227 -94q-134 0 -228 94.5t-94 227.5z" />
<glyph unicode="&#x2026;" horiz-adv-x="1775" d="M150 68v161q0 28 19.5 48t47.5 20h160q27 0 46 -20t19 -48v-161q0 -28 -19 -48t-46 -20h-160q-28 0 -47.5 20t-19.5 48zM741 68v161q0 28 20 48t48 20h160q27 0 46 -20t19 -48v-161q0 -28 -19 -48t-46 -20h-160q-28 0 -48 20t-20 48zM1333 68v161q0 28 20 48t48 20h160 q27 0 46 -20t19 -48v-161q0 -28 -19 -48t-46 -20h-160q-28 0 -48 20t-20 48z" />
<glyph unicode="&#x202f;" horiz-adv-x="383" />
<glyph unicode="&#x2039;" horiz-adv-x="700" d="M72 455v178l454 350l103 -98l-322 -342l322 -340l-103 -101z" />
<glyph unicode="&#x203a;" horiz-adv-x="700" d="M74 203l321 340l-321 342l100 98l455 -350v-178l-455 -353z" />
<glyph unicode="&#x205f;" horiz-adv-x="478" />
<glyph unicode="&#x20ac;" d="M61 465v192h209v144h-209v192h209v187q0 93 80.5 173.5t173.5 80.5h854q93 0 173.5 -80.5t80.5 -173.5v-86l-258 -52v158h-835v-207h557v-192h-557v-144h557v-192h-557v-229h835v172l258 -50v-104q0 -93 -80.5 -173.5t-173.5 -80.5h-854q-93 0 -173.5 80.5t-80.5 173.5 v211h-209z" />
<glyph unicode="&#x2122;" horiz-adv-x="1660" d="M31 1278v156h663v-156h-239v-479h-185v479h-239zM788 799v635h148l238 -324l239 324h143v-635h-172v346l-215 -289l-219 287v-344h-162z" />
<glyph unicode="&#x25fc;" horiz-adv-x="1024" d="M0 0v1024h1024v-1024h-1024z" />
</font>
</defs>
</svg>
