<?xml version="1.0" standalone="no"?>
<!DOCTYPE svg PUBLIC "-//W3C//DTD SVG 1.1//EN" "http://www.w3.org/Graphics/SVG/1.1/DTD/svg11.dtd" >
<svg xmlns="http://www.w3.org/2000/svg" xmlns:xlink="http://www.w3.org/1999/xlink" version="1.1">
<metadata></metadata>
<defs>
<font id="bank_gothicbold" horiz-adv-x="1826" >
<font-face units-per-em="2048" ascent="1720" descent="-328" />
<missing-glyph horiz-adv-x="681" />
<glyph unicode="&#xfb01;" horiz-adv-x="1536" d="M82 760v262h207v160q0 89 86 170.5t180 81.5h270l54 -242h-279v-170h780v-1022h-311v760h-469v-760h-311v760h-207zM1053 1225v147q0 26 24.5 44t59.5 18h174q35 0 59.5 -18t24.5 -44v-147q0 -26 -24.5 -45t-59.5 -19h-174q-35 0 -59.5 19t-24.5 45z" />
<glyph unicode="&#xfb02;" horiz-adv-x="1486" d="M41 760v262h207v160q0 89 86 170.5t180 81.5h817v-1434h-311v1192h-461v-170h322v-262h-322v-760h-311v760h-207z" />
<glyph horiz-adv-x="0" />
<glyph horiz-adv-x="682" />
<glyph unicode=" "  horiz-adv-x="681" />
<glyph unicode="&#x09;" horiz-adv-x="681" />
<glyph unicode="&#xa0;" horiz-adv-x="681" />
<glyph unicode="!" horiz-adv-x="731" d="M168 1434h395l-86 -953h-223zM172 88v180q0 37 25.5 62.5t62.5 25.5h211q37 0 62.5 -25.5t25.5 -62.5v-180q0 -37 -25.5 -62.5t-62.5 -25.5h-211q-37 0 -62.5 25.5t-25.5 62.5z" />
<glyph unicode="&#x22;" horiz-adv-x="1085" d="M129 1434h301l-61 -629h-176zM655 1434h301l-61 -629h-176z" />
<glyph unicode="#" horiz-adv-x="1398" d="M98 535l37 229h221l23 156h-217l37 227h219l45 287h209l-45 -287h245l46 287h208l-45 -287h219l-36 -227h-220l-22 -156h217l-37 -229h-219l-47 -289h-211l47 289h-244l-45 -289h-211l45 289h-219zM567 764h244l23 156h-244z" />
<glyph unicode="$" d="M213 309v82l301 51v-174h307v314h-268q-114 0 -211.5 97t-97.5 212v209q0 75 51.5 153.5t130 129.5t152.5 51h243v129h211v-129h221q127 0 228.5 -98t101.5 -212v-71l-301 -52v164h-250v-313h268q114 0 212 -97t98 -212v-209q0 -75 -51.5 -153.5t-130 -129.5t-152.5 -51 h-244v-223h-211v223h-278q-127 0 -228.5 97.5t-101.5 211.5zM549 852h272v313h-272v-313zM1032 268h273v314h-273v-314z" />
<glyph unicode="%" horiz-adv-x="2119" d="M102 895v360q0 63 62 121t127 58h422q65 0 126.5 -58t61.5 -121v-360q0 -63 -61.5 -120.5t-126.5 -57.5h-422q-65 0 -127 57.5t-62 120.5zM342 915h320v320h-320v-320zM428 0l1051 1434h213l-1051 -1434h-213zM1219 178v361q0 63 61.5 120.5t126.5 57.5h422 q65 0 126.5 -57.5t61.5 -120.5v-361q0 -63 -61.5 -120.5t-126.5 -57.5h-422q-65 0 -126.5 57.5t-61.5 120.5zM1458 199h320v319h-320v-319z" />
<glyph unicode="&#x26;" horiz-adv-x="1859" d="M106 225v273q0 94 99 161l289 195q-1 1 -4.5 4t-4.5 4q-53 53 -75.5 93.5t-22.5 91.5v202q0 78 64.5 131.5t164.5 53.5h474q100 0 164.5 -54t64.5 -131v-190l-283 -55v198h-338v-131l529 -500l309 301l190 -188l-305 -299l408 -385h-434l-187 176l-92 -90 q-86 -86 -203 -86h-587q-89 0 -154.5 67t-65.5 158zM397 268h521l96 92l-322 306l-295 -199v-199z" />
<glyph unicode="'" horiz-adv-x="559" d="M129 1434h301l-61 -629h-176z" />
<glyph unicode="(" horiz-adv-x="851" d="M127 608v217q0 150 39 285t115.5 250t200.5 202t284 132l61 -262q-124 -35 -215 -127t-135.5 -215.5t-44.5 -264.5v-217q0 -141 44.5 -264.5t135.5 -215t215 -126.5l-61 -262q-160 45 -284 131.5t-200.5 201.5t-115.5 250t-39 285z" />
<glyph unicode=")" horiz-adv-x="851" d="M25 2q124 35 215 126.5t135.5 215t44.5 264.5v217q0 141 -44.5 264.5t-135.5 215.5t-215 127l61 262q160 -45 284 -132t200.5 -202t115.5 -250t39 -285v-217q0 -150 -39 -285t-115.5 -250t-200.5 -201.5t-284 -131.5z" />
<glyph unicode="*" horiz-adv-x="751" d="M10 991l199 94l-199 95l94 166l189 -117l-12 205h190l-12 -207l188 121l94 -166l-198 -95l198 -94l-94 -166l-188 119l12 -209h-190l12 207l-187 -119z" />
<glyph unicode="+" horiz-adv-x="1331" d="M106 592v252h431v434h260v-434h430v-252h-430v-434h-260v434h-431z" />
<glyph unicode="," horiz-adv-x="681" d="M147 88v211q0 37 26 62.5t63 25.5h210q37 0 63 -25.5t26 -62.5v-242q0 -35 -19 -63l-203 -313h-149l174 319h-102q-37 0 -63 25.5t-26 62.5z" />
<glyph unicode="-" horiz-adv-x="761" d="M37 412v256h688v-256h-688z" />
<glyph unicode="." horiz-adv-x="681" d="M147 88v211q0 37 26 62.5t63 25.5h210q37 0 63 -25.5t26 -62.5v-211q0 -37 -26 -62.5t-63 -25.5h-210q-37 0 -63 25.5t-26 62.5z" />
<glyph unicode="/" horiz-adv-x="1210" d="M0 53l1018 1444l192 -117l-1017 -1443z" />
<glyph unicode="0" d="M178 334v766q0 75 51.5 153.5t130 129.5t152.5 51h803q74 0 152.5 -51t130 -129.5t51.5 -153.5v-766q0 -75 -51.5 -153.5t-130 -129.5t-152.5 -51h-803q-74 0 -152.5 51t-130 129.5t-51.5 153.5zM522 295h783v844h-783v-844z" />
<glyph unicode="1" d="M465 1098v192l678 168v-1458h-344v1122z" />
<glyph unicode="2" d="M217 0v180q0 122 119 207l907 660v92h-657v-289l-324 55v219q0 115 98 212.5t224 97.5h694q114 0 207.5 -89.5t93.5 -197.5v-72q0 -151 -143 -254l-736 -530h607v190l323 -53v-211q0 -92 -75 -154.5t-181 -62.5h-1157z" />
<glyph unicode="3" d="M223 309v144l324 55v-219h657q41 0 65.5 30t24.5 74v115q0 43 -24 68.5t-66 25.5h-420v277h373q42 0 66 25.5t24 68.5v67q0 44 -24.5 74.5t-65.5 30.5h-590v-215l-323 55v139q0 115 97.5 212.5t223.5 97.5h701q114 0 208.5 -94.5t94.5 -209.5v-79q0 -113 -73 -194.5 t-183 -104.5q133 -20 221 -112.5t88 -213.5v-123q0 -114 -99 -208.5t-214 -94.5h-764q-126 0 -224 97t-98 212z" />
<glyph unicode="4" d="M127 313v228l969 893h290v-828h297v-293h-297v-313h-337v313h-922zM573 606h476v441z" />
<glyph unicode="5" d="M227 371q208 -76 459 -76h522q29 0 50.5 22.5t21.5 49.5v180q0 27 -21.5 49t-50.5 22h-934l111 816h1104l-62 -295h-782l-31 -226h666q74 0 134 -23.5t97 -60.5t62 -86.5t35 -98t10 -97.5v-174q0 -54 -11.5 -105t-39 -100.5t-69 -86t-106.5 -59t-147 -22.5h-608 q-180 0 -334 53z" />
<glyph unicode="6" d="M219 373v340q0 348 271 546.5t751 198.5l186 -264q-408 0 -616.5 -86.5t-239.5 -257.5q40 10 101 18.5t92 8.5h534q74 0 133.5 -22.5t97 -58t62.5 -83t35 -94.5t10 -95v-151q0 -69 -19 -131.5t-60 -118.5t-116.5 -89.5t-176.5 -33.5h-672q-82 0 -147 22.5t-106.5 59 t-69 86t-39 100.5t-11.5 105zM553 360q0 -27 21.5 -49t50.5 -22h602q29 0 50 22t21 49v156q0 27 -21 49.5t-50 22.5h-447q-126 0 -227 -37v-68v-123z" />
<glyph unicode="7" d="M209 897v537h1442v-271l-647 -1163h-375l643 1139h-744v-297z" />
<glyph unicode="8" d="M180 291v147q0 115 81.5 199.5t197.5 99.5q-102 14 -178 99.5t-76 199.5v107q0 115 88.5 203t202.5 88h833q114 0 202.5 -88t88.5 -203v-107q0 -114 -70.5 -194.5t-181.5 -104.5q116 -15 197.5 -99.5t81.5 -199.5v-147q0 -115 -88.5 -203t-202.5 -88h-885 q-114 0 -202.5 88t-88.5 203zM502 387q0 -44 24 -71t66 -27h643q42 0 66 27t24 71v111q0 44 -24 71t-66 27h-643q-42 0 -66 -27t-24 -71v-111zM526 975q0 -44 24 -71t66 -27h592q42 0 66 27t24 71v76q0 44 -24 71t-66 27h-592q-42 0 -66 -27t-24 -71v-76z" />
<glyph unicode="9" d="M190 909v152q0 54 11.5 105t39 100.5t69 86t106.5 59t147 22.5h672q82 0 147 -22.5t106.5 -59t69 -86t39 -100.5t11.5 -105v-340q0 -348 -271 -547t-751 -199l-187 265q408 0 616.5 86.5t239.5 257.5q-41 -10 -101 -18.5t-91 -8.5h-535q-74 0 -133.5 22t-97 57.5 t-62.5 83t-35 94.5t-10 95zM528 918q0 -27 21.5 -49.5t50.5 -22.5h447q126 0 227 37v71v119q0 27 -21.5 49.5t-50.5 22.5h-602q-29 0 -50.5 -22.5t-21.5 -49.5v-155z" />
<glyph unicode=":" horiz-adv-x="681" d="M147 88v211q0 37 26 62.5t63 25.5h210q37 0 63 -25.5t26 -62.5v-211q0 -37 -26 -62.5t-63 -25.5h-210q-37 0 -63 25.5t-26 62.5zM147 723v211q0 37 26 62.5t63 25.5h210q37 0 63 -25.5t26 -62.5v-211q0 -37 -26 -62.5t-63 -25.5h-210q-37 0 -63 25.5t-26 62.5z" />
<glyph unicode=";" horiz-adv-x="681" d="M147 88v211q0 37 26 62.5t63 25.5h210q37 0 63 -25.5t26 -62.5v-242q0 -35 -19 -63l-203 -313h-149l174 319h-102q-37 0 -63 25.5t-26 62.5zM147 723v211q0 37 26 62.5t63 25.5h210q37 0 63 -25.5t26 -62.5v-211q0 -37 -26 -62.5t-63 -25.5h-210q-37 0 -63 25.5t-26 62.5 z" />
<glyph unicode="&#x3c;" horiz-adv-x="1331" d="M158 610v211l936 451v-275l-588 -286l588 -275v-274z" />
<glyph unicode="=" horiz-adv-x="1331" d="M106 375v252h1121v-252h-1121zM106 807v252h1121v-252h-1121z" />
<glyph unicode="&#x3e;" horiz-adv-x="1331" d="M238 162v274l587 275l-587 286v275l936 -451v-211z" />
<glyph unicode="?" horiz-adv-x="1161" d="M18 1057v110q0 94 91.5 180.5t189.5 86.5h510q98 0 190.5 -86.5t92.5 -180.5v-286q0 -97 -89 -182t-194 -85h-113v-133h-305v168q0 108 68 172t176 64h149v278h-458v-155zM352 88v180q0 37 25.5 62.5t62.5 25.5h211q37 0 62.5 -25.5t25.5 -62.5v-180q0 -37 -25.5 -62.5 t-62.5 -25.5h-211q-37 0 -62.5 25.5t-25.5 62.5z" />
<glyph unicode="@" horiz-adv-x="2070" d="M178 207v471q0 91 16.5 169.5t55.5 151t99 124t153.5 82t212.5 30.5h641q119 0 212 -30.5t153 -82t99.5 -124t55.5 -151t16 -169.5v-473q0 -88 -66 -146.5t-177 -58.5h-254q-60 0 -109.5 34t-56.5 91q-12 -18 -33 -36.5t-58.5 -40t-98.5 -35t-136 -13.5h-147 q-80 0 -146.5 63.5t-66.5 139.5v131q0 76 67.5 143.5t145.5 67.5h473v125h-404v-66l-252 41v57q0 75 65.5 129t147.5 54h482q80 0 147.5 -63.5t67.5 -139.5v-422q0 -24 13.5 -38.5t33.5 -14.5h158v471q0 85 -16 149t-53 114.5t-103 76.5t-160 26h-641q-94 0 -160 -26 t-103 -76.5t-53 -114.5t-16 -149v-471q0 -86 16 -150t53 -114.5t103 -76.5t160 -26h827v-190h-827q-119 0 -212.5 30.5t-153.5 82t-99 124t-55.5 151t-16.5 169.5zM799 236q0 -8 6.5 -14.5t13.5 -6.5h221q107 0 189 47v86h-410q-7 0 -13.5 -6t-6.5 -14v-92z" />
<glyph unicode="A" horiz-adv-x="1732" d="M-20 0l741 1434h295l729 -1434h-375l-125 252h-786l-125 -252h-354zM600 539h504l-252 508z" />
<glyph unicode="B" horiz-adv-x="1765" d="M195 0v1434h1108q114 0 208.5 -94.5t94.5 -209.5v-79q0 -116 -79 -205.5t-194 -104.5q112 -11 197.5 -103.5t85.5 -211.5v-123q0 -114 -99 -208.5t-214 -94.5h-1108zM520 281h678q41 0 65.5 30t24.5 74v123q0 43 -24 68.5t-66 25.5h-678v-321zM520 874h674q42 0 66 26 t24 69v86q0 44 -24.5 74t-65.5 30h-674v-285z" />
<glyph unicode="C" horiz-adv-x="1792" d="M170 334v766q0 75 51.5 153.5t130 129.5t152.5 51h799q74 0 152.5 -51t129.5 -129.5t51 -153.5v-189l-336 -55v274h-778v-827h778v299l336 -51v-217q0 -75 -51 -153.5t-129.5 -129.5t-152.5 -51h-799q-74 0 -152.5 51t-130 129.5t-51.5 153.5z" />
<glyph unicode="D" horiz-adv-x="1869" d="M195 0v1434h772q149 0 270 -26.5t202 -68.5t141.5 -103t93.5 -120.5t53 -132t26 -127t6 -113.5v-53q0 -60 -6 -114.5t-26 -126.5t-53 -132t-93.5 -120.5t-141.5 -102.5t-202 -68t-270 -26h-772zM539 295h422q84 0 151 13.5t113 35t80 55t53 68t30.5 79.5t15 83.5 t3.5 85.5v4q0 47 -3.5 85.5t-15 83.5t-30.5 79.5t-53 68t-80 55t-113 35t-151 13.5h-422v-844z" />
<glyph unicode="E" horiz-adv-x="1632" d="M195 0v1434h1312v-295h-968v-267h594v-294h-594v-283h983v-295h-1327z" />
<glyph unicode="F" horiz-adv-x="1503" d="M195 0v1434h1271v-295h-927v-267h594v-294h-594v-578h-344z" />
<glyph unicode="G" horiz-adv-x="1878" d="M170 334v766q0 132 101.5 233t232.5 101h870q132 0 233 -101t101 -233v-72l-336 -55v157h-850v-827h850v254h-469v268h805v-491q0 -131 -101 -232.5t-233 -101.5h-870q-130 0 -232 102t-102 232z" />
<glyph unicode="H" horiz-adv-x="1896" d="M195 0v1434h344v-543h819v543h344v-1434h-344v596h-819v-596h-344z" />
<glyph unicode="I" horiz-adv-x="733" d="M195 0v1434h344v-1434h-344z" />
<glyph unicode="J" horiz-adv-x="1501" d="M94 334v350l336 51v-432h537v1131h352v-1100q0 -75 -51.5 -153.5t-130 -129.5t-152.5 -51h-557q-74 0 -152.5 51t-130 129.5t-51.5 153.5z" />
<glyph unicode="K" horiz-adv-x="1736" d="M195 0v1434h344v-619l680 619h436l-733 -664l860 -770h-504l-739 670v-670h-344z" />
<glyph unicode="L" horiz-adv-x="1492" d="M195 0v1434h344v-1135h921v-299h-1265z" />
<glyph unicode="M" horiz-adv-x="2062" d="M195 0v1434h276l567 -746l553 746h277v-1434h-322v881l-524 -693l-528 684v-872h-299z" />
<glyph unicode="N" horiz-adv-x="1894" d="M195 0v1434h245l944 -908v908h316v-1434h-246l-944 907v-907h-315z" />
<glyph unicode="O" horiz-adv-x="1898" d="M170 334v766q0 75 51.5 153.5t130 129.5t152.5 51h891q74 0 152.5 -51t130 -129.5t51.5 -153.5v-766q0 -75 -51.5 -153.5t-130 -129.5t-152.5 -51h-891q-74 0 -152.5 51t-130 129.5t-51.5 153.5zM522 303h854v827h-854v-827z" />
<glyph unicode="P" horiz-adv-x="1714" d="M195 0v1434h1097q115 0 209 -94t94 -210v-331q0 -115 -93.5 -209t-209.5 -94h-772v-496h-325zM520 774h664q42 0 66 25.5t24 68.5v183q0 44 -24.5 74t-65.5 30h-664v-381z" />
<glyph unicode="Q" horiz-adv-x="1898" d="M170 334v766q0 75 51.5 153.5t130 129.5t152.5 51h891q74 0 152.5 -51t130 -129.5t51.5 -153.5v-766q0 -75 -51.5 -153.5t-130 -129.5t-152.5 -51h-70l117 -276h-328l-110 276h-500q-74 0 -152.5 51t-130 129.5t-51.5 153.5zM522 303h361l-86 217l264 98l135 -315h180 v827h-854v-827z" />
<glyph unicode="R" horiz-adv-x="1794" d="M195 0v1434h1097q115 0 209 -94t94 -210v-296q0 -116 -94 -210t-209 -94h-116l591 -530h-442l-573 530h-232v-530h-325zM520 809h664q42 0 66 25.5t24 68.5v148q0 44 -24.5 74t-65.5 30h-664v-346z" />
<glyph unicode="S" horiz-adv-x="1683" d="M117 309v70l332 55v-135h774v266h-766q-114 0 -212 97t-98 212v226q0 75 51.5 153.5t130 129.5t152.5 51h731q127 0 228.5 -98t101.5 -212v-59l-332 -55v125h-727v-267h766q114 0 212 -97t98 -212v-225q0 -75 -51.5 -153.5t-130 -129.5t-152.5 -51h-779q-127 0 -228 97.5 t-101 211.5z" />
<glyph unicode="T" horiz-adv-x="1544" d="M10 1139v295h1524v-295h-590v-1139h-344v1139h-590z" />
<glyph unicode="U" horiz-adv-x="1820" d="M182 334v1100h353v-1131h751v1131h352v-1100q0 -75 -51 -153.5t-129.5 -129.5t-152.5 -51h-789q-74 0 -152.5 51t-130 129.5t-51.5 153.5z" />
<glyph unicode="V" horiz-adv-x="1699" d="M14 1434h377l461 -1002l481 1002h361l-725 -1434h-271z" />
<glyph unicode="W" horiz-adv-x="2076" d="M25 1434h344l272 -844l291 844h242l299 -865l278 865h297l-477 -1434h-246l-295 854l-301 -854h-219z" />
<glyph unicode="X" horiz-adv-x="1701" d="M18 0l613 739l-592 695h422l379 -459l366 459h385l-557 -672l652 -762h-422l-437 528l-424 -528h-385z" />
<glyph unicode="Y" horiz-adv-x="1619" d="M-33 1434h410l436 -535l440 535h392l-664 -791v-643h-340v629z" />
<glyph unicode="Z" horiz-adv-x="1595" d="M61 0v152l875 995h-791v287h1342v-144l-885 -1003h893v-287h-1434z" />
<glyph unicode="[" horiz-adv-x="851" d="M231 -223v1880h482v-248h-191v-1384h191v-248h-482z" />
<glyph unicode="\" horiz-adv-x="1210" d="M0 1380l193 117l1017 -1444l-192 -116z" />
<glyph unicode="]" horiz-adv-x="851" d="M139 25h191v1384h-191v248h482v-1880h-482v248z" />
<glyph unicode="^" horiz-adv-x="1331" d="M137 739l404 695h250l405 -695l-238 -88l-292 512l-293 -512z" />
<glyph unicode="_" horiz-adv-x="1024" d="M0 -154h1024v-163h-1024v163z" />
<glyph unicode="`" horiz-adv-x="681" d="M14 1386l125 218l457 -316l-57 -100z" />
<glyph unicode="a" horiz-adv-x="1421" d="M106 254v133q0 89 78 161.5t172 72.5h607v155h-539v-76l-301 48v38q0 89 79.5 162.5t182.5 73.5h614q93 0 180 -82.5t87 -171.5v-768h-303v143q-63 -72 -150.5 -107.5t-216.5 -35.5h-223q-94 0 -180.5 82.5t-86.5 171.5zM410 270q0 -16 16 -16h330q57 0 114.5 13.5 t92.5 35.5v111h-537q-16 0 -16 -17v-127z" />
<glyph unicode="b" horiz-adv-x="1458" d="M156 0v1434h313v-555q62 72 150 107.5t217 35.5h188q117 0 204 -78.5t87 -185.5v-494q0 -107 -87 -185.5t-204 -78.5h-188q-130 0 -217 35t-150 108v-143h-313zM469 311q35 -22 92.5 -35.5t114.5 -13.5h325v498h-325q-57 0 -114.5 -13.5t-92.5 -35.5v-400z" />
<glyph unicode="c" horiz-adv-x="1445" d="M143 254v514q0 89 87.5 171.5t181.5 82.5h624q94 0 180.5 -82.5t86.5 -171.5v-113l-299 -47v152h-545v-498h545v166l299 -43v-131q0 -89 -86.5 -171.5t-180.5 -82.5h-624q-94 0 -181.5 82.5t-87.5 171.5z" />
<glyph unicode="d" horiz-adv-x="1458" d="M143 264v494q0 107 87 185.5t204 78.5h189q129 0 216.5 -35.5t149.5 -107.5v555h314v-1434h-314v143q-63 -73 -150 -108t-216 -35h-189q-117 0 -204 78.5t-87 185.5zM457 262h325q57 0 114.5 13.5t92.5 35.5v400q-35 22 -92.5 35.5t-114.5 13.5h-325v-498z" />
<glyph unicode="e" horiz-adv-x="1445" d="M143 254v514q0 99 82 176.5t187 77.5h622q106 0 187.5 -77t81.5 -177v-354h-848v-160h553v88l295 -47v-41q0 -101 -81.5 -177.5t-187.5 -76.5h-622q-105 0 -187 76.5t-82 177.5zM455 621h553v147h-553v-147z" />
<glyph unicode="f" horiz-adv-x="940" d="M41 760v262h207v160q0 89 86 170.5t180 81.5h342l53 -242h-350v-170h322v-262h-322v-760h-311v760h-207z" />
<glyph unicode="g" horiz-adv-x="1376" d="M121 -94q0 61 34.5 111.5t92.5 82.5q-84 40 -84 144q0 114 102 176q-55 31 -89 84t-34 112v175q0 88 77.5 159.5t168.5 71.5h481q62 0 121 -37t94 -94q65 151 187 151h41v-245q-38 9 -72 9q-76 0 -127 -46v-144q0 -89 -75 -160t-169 -71h-450q-23 0 -35 -13t-12 -34 q0 -45 47 -45h622q106 0 187.5 -76t81.5 -174v-98q0 -101 -81.5 -177.5t-187.5 -76.5h-649q-272 0 -272 190v25zM375 -31v-28h577q56 0 56 61v18q0 28 -14 45t-42 17h-538q-39 -39 -39 -113zM410 608h440v174h-440v-174z" />
<glyph unicode="h" horiz-adv-x="1404" d="M156 0v1434h313v-555q64 72 151 107.5t216 35.5h122q117 0 204 -78.5t87 -185.5v-758h-313v760h-260q-57 0 -114.5 -13.5t-92.5 -35.5v-711h-313z" />
<glyph unicode="i" horiz-adv-x="636" d="M147 1225v147q0 26 24.5 44t59.5 18h175q35 0 59 -18t24 -44v-147q0 -26 -24 -45t-59 -19h-175q-35 0 -59.5 19t-24.5 45zM164 0v1022h311v-1022h-311z" />
<glyph unicode="j" horiz-adv-x="638" d="M-18 -66h182v1088h311v-1077q0 -89 -86 -171.5t-180 -82.5h-176zM147 1225v147q0 26 25 44t59 18h177q35 0 59.5 -18t24.5 -44v-147q0 -26 -24.5 -45t-59.5 -19h-177q-34 0 -59 19t-25 45z" />
<glyph unicode="k" horiz-adv-x="1347" d="M168 0v1434h311v-813l410 401h383l-498 -475l584 -547h-430l-449 432v-432h-311z" />
<glyph unicode="l" horiz-adv-x="622" d="M156 0v1434h311v-1434h-311z" />
<glyph unicode="m" horiz-adv-x="1902" d="M156 0v1022h313v-143q54 72 128 107.5t181 35.5h43q81 0 150.5 -39.5t105.5 -103.5q59 72 139.5 107.5t196.5 35.5h43q117 0 204 -78.5t87 -185.5v-758h-313v760h-156q-45 0 -91 -12.5t-75 -32.5v-715h-313v760h-156q-47 0 -96 -13.5t-78 -35.5v-711h-313z" />
<glyph unicode="n" horiz-adv-x="1404" d="M156 0v1022h313v-143q64 72 151 107.5t216 35.5h122q117 0 204 -78.5t87 -185.5v-758h-313v760h-260q-57 0 -114.5 -13.5t-92.5 -35.5v-711h-313z" />
<glyph unicode="o" horiz-adv-x="1445" d="M143 254v514q0 89 87.5 171.5t181.5 82.5h624q94 0 180.5 -82.5t86.5 -171.5v-514q0 -89 -86.5 -171.5t-180.5 -82.5h-624q-94 0 -181.5 82.5t-87.5 171.5zM459 262h528v498h-528v-498z" />
<glyph unicode="p" horiz-adv-x="1458" d="M156 -309v1331h313v-143q64 72 151 107.5t216 35.5h188q117 0 204 -78.5t87 -185.5v-494q0 -107 -87 -185.5t-204 -78.5h-188q-129 0 -217 35.5t-150 107.5v-452h-313zM469 311q35 -22 92.5 -35.5t114.5 -13.5h325v498h-325q-57 0 -114.5 -13.5t-92.5 -35.5v-400z" />
<glyph unicode="q" horiz-adv-x="1458" d="M143 264v494q0 107 87 185.5t204 78.5h189q128 0 215 -35.5t151 -107.5v143h314v-1331h-314v452q-62 -72 -149.5 -107.5t-216.5 -35.5h-189q-117 0 -204 78.5t-87 185.5zM457 262h325q57 0 114.5 13.5t92.5 35.5v400q-35 22 -92.5 35.5t-114.5 13.5h-325v-498z" />
<glyph unicode="r" horiz-adv-x="1128" d="M156 0v1022h313v-143q46 74 107.5 112.5t150.5 38.5h68q117 0 189.5 -74t72.5 -188v-111l-293 -49v160h-148q-98 0 -147 -49v-719h-313z" />
<glyph unicode="s" horiz-adv-x="1409" d="M106 236v45l295 45v-88h570v153h-592q-94 0 -172 72.5t-78 161.5v143q0 89 87 171.5t181 82.5h590q102 0 182 -73.5t80 -162.5v-38l-293 -48v84h-532v-153h592q94 0 172 -72.5t78 -161.5v-143q0 -89 -87 -171.5t-180 -82.5h-628q-102 0 -183.5 73.5t-81.5 162.5z" />
<glyph unicode="t" horiz-adv-x="960" d="M41 760v262h207v229l311 66v-295h322v-262h-322v-498h350l-53 -262h-342q-94 0 -180 82.5t-86 171.5v506h-207z" />
<glyph unicode="u" horiz-adv-x="1404" d="M156 264v758h313v-760h260q57 0 114.5 13.5t92.5 35.5v711h313v-1022h-313v143q-63 -72 -150.5 -107.5t-216.5 -35.5h-123q-117 0 -203.5 78.5t-86.5 185.5z" />
<glyph unicode="v" horiz-adv-x="1310" d="M4 1022h332l323 -649l330 649h318l-535 -1022h-248z" />
<glyph unicode="w" horiz-adv-x="1626" d="M31 1022h303l186 -561l193 561h223l199 -567l186 567h274l-360 -1022h-217l-209 578l-215 -578h-197z" />
<glyph unicode="x" horiz-adv-x="1296" d="M2 0l457 522l-436 500h372l250 -297l252 297h344l-422 -485l475 -537h-372l-289 338l-287 -338h-344z" />
<glyph unicode="y" horiz-adv-x="1310" d="M4 1022h332l336 -625l317 625h318l-576 -1096q-61 -115 -151.5 -175t-233.5 -60h-182l-49 262h317l78 143z" />
<glyph unicode="z" horiz-adv-x="1259" d="M63 0v139l623 641h-563v242h1034v-129l-635 -651h654v-242h-1113z" />
<glyph unicode="{" horiz-adv-x="851" d="M115 612v209h47q42 0 67 30t25 87v510q0 80 57.5 144.5t134.5 64.5h310v-248h-131q-90 0 -90 -98v-406q0 -160 -166 -188q166 -28 166 -189v-405q0 -98 90 -98h131v-248h-310q-77 0 -134.5 64.5t-57.5 144.5v510q0 57 -24.5 86.5t-67.5 29.5h-47z" />
<glyph unicode="|" horiz-adv-x="681" d="M207 -512v2048h268v-2048h-268z" />
<glyph unicode="}" horiz-adv-x="851" d="M96 25h131q90 0 90 98v405q0 161 166 189q-166 28 -166 188v406q0 98 -90 98h-131v248h310q77 0 134.5 -64.5t57.5 -144.5v-510q0 -57 25 -87t67 -30h47v-209h-47q-43 0 -67.5 -29.5t-24.5 -86.5v-510q0 -80 -57.5 -144.5t-134.5 -64.5h-310v248z" />
<glyph unicode="~" horiz-adv-x="1275" d="M98 504v231q0 84 59 145.5t146 61.5h115q48 0 129 -41l319 -158h27q22 0 22 31v154h261v-232q0 -84 -59 -145.5t-146 -61.5h-115q-48 0 -129 41l-319 158h-27q-10 0 -16.5 -8.5t-6.5 -22.5v-153h-260z" />
<glyph unicode="&#xa0;" />
<glyph unicode="&#xa1;" horiz-adv-x="731" d="M168 -358l86 952h223l86 -952h-395zM172 807v180q0 37 25.5 62.5t62.5 25.5h211q37 0 62.5 -25.5t25.5 -62.5v-180q0 -37 -25.5 -62.5t-62.5 -25.5h-211q-37 0 -62.5 25.5t-25.5 62.5z" />
<glyph unicode="&#xa2;" d="M195 446v543q0 94 92 180t190 86h240v179h211v-179h209q98 0 189 -86t91 -180v-106l-307 -49v151h-182v-534h182v167l307 -45v-127q0 -94 -91 -180t-189 -86h-209v-274h-211v274h-240q-98 0 -190 86t-92 180zM518 451h199v534h-199v-534z" />
<glyph unicode="&#xa3;" d="M188 -68v316q113 52 185 71v269h-185v284h185v193q0 62 22.5 125t65 118.5t116 90.5t164.5 35h541q127 0 228.5 -98t101.5 -212v-69l-324 -56v146h-493q-82 0 -82 -94v-179h413v-284h-413v-219q111 6 118 6q244 0 551 -64v205l324 -55v-213q0 -100 -77.5 -175t-182.5 -75 q-110 0 -219 25q-261 59 -396 59q-178 0 -325 -36t-318 -114z" />
<glyph unicode="&#xa4;" horiz-adv-x="1331" d="M158 342l110 109q-73 117 -73 241q0 127 73 244l-110 106l155 156l109 -106q116 69 244 69q135 0 245 -69l109 106l154 -156l-109 -106q74 -118 74 -244q0 -125 -74 -243l109 -107l-154 -154l-109 109q-115 -72 -241 -72q-133 0 -248 72l-109 -109zM432 692 q0 -99 67.5 -168t166.5 -69t167 69t68 168t-68 169.5t-167 70.5q-98 0 -166 -70.5t-68 -169.5z" />
<glyph unicode="&#xa5;" d="M72 1434h409l437 -535l440 535h391l-477 -576h227v-237h-414v-121h414v-238h-414v-262h-340v262h-419v238h419v121h-419v237h223z" />
<glyph unicode="&#xa6;" horiz-adv-x="681" d="M207 -358v716h268v-716h-268zM207 666v716h268v-716h-268z" />
<glyph unicode="&#xa7;" horiz-adv-x="1435" d="M123 690v152q0 61 38 127t103 106v164q0 80 58 137.5t143 57.5h530q86 0 147.5 -57.5t61.5 -137.5v-133l-274 -74v164h-387v-90l653 -299q125 -56 125 -238v-145q0 -60 -38 -123t-101 -102v-197q0 -80 -58 -137.5t-143 -57.5h-580q-86 0 -147 57.5t-61 137.5v143l274 74 v-174h436v111l-643 295q-137 62 -137 239zM391 700l643 -294q7 0 13 8t6 22v127l-643 295q-7 0 -13 -8.5t-6 -22.5v-127z" />
<glyph unicode="&#xa8;" horiz-adv-x="681" d="M-39 1305v120q0 35 24.5 59.5t59.5 24.5h121q35 0 59.5 -24.5t24.5 -59.5v-120q0 -35 -24.5 -59.5t-59.5 -24.5h-121q-35 0 -59.5 24.5t-24.5 59.5zM432 1305v120q0 35 24.5 59.5t59.5 24.5h121q35 0 59.5 -24.5t24.5 -59.5v-120q0 -35 -24.5 -59.5t-59.5 -24.5h-121 q-35 0 -59.5 24.5t-24.5 59.5z" />
<glyph unicode="&#xa9;" horiz-adv-x="1792" d="M164 588v258q0 79 18.5 153.5t59 143t99 119.5t144 81.5t187.5 30.5h448q102 0 187.5 -30.5t144 -81.5t99 -119.5t59 -143t18.5 -153.5v-258q0 -79 -18.5 -153.5t-59 -143t-99 -120t-144 -82t-187.5 -30.5h-448q-102 0 -187.5 30.5t-144 82t-99 120t-59 143t-18.5 153.5z M332 588q0 -75 21 -141t62 -118.5t107 -83t150 -30.5h448q84 0 150 30.5t107 83t62 118.5t21 141v258q0 75 -21 141t-62 118.5t-107 83t-150 30.5h-448q-84 0 -150 -30.5t-107 -83t-62 -118.5t-21 -141v-258zM506 539v356q0 68 62 127t132 59h400q70 0 129 -56.5t59 -123.5 v-82l-233 -37v97h-305v-324h305v107l233 -33v-97q0 -68 -59 -124t-129 -56h-400q-70 0 -132 59.5t-62 127.5z" />
<glyph unicode="&#xaa;" horiz-adv-x="1093" d="M125 887v102q0 64 57.5 121t124.5 57h365v90h-312v-49l-225 33v39q0 64 56 109t126 45h394q70 0 127 -52t57 -118v-547h-223v102q-82 -102 -244 -102h-121q-69 0 -125.5 52t-56.5 118zM150 420v166h788v-166h-788zM350 909q0 -12 12 -12h173q79 0 137 35v61h-310 q-12 0 -12 -12v-72z" />
<glyph unicode="&#xab;" horiz-adv-x="1386" d="M78 440v205l469 338l131 -127l-318 -313l318 -314l-131 -129zM713 440v205l469 338l131 -127l-318 -313l318 -314l-131 -129z" />
<glyph unicode="&#xac;" horiz-adv-x="1331" d="M76 780v252h1106v-698h-262v446h-844z" />
<glyph unicode="&#xad;" horiz-adv-x="761" d="M37 412v256h688v-256h-688z" />
<glyph unicode="&#xae;" horiz-adv-x="1157" d="M90 932v145q0 65 21.5 127t62 114t108 84t150.5 32h293q83 0 150.5 -32t108 -84t62 -114t21.5 -127v-145q0 -65 -21.5 -126.5t-62.5 -113t-108 -83t-150 -31.5h-293q-83 0 -150 31.5t-108 83t-62.5 113t-21.5 126.5zM219 932q0 -97 57 -165.5t156 -68.5h293 q99 0 156 68.5t57 165.5v145q0 98 -56.5 167t-156.5 69h-293q-100 0 -156.5 -69t-56.5 -167v-145zM346 791v430h365q47 0 80.5 -29.5t33.5 -69.5v-92q0 -33 -24 -65.5t-56 -32.5h-12l164 -141h-192l-152 137h-53v-137h-154zM500 1032h137q33 0 33 29v20q0 27 -33 27h-137 v-76z" />
<glyph unicode="&#xaf;" horiz-adv-x="681" d="M-4 1251v191h690v-191h-690z" />
<glyph unicode="&#xb0;" horiz-adv-x="819" d="M96 1149q0 126 93 215.5t221 89.5t220.5 -89.5t92.5 -215.5t-92.5 -215.5t-220.5 -89.5t-221 89.5t-93 215.5zM281 1149q0 -54 37.5 -91.5t91.5 -37.5t91.5 37.5t37.5 91.5t-37.5 91.5t-91.5 37.5t-91.5 -37.5t-37.5 -91.5z" />
<glyph unicode="&#xb1;" horiz-adv-x="1124" d="M2 0v252h1120v-252h-1120zM2 705v251h430v365h260v-365h430v-251h-430v-365h-260v365h-430z" />
<glyph unicode="&#xb2;" horiz-adv-x="1007" d="M135 717v110q0 72 74 121l420 279v18h-273v-112l-211 34v95q0 65 59 118.5t136 53.5h340q71 0 127.5 -49.5t56.5 -112.5v-33q0 -83 -86 -139l-291 -193h207v88l207 -34v-113q0 -57 -49.5 -94t-114.5 -37h-602z" />
<glyph unicode="&#xb3;" horiz-adv-x="1007" d="M125 891v76l211 32v-92h293q9 0 16.5 6.5t7.5 16.5v43q0 7 -8 13.5t-16 6.5h-193v174h168q9 0 17 5t8 12v41q0 20 -25 20h-258v-92l-211 35v74q0 65 60 118.5t137 53.5h342q71 0 128.5 -52t57.5 -118v-39q0 -80 -74 -133q45 -25 73 -66.5t28 -87.5v-51q0 -66 -61 -118 t-132 -52h-372q-77 0 -137 54.5t-60 119.5z" />
<glyph unicode="&#xb4;" horiz-adv-x="681" d="M86 1288l457 316l125 -218l-525 -198z" />
<glyph unicode="&#xb5;" horiz-adv-x="1423" d="M156 -309v1331h313v-715q0 -23 13 -34t30 -11h217q57 0 114.5 13.5t92.5 35.5v711h313v-760h121l-59 -262h-195q-88 0 -128.5 36t-51.5 107q-53 -59 -136 -101t-190 -42h-28q-81 0 -113 45v-354h-313z" />
<glyph unicode="&#xb6;" horiz-adv-x="1386" d="M131 770v481q0 71 56 127t130 56h947v-183h-107v-1220q0 -98 -56 -161t-147 -63h-479l-59 183h305v600h-404q-75 0 -130.5 54t-55.5 126zM883 -10h112v1261h-112v-1261z" />
<glyph unicode="&#xb7;" horiz-adv-x="1024" d="M317 494v211q0 37 26 62.5t63 25.5h210q37 0 63 -25.5t26 -62.5v-211q0 -37 -26 -62.5t-63 -25.5h-210q-37 0 -63 25.5t-26 62.5z" />
<glyph unicode="&#xb8;" horiz-adv-x="681" d="M84 -258l190 47v-55h146v90h-205v213h176v-62h109q47 0 81.5 -34.5t34.5 -81.5v-166q0 -47 -35 -81t-81 -34h-299q-47 0 -82 35.5t-35 81.5v47z" />
<glyph unicode="&#xb9;" horiz-adv-x="1007" d="M223 1235v121l408 98v-737h-232v530z" />
<glyph unicode="&#xba;" horiz-adv-x="1093" d="M147 895v360q0 63 62 121t127 58h422q65 0 126.5 -58t61.5 -121v-360q0 -63 -61.5 -120.5t-126.5 -57.5h-422q-65 0 -127 57.5t-62 120.5zM172 420v166h750v-166h-750zM387 915h320v320h-320v-320z" />
<glyph unicode="&#xbb;" horiz-adv-x="1386" d="M74 229l317 314l-317 313l131 127l469 -338v-205l-469 -340zM709 229l317 314l-317 313l131 127l469 -338v-205l-469 -340z" />
<glyph unicode="&#xbc;" horiz-adv-x="1882" d="M193 1235v121l407 98v-737h-231v530zM248 0l1050 1434h213l-1050 -1434h-213zM848 147v146l489 424h191v-387h151v-183h-151v-147h-228v147h-452zM1124 330h176v153z" />
<glyph unicode="&#xbd;" horiz-adv-x="1882" d="M127 1235v121l408 98v-737h-232v530zM182 0l1051 1434h213l-1051 -1434h-213zM975 0v111q0 71 74 120l419 279v18h-272v-112l-211 35v94q0 65 59 118.5t136 53.5h340q71 0 127.5 -49.5t56.5 -112.5v-33q0 -83 -86 -139l-291 -193h207v89l207 -35v-113q0 -57 -49.5 -94 t-114.5 -37h-602z" />
<glyph unicode="&#xbe;" horiz-adv-x="1882" d="M78 891v76l211 32v-92h293q9 0 16.5 6.5t7.5 16.5v43q0 7 -8 13.5t-16 6.5h-193v174h168q9 0 17 5t8 12v41q0 20 -25 20h-258v-92l-211 35v74q0 65 60 118.5t137 53.5h342q71 0 128.5 -52t57.5 -118v-39q0 -80 -74 -133q45 -25 73 -66.5t28 -87.5v-51q0 -66 -61 -118 t-132 -52h-373q-77 0 -136.5 54t-59.5 120zM377 0l1050 1434h213l-1050 -1434h-213zM977 147v146l489 424h191v-387h151v-183h-151v-147h-227v147h-453zM1253 330h177v153z" />
<glyph unicode="&#xbf;" horiz-adv-x="1161" d="M86 -92v287q0 97 89 181.5t194 84.5h112v133h305v-168q0 -108 -67.5 -172t-175.5 -64h-150v-278h459v156l307 -50v-110q0 -94 -91 -180t-189 -86h-510q-99 0 -191 86.5t-92 179.5zM438 807v180q0 37 25.5 62.5t62.5 25.5h211q37 0 62.5 -25.5t25.5 -62.5v-180 q0 -37 -25.5 -62.5t-62.5 -25.5h-211q-37 0 -62.5 25.5t-25.5 62.5z" />
<glyph unicode="&#xc0;" horiz-adv-x="1732" d="M-20 0l741 1434h295l729 -1434h-375l-125 252h-786l-125 -252h-354zM537 1729l125 217l456 -316l-57 -100zM600 539h504l-252 508z" />
<glyph unicode="&#xc1;" horiz-adv-x="1732" d="M-20 0l741 1434h295l729 -1434h-375l-125 252h-786l-125 -252h-354zM600 539h504l-252 508zM618 1630l457 316l125 -217l-524 -199z" />
<glyph unicode="&#xc2;" horiz-adv-x="1732" d="M-20 0l741 1434h295l729 -1434h-375l-125 252h-786l-125 -252h-354zM459 1620l315 272h189l311 -272l-62 -84l-344 160l-344 -160zM600 539h504l-252 508z" />
<glyph unicode="&#xc3;" horiz-adv-x="1732" d="M-20 0l741 1434h295l729 -1434h-375l-125 252h-786l-125 -252h-354zM485 1569v170q0 59 44 104t106 45h76q41 0 86 -26l182 -111h27q10 0 17 9.5t7 23.5v94h180v-170q0 -60 -43.5 -104.5t-105.5 -44.5h-76q-41 0 -86 26l-182 111h-27q-10 0 -17 -9.5t-7 -23.5v-94h-181z M600 539h504l-252 508z" />
<glyph unicode="&#xc4;" horiz-adv-x="1732" d="M-20 0l741 1434h295l729 -1434h-375l-125 252h-786l-125 -252h-354zM487 1653v121q0 35 24.5 59.5t59.5 24.5h121q35 0 59.5 -24.5t24.5 -59.5v-121q0 -35 -24.5 -59.5t-59.5 -24.5h-121q-35 0 -59.5 24.5t-24.5 59.5zM600 539h504l-252 508zM958 1653v121 q0 35 24.5 59.5t59.5 24.5h121q35 0 59.5 -24.5t24.5 -59.5v-121q0 -35 -24.5 -59.5t-59.5 -24.5h-121q-35 0 -59.5 24.5t-24.5 59.5z" />
<glyph unicode="&#xc5;" horiz-adv-x="1732" d="M-20 0l708 1370q-57 47 -57 117v131q0 71 54 115.5t122 44.5h117q67 0 121.5 -44.5t54.5 -115.5v-131q0 -69 -53 -115l698 -1372h-375l-125 252h-786l-125 -252h-354zM600 539h504l-252 508zM786 1475h158v155h-158v-155z" />
<glyph unicode="&#xc6;" horiz-adv-x="2643" d="M-35 0l1053 1434h1501v-295h-969v-267h594v-294h-594v-283h983v-295h-1319v252h-671l-178 -252h-400zM745 539h469v600h-43z" />
<glyph unicode="&#xc7;" horiz-adv-x="1792" d="M170 334v766q0 75 51.5 153.5t130 129.5t152.5 51h799q74 0 152.5 -51t129.5 -129.5t51 -153.5v-189l-336 -55v274h-778v-827h778v299l336 -51v-217q0 -75 -51 -153.5t-129.5 -129.5t-152.5 -51h-357v-27h113q46 0 79 -34t33 -80v-166q0 -45 -33.5 -78t-78.5 -33h-299 q-46 0 -80.5 34.5t-34.5 78.5v45l184 45v-53h152v96h-205v172h-272q-74 0 -152.5 51t-130 129.5t-51.5 153.5z" />
<glyph unicode="&#xc8;" horiz-adv-x="1632" d="M195 0v1434h1312v-295h-968v-267h594v-294h-594v-283h983v-295h-1327zM555 1729l125 217l457 -316l-58 -100z" />
<glyph unicode="&#xc9;" horiz-adv-x="1632" d="M195 0v1434h1312v-295h-968v-267h594v-294h-594v-283h983v-295h-1327zM590 1630l457 316l124 -217l-524 -199z" />
<glyph unicode="&#xca;" horiz-adv-x="1632" d="M195 0v1434h1312v-295h-968v-267h594v-294h-594v-283h983v-295h-1327zM449 1620l315 272h188l312 -272l-62 -84l-344 160l-344 -160z" />
<glyph unicode="&#xcb;" horiz-adv-x="1632" d="M195 0v1434h1312v-295h-968v-267h594v-294h-594v-283h983v-295h-1327zM477 1653v121q0 35 24.5 59.5t59.5 24.5h121q35 0 59.5 -24.5t24.5 -59.5v-121q0 -35 -24.5 -59.5t-59.5 -24.5h-121q-35 0 -59.5 24.5t-24.5 59.5zM948 1653v121q0 35 24.5 59.5t59.5 24.5h121 q35 0 59.5 -24.5t24.5 -59.5v-121q0 -35 -24.5 -59.5t-59.5 -24.5h-121q-35 0 -59.5 24.5t-24.5 59.5z" />
<glyph unicode="&#xcc;" horiz-adv-x="733" d="M49 1729l125 217l457 -316l-58 -100zM195 0v1434h344v-1434h-344z" />
<glyph unicode="&#xcd;" horiz-adv-x="733" d="M102 1630l457 316l125 -217l-524 -199zM195 0v1434h344v-1434h-344z" />
<glyph unicode="&#xce;" horiz-adv-x="733" d="M-43 1620l315 272h189l311 -272l-61 -84l-344 160l-344 -160zM195 0v1434h344v-1434h-344z" />
<glyph unicode="&#xcf;" horiz-adv-x="733" d="M-12 1653v121q0 35 24.5 59.5t59.5 24.5h121q35 0 59 -24.5t24 -59.5v-121q0 -35 -24 -59.5t-59 -24.5h-121q-35 0 -59.5 24.5t-24.5 59.5zM195 0v1434h344v-1434h-344zM459 1653v121q0 35 24.5 59.5t59.5 24.5h121q35 0 59.5 -24.5t24.5 -59.5v-121q0 -35 -24.5 -59.5 t-59.5 -24.5h-121q-35 0 -59.5 24.5t-24.5 59.5z" />
<glyph unicode="&#xd0;" horiz-adv-x="1869" d="M41 596v254h154v584h772q149 0 270 -26.5t202 -68.5t141.5 -103t93.5 -120.5t53 -132t26 -127t6 -113.5v-53q0 -60 -6 -114.5t-26 -126.5t-53 -132t-93.5 -120.5t-141.5 -102.5t-202 -68t-270 -26h-772v596h-154zM539 295h422q84 0 151 13.5t113 35t80 55t53 68 t30.5 79.5t15 83.5t3.5 85.5v4q0 47 -3.5 85.5t-15 83.5t-30.5 79.5t-53 68t-80 55t-113 35t-151 13.5h-422v-289h428v-254h-428v-301z" />
<glyph unicode="&#xd1;" horiz-adv-x="1894" d="M195 0v1434h245l944 -908v908h316v-1434h-246l-944 907v-907h-315zM584 1569v170q0 60 43.5 104.5t105.5 44.5h76q41 0 86 -26l182 -111h27q10 0 17 9.5t7 23.5v94h181v-170q0 -59 -44 -104t-106 -45h-76q-41 0 -86 26l-182 111h-27q-10 0 -17 -9.5t-7 -23.5v-94h-180z " />
<glyph unicode="&#xd2;" horiz-adv-x="1898" d="M170 334v766q0 75 51.5 153.5t130 129.5t152.5 51h891q74 0 152.5 -51t130 -129.5t51.5 -153.5v-766q0 -75 -51.5 -153.5t-130 -129.5t-152.5 -51h-891q-74 0 -152.5 51t-130 129.5t-51.5 153.5zM522 303h854v827h-854v-827zM657 1729l125 217l457 -316l-57 -100z" />
<glyph unicode="&#xd3;" horiz-adv-x="1898" d="M170 334v766q0 75 51.5 153.5t130 129.5t152.5 51h891q74 0 152.5 -51t130 -129.5t51.5 -153.5v-766q0 -75 -51.5 -153.5t-130 -129.5t-152.5 -51h-891q-74 0 -152.5 51t-130 129.5t-51.5 153.5zM522 303h854v827h-854v-827zM659 1630l457 316l125 -217l-524 -199z" />
<glyph unicode="&#xd4;" horiz-adv-x="1898" d="M170 334v766q0 75 51.5 153.5t130 129.5t152.5 51h891q74 0 152.5 -51t130 -129.5t51.5 -153.5v-766q0 -75 -51.5 -153.5t-130 -129.5t-152.5 -51h-891q-74 0 -152.5 51t-130 129.5t-51.5 153.5zM522 303h854v827h-854v-827zM539 1620l315 272h188l312 -272l-62 -84 l-344 160l-344 -160z" />
<glyph unicode="&#xd5;" horiz-adv-x="1898" d="M170 334v766q0 75 51.5 153.5t130 129.5t152.5 51h891q74 0 152.5 -51t130 -129.5t51.5 -153.5v-766q0 -75 -51.5 -153.5t-130 -129.5t-152.5 -51h-891q-74 0 -152.5 51t-130 129.5t-51.5 153.5zM522 303h854v827h-854v-827zM586 1569v170q0 60 43.5 104.5t105.5 44.5h76 q41 0 86 -26l182 -111h27q10 0 17 9.5t7 23.5v94h181v-170q0 -59 -44 -104t-106 -45h-76q-41 0 -86 26l-182 111h-26q-10 0 -17.5 -9.5t-7.5 -23.5v-94h-180z" />
<glyph unicode="&#xd6;" horiz-adv-x="1898" d="M170 334v766q0 75 51.5 153.5t130 129.5t152.5 51h891q74 0 152.5 -51t130 -129.5t51.5 -153.5v-766q0 -75 -51.5 -153.5t-130 -129.5t-152.5 -51h-891q-74 0 -152.5 51t-130 129.5t-51.5 153.5zM522 303h854v827h-854v-827zM569 1653v121q0 35 24.5 59.5t59.5 24.5h121 q35 0 59.5 -24.5t24.5 -59.5v-121q0 -35 -24.5 -59.5t-59.5 -24.5h-121q-35 0 -59.5 24.5t-24.5 59.5zM1040 1653v121q0 35 24.5 59.5t59.5 24.5h121q35 0 59.5 -24.5t24.5 -59.5v-121q0 -35 -24.5 -59.5t-59.5 -24.5h-121q-35 0 -59.5 24.5t-24.5 59.5z" />
<glyph unicode="&#xd7;" horiz-adv-x="1331" d="M186 418l303 305l-301 293l177 176l301 -293l297 295l180 -176l-301 -297l303 -303l-176 -176l-303 303l-304 -303z" />
<glyph unicode="&#xd8;" horiz-adv-x="1898" d="M170 334v766q0 75 51.5 153.5t130 129.5t152.5 51h860l158 215l143 -99l-121 -166q78 -52 131.5 -130.5t53.5 -153.5v-766q0 -75 -51.5 -153.5t-130 -129.5t-152.5 -51h-863l-155 -215l-144 98l121 166q-78 48 -131 128.5t-53 156.5zM522 303h17l604 827h-621v-827z M754 303h622v827h-18z" />
<glyph unicode="&#xd9;" horiz-adv-x="1820" d="M182 334v1100h353v-1131h751v1131h352v-1100q0 -75 -51 -153.5t-129.5 -129.5t-152.5 -51h-789q-74 0 -152.5 51t-130 129.5t-51.5 153.5zM561 1526l125 217l457 -316l-58 -100z" />
<glyph unicode="&#xda;" horiz-adv-x="1820" d="M182 334v1100h353v-1131h751v1131h352v-1100q0 -75 -51 -153.5t-129.5 -129.5t-152.5 -51h-789q-74 0 -152.5 51t-130 129.5t-51.5 153.5zM678 1630l457 316l125 -217l-525 -199z" />
<glyph unicode="&#xdb;" horiz-adv-x="1820" d="M182 334v1100h353v-1131h751v1131h352v-1100q0 -75 -51 -153.5t-129.5 -129.5t-152.5 -51h-789q-74 0 -152.5 51t-130 129.5t-51.5 153.5zM502 1620l315 272h189l311 -272l-62 -84l-344 160l-344 -160z" />
<glyph unicode="&#xdc;" horiz-adv-x="1820" d="M182 334v1100h353v-1131h751v1131h352v-1100q0 -75 -51 -153.5t-129.5 -129.5t-152.5 -51h-789q-74 0 -152.5 51t-130 129.5t-51.5 153.5zM530 1653v121q0 35 24.5 59.5t59.5 24.5h121q35 0 59.5 -24.5t24.5 -59.5v-121q0 -35 -24.5 -59.5t-59.5 -24.5h-121 q-35 0 -59.5 24.5t-24.5 59.5zM1001 1653v121q0 35 24.5 59.5t59.5 24.5h121q35 0 59.5 -24.5t24.5 -59.5v-121q0 -35 -24.5 -59.5t-59.5 -24.5h-121q-35 0 -59.5 24.5t-24.5 59.5z" />
<glyph unicode="&#xdd;" horiz-adv-x="1619" d="M-33 1434h410l436 -535l440 535h392l-664 -791v-643h-340v629zM563 1630l457 316l125 -217l-524 -199z" />
<glyph unicode="&#xde;" horiz-adv-x="1714" d="M195 0v1434h325v-236h772q116 0 209.5 -94t93.5 -209v-311q0 -116 -93.5 -209.5t-209.5 -93.5h-772v-281h-325zM520 559h664q42 0 66 25.5t24 68.5v162q0 44 -24.5 74.5t-65.5 30.5h-664v-361z" />
<glyph unicode="&#xdf;" horiz-adv-x="1566" d="M41 760v262h207v160q0 89 86 170.5t180 81.5h616q94 0 172 -77.5t78 -172.5v-41q0 -96 -51.5 -162.5t-138.5 -83.5q106 -17 169.5 -92t63.5 -178v-377q0 -94 -81.5 -172t-176.5 -78h-415l-74 262h362q34 0 54 24.5t20 61.5v334q0 37 -19.5 57.5t-54.5 20.5h-313v262h315 q34 0 54 23.5t20 54.5v16q0 31 -20 53.5t-54 22.5h-481v-1192h-311v760h-207z" />
<glyph unicode="&#xe0;" horiz-adv-x="1421" d="M106 254v133q0 89 78 161.5t172 72.5h607v155h-539v-76l-301 48v38q0 89 79.5 162.5t182.5 73.5h614q93 0 180 -82.5t87 -171.5v-768h-303v143q-63 -72 -150.5 -107.5t-216.5 -35.5h-223q-94 0 -180.5 82.5t-86.5 171.5zM410 270q0 -16 16 -16h330q57 0 114.5 13.5 t92.5 35.5v111h-537q-16 0 -16 -17v-127zM420 1386l125 218l456 -316l-57 -100z" />
<glyph unicode="&#xe1;" horiz-adv-x="1421" d="M106 254v133q0 89 78 161.5t172 72.5h607v155h-539v-76l-301 48v38q0 89 79.5 162.5t182.5 73.5h614q93 0 180 -82.5t87 -171.5v-768h-303v143q-63 -72 -150.5 -107.5t-216.5 -35.5h-223q-94 0 -180.5 82.5t-86.5 171.5zM410 270q0 -16 16 -16h330q57 0 114.5 13.5 t92.5 35.5v111h-537q-16 0 -16 -17v-127zM420 1288l457 316l124 -218l-524 -198z" />
<glyph unicode="&#xe2;" horiz-adv-x="1421" d="M106 254v133q0 89 78 161.5t172 72.5h607v155h-539v-76l-301 48v38q0 89 79.5 162.5t182.5 73.5h614q93 0 180 -82.5t87 -171.5v-768h-303v143q-63 -72 -150.5 -107.5t-216.5 -35.5h-223q-94 0 -180.5 82.5t-86.5 171.5zM303 1272l315 272h189l311 -272l-61 -84l-344 160 l-344 -160zM410 270q0 -16 16 -16h330q57 0 114.5 13.5t92.5 35.5v111h-537q-16 0 -16 -17v-127z" />
<glyph unicode="&#xe3;" horiz-adv-x="1421" d="M106 254v133q0 89 78 161.5t172 72.5h607v155h-539v-76l-301 48v38q0 89 79.5 162.5t182.5 73.5h614q93 0 180 -82.5t87 -171.5v-768h-303v143q-63 -72 -150.5 -107.5t-216.5 -35.5h-223q-94 0 -180.5 82.5t-86.5 171.5zM348 1221v170q0 59 44 104t106 45h75q39 0 86 -27 l183 -110h26q10 0 17.5 9.5t7.5 23.5v94h180v-170q0 -60 -43.5 -105t-105.5 -45h-76q-40 0 -86 27l-182 111h-27q-10 0 -17.5 -9.5t-7.5 -23.5v-94h-180zM410 270q0 -16 16 -16h330q57 0 114.5 13.5t92.5 35.5v111h-537q-16 0 -16 -17v-127z" />
<glyph unicode="&#xe4;" horiz-adv-x="1421" d="M106 254v133q0 89 78 161.5t172 72.5h607v155h-539v-76l-301 48v38q0 89 79.5 162.5t182.5 73.5h614q93 0 180 -82.5t87 -171.5v-768h-303v143q-63 -72 -150.5 -107.5t-216.5 -35.5h-223q-94 0 -180.5 82.5t-86.5 171.5zM330 1305v120q0 35 24.5 59.5t59.5 24.5h121 q35 0 59 -24.5t24 -59.5v-120q0 -35 -24 -59.5t-59 -24.5h-121q-35 0 -59.5 24.5t-24.5 59.5zM410 270q0 -16 16 -16h330q57 0 114.5 13.5t92.5 35.5v111h-537q-16 0 -16 -17v-127zM801 1305v120q0 35 24.5 59.5t59.5 24.5h121q35 0 59.5 -24.5t24.5 -59.5v-120 q0 -35 -24.5 -59.5t-59.5 -24.5h-121q-35 0 -59.5 24.5t-24.5 59.5z" />
<glyph unicode="&#xe5;" horiz-adv-x="1421" d="M106 254v133q0 89 78 161.5t172 72.5h607v155h-539v-76l-301 48v38q0 89 79.5 162.5t182.5 73.5h614q93 0 180 -82.5t87 -171.5v-768h-303v143q-63 -72 -150.5 -107.5t-216.5 -35.5h-223q-94 0 -180.5 82.5t-86.5 171.5zM410 270q0 -16 16 -16h330q57 0 114.5 13.5 t92.5 35.5v111h-537q-16 0 -16 -17v-127zM475 1358v131q0 71 54 115.5t122 44.5h117q67 0 121.5 -44.5t54.5 -115.5v-131q0 -71 -54 -115.5t-122 -44.5h-117q-67 0 -121.5 44.5t-54.5 115.5zM631 1346h157v155h-157v-155z" />
<glyph unicode="&#xe6;" horiz-adv-x="2256" d="M106 254v133q0 89 78 161.5t172 72.5h607v155h-539v-76l-301 48v38q0 89 79.5 162.5t182.5 73.5h512q54 0 110 -32t97 -83q39 52 97.5 83.5t123.5 31.5h520q106 0 187.5 -77t81.5 -177v-354h-848v-160h553v88l295 -47v-41q0 -101 -81.5 -177.5t-187.5 -76.5h-622 q-69 0 -132 35.5t-100 93.5q-62 -65 -146.5 -97t-207.5 -32h-264q-94 0 -180.5 82.5t-86.5 171.5zM410 270q0 -16 16 -16h330q57 0 114.5 13.5t92.5 35.5v111h-537q-16 0 -16 -17v-127zM1266 621h553v147h-553v-147z" />
<glyph unicode="&#xe7;" horiz-adv-x="1445" d="M143 254v514q0 89 87.5 171.5t181.5 82.5h624q94 0 180.5 -82.5t86.5 -171.5v-113l-299 -47v152h-545v-498h545v166l299 -43v-131q0 -89 -86.5 -171.5t-180.5 -82.5h-272v-25h108q47 0 82 -34.5t35 -81.5v-166q0 -47 -35.5 -81t-81.5 -34h-299q-47 0 -81.5 35.5 t-34.5 81.5v47l190 47v-55h146v90h-205v176h-176q-94 0 -181.5 82.5t-87.5 171.5z" />
<glyph unicode="&#xe8;" horiz-adv-x="1445" d="M143 254v514q0 99 82 176.5t187 77.5h622q106 0 187.5 -77t81.5 -177v-354h-848v-160h553v88l295 -47v-41q0 -101 -81.5 -177.5t-187.5 -76.5h-622q-105 0 -187 76.5t-82 177.5zM432 1386l125 218l457 -316l-58 -100zM455 621h553v147h-553v-147z" />
<glyph unicode="&#xe9;" horiz-adv-x="1445" d="M143 254v514q0 99 82 176.5t187 77.5h622q106 0 187.5 -77t81.5 -177v-354h-848v-160h553v88l295 -47v-41q0 -101 -81.5 -177.5t-187.5 -76.5h-622q-105 0 -187 76.5t-82 177.5zM432 1288l457 316l125 -218l-525 -198zM455 621h553v147h-553v-147z" />
<glyph unicode="&#xea;" horiz-adv-x="1445" d="M143 254v514q0 99 82 176.5t187 77.5h622q106 0 187.5 -77t81.5 -177v-354h-848v-160h553v88l295 -47v-41q0 -101 -81.5 -177.5t-187.5 -76.5h-622q-105 0 -187 76.5t-82 177.5zM315 1272l316 272h188l311 -272l-61 -84l-344 160l-344 -160zM455 621h553v147h-553v-147z " />
<glyph unicode="&#xeb;" horiz-adv-x="1445" d="M143 254v514q0 99 82 176.5t187 77.5h622q106 0 187.5 -77t81.5 -177v-354h-848v-160h553v88l295 -47v-41q0 -101 -81.5 -177.5t-187.5 -76.5h-622q-105 0 -187 76.5t-82 177.5zM342 1305v120q0 35 24.5 59.5t59.5 24.5h121q35 0 59.5 -24.5t24.5 -59.5v-120 q0 -35 -24.5 -59.5t-59.5 -24.5h-121q-35 0 -59.5 24.5t-24.5 59.5zM455 621h553v147h-553v-147zM813 1305v120q0 35 24.5 59.5t59.5 24.5h121q35 0 59.5 -24.5t24.5 -59.5v-120q0 -35 -24.5 -59.5t-59.5 -24.5h-121q-35 0 -59.5 24.5t-24.5 59.5z" />
<glyph unicode="&#xec;" horiz-adv-x="636" d="M27 1386l125 218l456 -316l-57 -100zM164 0v1022h311v-1022h-311z" />
<glyph unicode="&#xed;" horiz-adv-x="636" d="M29 1288l456 316l125 -218l-524 -198zM164 0v1022h311v-1022h-311z" />
<glyph unicode="&#xee;" horiz-adv-x="636" d="M-88 1272l315 272h189l311 -272l-61 -84l-344 160l-345 -160zM164 0v1022h311v-1022h-311z" />
<glyph unicode="&#xef;" horiz-adv-x="636" d="M-61 1305v120q0 35 24.5 59.5t59.5 24.5h120q35 0 59.5 -24.5t24.5 -59.5v-120q0 -35 -24.5 -59.5t-59.5 -24.5h-120q-35 0 -59.5 24.5t-24.5 59.5zM164 0v1022h311v-1022h-311zM410 1305v120q0 35 24.5 59.5t59.5 24.5h120q35 0 59.5 -24.5t24.5 -59.5v-120 q0 -35 -24.5 -59.5t-59.5 -24.5h-120q-35 0 -59.5 24.5t-24.5 59.5z" />
<glyph unicode="&#xf0;" horiz-adv-x="1445" d="M143 254v514q0 89 87.5 171.5t181.5 82.5h211q129 0 216.5 -35.5t149.5 -107.5q-17 145 -158 299l-272 -93v111l191 66q-75 64 -170 120l315 93q87 -60 145 -115l263 90v-111l-183 -63q183 -222 183 -508v-514q0 -89 -86.5 -171.5t-180.5 -82.5h-624q-94 0 -181.5 82.5 t-87.5 171.5zM459 262h528v449q-90 49 -227 49h-301v-498z" />
<glyph unicode="&#xf1;" horiz-adv-x="1404" d="M156 0v1022h313v-143q64 72 151 107.5t216 35.5h122q117 0 204 -78.5t87 -185.5v-758h-313v760h-260q-57 0 -114.5 -13.5t-92.5 -35.5v-711h-313zM340 1221v170q0 60 43.5 104.5t105.5 44.5h76q39 0 86 -27l183 -110h26q10 0 17.5 9.5t7.5 23.5v94h180v-170 q0 -60 -44 -105t-106 -45h-75q-40 0 -86 27l-183 111h-26q-10 0 -17.5 -9.5t-7.5 -23.5v-94h-180z" />
<glyph unicode="&#xf2;" horiz-adv-x="1445" d="M143 254v514q0 89 87.5 171.5t181.5 82.5h624q94 0 180.5 -82.5t86.5 -171.5v-514q0 -89 -86.5 -171.5t-180.5 -82.5h-624q-94 0 -181.5 82.5t-87.5 171.5zM432 1386l125 218l457 -316l-58 -100zM459 262h528v498h-528v-498z" />
<glyph unicode="&#xf3;" horiz-adv-x="1445" d="M143 254v514q0 89 87.5 171.5t181.5 82.5h624q94 0 180.5 -82.5t86.5 -171.5v-514q0 -89 -86.5 -171.5t-180.5 -82.5h-624q-94 0 -181.5 82.5t-87.5 171.5zM432 1288l457 316l125 -218l-525 -198zM459 262h528v498h-528v-498z" />
<glyph unicode="&#xf4;" horiz-adv-x="1445" d="M143 254v514q0 89 87.5 171.5t181.5 82.5h624q94 0 180.5 -82.5t86.5 -171.5v-514q0 -89 -86.5 -171.5t-180.5 -82.5h-624q-94 0 -181.5 82.5t-87.5 171.5zM315 1272l316 272h188l311 -272l-61 -84l-344 160l-344 -160zM459 262h528v498h-528v-498z" />
<glyph unicode="&#xf5;" horiz-adv-x="1445" d="M143 254v514q0 89 87.5 171.5t181.5 82.5h624q94 0 180.5 -82.5t86.5 -171.5v-514q0 -89 -86.5 -171.5t-180.5 -82.5h-624q-94 0 -181.5 82.5t-87.5 171.5zM360 1221v170q0 59 44 104t106 45h76q40 0 86 -27l182 -110h27q10 0 17 9.5t7 23.5v94h180v-170 q0 -60 -43.5 -105t-105.5 -45h-76q-40 0 -86 27l-182 111h-27q-10 0 -17 -9.5t-7 -23.5v-94h-181zM459 262h528v498h-528v-498z" />
<glyph unicode="&#xf6;" horiz-adv-x="1445" d="M143 254v514q0 89 87.5 171.5t181.5 82.5h624q94 0 180.5 -82.5t86.5 -171.5v-514q0 -89 -86.5 -171.5t-180.5 -82.5h-624q-94 0 -181.5 82.5t-87.5 171.5zM342 1305v120q0 35 24.5 59.5t59.5 24.5h121q35 0 59.5 -24.5t24.5 -59.5v-120q0 -35 -24.5 -59.5t-59.5 -24.5 h-121q-35 0 -59.5 24.5t-24.5 59.5zM459 262h528v498h-528v-498zM813 1305v120q0 35 24.5 59.5t59.5 24.5h121q35 0 59.5 -24.5t24.5 -59.5v-120q0 -35 -24.5 -59.5t-59.5 -24.5h-121q-35 0 -59.5 24.5t-24.5 59.5z" />
<glyph unicode="&#xf7;" horiz-adv-x="1124" d="M2 592v252h1120v-252h-1120zM418 252v117q0 35 25.5 60.5t60.5 25.5h117q35 0 60.5 -25.5t25.5 -60.5v-117q0 -35 -25.5 -60.5t-60.5 -25.5h-117q-35 0 -60.5 25.5t-25.5 60.5zM418 1067v117q0 35 25.5 60.5t60.5 25.5h117q35 0 60.5 -25.5t25.5 -60.5v-117 q0 -35 -25.5 -60.5t-60.5 -25.5h-117q-35 0 -60.5 25.5t-25.5 60.5z" />
<glyph unicode="&#xf8;" horiz-adv-x="1445" d="M143 254v514q0 89 87.5 171.5t181.5 82.5h528l137 217l146 -94l-93 -146q71 -35 122 -101t51 -130v-514q0 -89 -86.5 -171.5t-180.5 -82.5h-532l-135 -215l-146 94l90 146q-69 33 -119.5 99t-50.5 130zM459 262h4l313 498h-317v-498zM668 262h319v498h-6z" />
<glyph unicode="&#xf9;" horiz-adv-x="1404" d="M156 264v758h313v-760h260q57 0 114.5 13.5t92.5 35.5v711h313v-1022h-313v143q-63 -72 -150.5 -107.5t-216.5 -35.5h-123q-117 0 -203.5 78.5t-86.5 185.5zM412 1386l125 218l456 -316l-57 -100z" />
<glyph unicode="&#xfa;" horiz-adv-x="1404" d="M156 264v758h313v-760h260q57 0 114.5 13.5t92.5 35.5v711h313v-1022h-313v143q-63 -72 -150.5 -107.5t-216.5 -35.5h-123q-117 0 -203.5 78.5t-86.5 185.5zM412 1288l456 316l125 -218l-524 -198z" />
<glyph unicode="&#xfb;" horiz-adv-x="1404" d="M156 264v758h313v-760h260q57 0 114.5 13.5t92.5 35.5v711h313v-1022h-313v143q-63 -72 -150.5 -107.5t-216.5 -35.5h-123q-117 0 -203.5 78.5t-86.5 185.5zM295 1272l315 272h189l311 -272l-61 -84l-344 160l-345 -160z" />
<glyph unicode="&#xfc;" horiz-adv-x="1404" d="M156 264v758h313v-760h260q57 0 114.5 13.5t92.5 35.5v711h313v-1022h-313v143q-63 -72 -150.5 -107.5t-216.5 -35.5h-123q-117 0 -203.5 78.5t-86.5 185.5zM322 1305v120q0 35 24.5 59.5t59.5 24.5h120q35 0 59.5 -24.5t24.5 -59.5v-120q0 -35 -24.5 -59.5t-59.5 -24.5 h-120q-35 0 -59.5 24.5t-24.5 59.5zM793 1305v120q0 35 24.5 59.5t59.5 24.5h120q35 0 59.5 -24.5t24.5 -59.5v-120q0 -35 -24.5 -59.5t-59.5 -24.5h-120q-35 0 -59.5 24.5t-24.5 59.5z" />
<glyph unicode="&#xfd;" horiz-adv-x="1310" d="M4 1022h332l336 -625l317 625h318l-576 -1096q-61 -115 -151.5 -175t-233.5 -60h-182l-49 262h317l78 143zM365 1288l456 316l125 -218l-524 -198z" />
<glyph unicode="&#xfe;" horiz-adv-x="1458" d="M156 -309v1743h313v-555q64 72 151 107.5t216 35.5h188q117 0 204 -78.5t87 -185.5v-494q0 -107 -87 -185.5t-204 -78.5h-188q-129 0 -217 35.5t-150 107.5v-452h-313zM469 311q35 -22 92.5 -35.5t114.5 -13.5h325v498h-325q-57 0 -114.5 -13.5t-92.5 -35.5v-400z" />
<glyph unicode="&#xff;" horiz-adv-x="1310" d="M4 1022h332l336 -625l317 625h318l-576 -1096q-61 -115 -151.5 -175t-233.5 -60h-182l-49 262h317l78 143zM274 1305v120q0 35 24.5 59.5t59.5 24.5h121q35 0 59.5 -24.5t24.5 -59.5v-120q0 -35 -24.5 -59.5t-59.5 -24.5h-121q-35 0 -59.5 24.5t-24.5 59.5zM745 1305v120 q0 35 24.5 59.5t59.5 24.5h121q35 0 59.5 -24.5t24.5 -59.5v-120q0 -35 -24.5 -59.5t-59.5 -24.5h-121q-35 0 -59.5 24.5t-24.5 59.5z" />
<glyph unicode="&#x152;" horiz-adv-x="2791" d="M170 334v766q0 75 51.5 153.5t130 129.5t152.5 51h2162v-295h-968v-267h594v-294h-594v-283h983v-295h-2177q-74 0 -152.5 51t-130 129.5t-51.5 153.5zM522 303h838v827h-838v-827z" />
<glyph unicode="&#x153;" horiz-adv-x="2293" d="M143 254v514q0 89 87.5 171.5t181.5 82.5h520q55 0 112.5 -33t98.5 -84q38 52 97.5 84.5t123.5 32.5h518q106 0 187 -77t81 -177v-354h-847v-160h552v88l295 -47v-41q0 -101 -81 -177.5t-187 -76.5h-518q-65 0 -124.5 32t-96.5 85q-41 -51 -98.5 -84t-112.5 -33h-520 q-94 0 -181.5 82.5t-87.5 171.5zM459 262h528v498h-528v-498zM1303 621h552v147h-552v-147z" />
<glyph unicode="&#x178;" horiz-adv-x="1619" d="M-33 1434h410l436 -535l440 535h392l-664 -791v-643h-340v629zM430 1653v121q0 35 24.5 59.5t59.5 24.5h121q35 0 59.5 -24.5t24.5 -59.5v-121q0 -35 -24.5 -59.5t-59.5 -24.5h-121q-35 0 -59.5 24.5t-24.5 59.5zM901 1653v121q0 35 24.5 59.5t59.5 24.5h121 q35 0 59.5 -24.5t24.5 -59.5v-121q0 -35 -24.5 -59.5t-59.5 -24.5h-121q-35 0 -59.5 24.5t-24.5 59.5z" />
<glyph unicode="&#x2c6;" horiz-adv-x="681" d="M-68 1272l316 272h188l312 -272l-62 -84l-344 160l-344 -160z" />
<glyph unicode="&#x2dc;" horiz-adv-x="681" d="M-20 1221v170q0 60 43.5 104.5t105.5 44.5h76q39 0 86 -27l182 -110h27q10 0 17 9.5t7 23.5v94h181v-170q0 -60 -44 -105t-106 -45h-76q-39 0 -86 27l-182 111h-27q-10 0 -17 -9.5t-7 -23.5v-94h-180z" />
<glyph unicode="&#x2000;" horiz-adv-x="973" />
<glyph unicode="&#x2001;" horiz-adv-x="1946" />
<glyph unicode="&#x2002;" horiz-adv-x="973" />
<glyph unicode="&#x2003;" horiz-adv-x="1946" />
<glyph unicode="&#x2004;" horiz-adv-x="648" />
<glyph unicode="&#x2005;" horiz-adv-x="486" />
<glyph unicode="&#x2006;" horiz-adv-x="324" />
<glyph unicode="&#x2007;" horiz-adv-x="324" />
<glyph unicode="&#x2008;" horiz-adv-x="243" />
<glyph unicode="&#x2009;" horiz-adv-x="389" />
<glyph unicode="&#x200a;" horiz-adv-x="108" />
<glyph unicode="&#x2010;" horiz-adv-x="761" d="M37 412v256h688v-256h-688z" />
<glyph unicode="&#x2011;" horiz-adv-x="761" d="M37 412v256h688v-256h-688z" />
<glyph unicode="&#x2012;" horiz-adv-x="761" d="M37 412v256h688v-256h-688z" />
<glyph unicode="&#x2013;" horiz-adv-x="1024" d="M0 432v217h1024v-217h-1024z" />
<glyph unicode="&#x2014;" horiz-adv-x="2048" d="M0 432v217h2048v-217h-2048z" />
<glyph unicode="&#x2018;" horiz-adv-x="649" d="M127 1094v252q0 37 25.5 62.5t62.5 25.5h211q37 0 62.5 -25.5t25.5 -62.5v-211q0 -37 -25.5 -62.5t-62.5 -25.5h-104l192 -388h-154l-215 371q-18 30 -18 64z" />
<glyph unicode="&#x2019;" horiz-adv-x="649" d="M135 659l193 388h-105q-37 0 -62.5 25.5t-25.5 62.5v211q0 37 25.5 62.5t62.5 25.5h211q37 0 62.5 -25.5t25.5 -62.5v-252q0 -34 -18 -64l-215 -371h-154z" />
<glyph unicode="&#x201a;" horiz-adv-x="649" d="M131 88v211q0 37 25.5 62.5t62.5 25.5h211q37 0 62.5 -25.5t25.5 -62.5v-252q0 -33 -18 -63l-215 -371h-154l193 387h-105q-37 0 -62.5 25.5t-25.5 62.5z" />
<glyph unicode="&#x201c;" horiz-adv-x="1263" d="M127 1094v252q0 37 25.5 62.5t62.5 25.5h211q37 0 62.5 -25.5t25.5 -62.5v-211q0 -37 -25.5 -62.5t-62.5 -25.5h-104l192 -388h-154l-215 371q-18 30 -18 64zM741 1094v252q0 37 25.5 62.5t62.5 25.5h211q37 0 62.5 -25.5t25.5 -62.5v-211q0 -37 -25.5 -62.5t-62.5 -25.5 h-104l192 -388h-153l-215 371q-19 32 -19 64z" />
<glyph unicode="&#x201d;" horiz-adv-x="1263" d="M135 659l193 388h-105q-37 0 -62.5 25.5t-25.5 62.5v211q0 37 25.5 62.5t62.5 25.5h211q37 0 62.5 -25.5t25.5 -62.5v-252q0 -34 -18 -64l-215 -371h-154zM750 659l192 388h-104q-37 0 -62.5 25.5t-25.5 62.5v211q0 37 25.5 62.5t62.5 25.5h211q37 0 62.5 -25.5 t25.5 -62.5v-252q0 -32 -19 -64l-215 -371h-153z" />
<glyph unicode="&#x201e;" horiz-adv-x="1263" d="M131 88v211q0 37 25.5 62.5t62.5 25.5h211q37 0 62.5 -25.5t25.5 -62.5v-252q0 -33 -18 -63l-215 -371h-154l193 387h-105q-37 0 -62.5 25.5t-25.5 62.5zM745 88v211q0 37 26 62.5t63 25.5h210q37 0 63 -25.5t26 -62.5v-252q0 -31 -19 -63l-215 -371h-154l193 387h-104 q-37 0 -63 25.5t-26 62.5z" />
<glyph unicode="&#x2022;" horiz-adv-x="1331" d="M344 707q0 133 94 227t228 94t227.5 -94t93.5 -227q0 -134 -94 -228t-227 -94q-134 0 -228 94.5t-94 227.5z" />
<glyph unicode="&#x2026;" horiz-adv-x="1935" d="M147 80v190q0 34 23 57t57 23h191q34 0 57 -23t23 -57v-190q0 -34 -23 -57t-57 -23h-191q-34 0 -57 23t-23 57zM793 80v190q0 34 22.5 57t56.5 23h191q34 0 57 -23t23 -57v-190q0 -34 -23 -57t-57 -23h-191q-34 0 -56.5 23t-22.5 57zM1438 80v190q0 34 23 57t57 23h190 q34 0 57 -23t23 -57v-190q0 -34 -23 -57t-57 -23h-190q-34 0 -57 23t-23 57z" />
<glyph unicode="&#x202f;" horiz-adv-x="389" />
<glyph unicode="&#x2039;" horiz-adv-x="751" d="M78 440v205l469 338l131 -127l-318 -313l318 -314l-131 -129z" />
<glyph unicode="&#x203a;" horiz-adv-x="751" d="M74 229l317 314l-317 313l131 127l469 -338v-205l-469 -340z" />
<glyph unicode="&#x205f;" horiz-adv-x="486" />
<glyph unicode="&#x20ac;" d="M20 455v209h234v120h-234v209h234v107q0 75 51.5 153.5t130 129.5t152.5 51h798q74 0 152.5 -51t130 -129.5t51.5 -153.5v-37l-336 -51v118h-778v-137h572v-209h-572v-120h572v-209h-572v-152h778v143l336 -51v-61q0 -75 -51.5 -153.5t-130 -129.5t-152.5 -51h-798 q-74 0 -152.5 51t-130 129.5t-51.5 153.5v121h-234z" />
<glyph unicode="&#x2122;" horiz-adv-x="1751" d="M47 1241v193h711v-193h-238v-442h-235v442h-238zM840 799v635h172l231 -293l232 293h172v-635h-211v299l-201 -242l-199 240v-297h-196z" />
<glyph unicode="&#x25fc;" horiz-adv-x="1024" d="M0 0v1024h1024v-1024h-1024z" />
</font>
</defs>
</svg>
