<?xml version="1.0" standalone="no"?>
<!DOCTYPE svg PUBLIC "-//W3C//DTD SVG 1.1//EN" "http://www.w3.org/Graphics/SVG/1.1/DTD/svg11.dtd" >
<svg xmlns="http://www.w3.org/2000/svg" xmlns:xlink="http://www.w3.org/1999/xlink" version="1.1">
<metadata></metadata>
<defs>
<font id="bank_gothiclight" horiz-adv-x="1343" >
<font-face units-per-em="2048" ascent="1720" descent="-328" />
<missing-glyph horiz-adv-x="563" />
<glyph unicode="&#xfb01;" horiz-adv-x="1296" d="M41 870v152h203v270q0 58 40.5 100t104.5 42h289l35 -152h-305v-260h720v-1022h-163v870h-557v-870h-164v870h-203zM946 1284v90q0 25 17.5 42.5t42.5 17.5h79q25 0 42.5 -17.5t17.5 -42.5v-90q0 -25 -17.5 -42t-42.5 -17h-79q-25 0 -42.5 17t-17.5 42z" />
<glyph unicode="&#xfb02;" horiz-adv-x="1294" d="M41 870v152h203v270q0 58 40.5 100t104.5 42h737v-1434h-163v1282h-555v-260h317v-152h-317v-870h-164v870h-203z" />
<glyph horiz-adv-x="0" />
<glyph horiz-adv-x="682" />
<glyph unicode=" "  horiz-adv-x="563" />
<glyph unicode="&#x09;" horiz-adv-x="563" />
<glyph unicode="&#xa0;" horiz-adv-x="563" />
<glyph unicode="!" horiz-adv-x="595" d="M168 59v152q0 25 17 42t42 17h142q25 0 42 -17t17 -42v-152q0 -25 -17 -42t-42 -17h-142q-25 0 -42 17t-17 42zM186 1434h222l-50 -1002h-120z" />
<glyph unicode="&#x22;" horiz-adv-x="935" d="M160 1434h196l-41 -568h-112zM580 1434h196l-41 -568h-112z" />
<glyph unicode="#" horiz-adv-x="1349" d="M115 571l24 158h219l33 225h-219l25 158h219l47 322h129l-47 -322h342l47 322h129l-47 -322h219l-25 -158h-219l-33 -225h220l-25 -158h-219l-49 -325h-129l49 325h-342l-47 -325h-129l47 325h-219zM487 729h342l33 225h-342z" />
<glyph unicode="$" horiz-adv-x="1681" d="M213 174v115l168 47v-170h414v483h-387q-72 0 -123.5 51t-51.5 123v437q0 72 51.5 123t123.5 51h387v129h139v-129h346q72 0 123 -51t51 -123v-115l-168 -47v170h-352v-449h364q72 0 123.5 -51t51.5 -123v-471q0 -72 -51.5 -123t-123.5 -51h-364v-223h-139v223h-408 q-72 0 -123 51t-51 123zM414 819h381v449h-381v-449zM934 166h358v483h-358v-483z" />
<glyph unicode="%" horiz-adv-x="2009" d="M115 825v500q0 39 35.5 74t74.5 35h494q39 0 74.5 -35t35.5 -74v-500q0 -38 -35 -73t-75 -35h-494q-40 0 -75 35t-35 73zM266 858h412v434h-412v-434zM397 0l1053 1434h162l-1053 -1434h-162zM1180 109v499q0 38 35 73.5t75 35.5h494q40 0 75 -35.5t35 -73.5v-499 q0 -39 -35 -74t-75 -35h-494q-40 0 -75 35t-35 74zM1331 141h412v434h-412v-434z" />
<glyph unicode="&#x26;" horiz-adv-x="1654" d="M125 174v332q0 68 68 119l342 249l-17 19q-73 82 -96 116t-23 72v179q0 72 53.5 123t125.5 51h419q72 0 123 -51t51 -123v-197l-167 -47v254h-433v-180l568 -586l276 276l117 -116l-279 -279l373 -385h-244l-252 262l-188 -188q-40 -40 -73 -57t-76 -17h-494 q-72 0 -123 51t-51 123zM301 164h498l215 215l-367 381l-346 -254v-342z" />
<glyph unicode="'" horiz-adv-x="516" d="M160 1434h196l-41 -568h-112z" />
<glyph unicode="(" horiz-adv-x="677" d="M119 608v217q0 312 130.5 515.5t375.5 267.5l28 -129q-184 -52 -278 -222t-94 -432v-217q0 -262 94 -431.5t278 -221.5l-28 -129q-245 64 -375.5 267t-130.5 515z" />
<glyph unicode=")" horiz-adv-x="677" d="M25 -49q184 52 278 221.5t94 431.5v217q0 262 -94 432t-278 222l28 129q245 -64 375.5 -267.5t130.5 -515.5v-217q0 -312 -130.5 -515t-375.5 -267z" />
<glyph unicode="*" horiz-adv-x="751" d="M70 1047l206 98l-206 96l63 113l193 -123l-15 209h127l-12 -207l190 123l66 -113l-207 -98l207 -96l-64 -113l-192 121l14 -207h-129l15 209l-193 -125z" />
<glyph unicode="+" horiz-adv-x="1331" d="M150 647v141h442v447h149v-447h443v-141h-443v-446h-149v446h-442z" />
<glyph unicode="," horiz-adv-x="563" d="M152 59v152q0 25 17 42t42 17h141q25 0 42.5 -17t17.5 -42v-129q0 -26 -19 -64l-145 -305h-92l92 293h-37q-25 0 -42 14.5t-17 38.5z" />
<glyph unicode="-" horiz-adv-x="688" d="M37 467v147h614v-147h-614z" />
<glyph unicode="." horiz-adv-x="563" d="M152 59v152q0 25 17 42t42 17h141q25 0 42.5 -17t17.5 -42v-152q0 -25 -17.5 -42t-42.5 -17h-141q-25 0 -42 17t-17 42z" />
<glyph unicode="/" horiz-adv-x="1140" d="M0 37l1024 1433l117 -73l-1024 -1434z" />
<glyph unicode="0" horiz-adv-x="1681" d="M199 174v1086q0 72 51 123t123 51h936q72 0 123 -51t51 -123v-1086q0 -72 -51 -123t-123 -51h-936q-72 0 -123 51t-51 123zM385 170h911v1094h-911v-1094z" />
<glyph unicode="1" horiz-adv-x="1681" d="M537 1204v111l430 139v-1454h-181v1233z" />
<glyph unicode="2" horiz-adv-x="1681" d="M227 0v86q0 81 58 127l952 729v326h-788v-334l-173 47v279q0 72 51.5 123t123.5 51h784q72 0 123 -51t51 -123v-308q0 -53 -22 -89t-80 -79l-807 -618h805v256l176 -47v-201q0 -72 -51 -123t-123 -51h-1080z" />
<glyph unicode="3" horiz-adv-x="1681" d="M242 174v201l172 47v-256h788q41 0 65.5 30t24.5 74v250q0 45 -33.5 88t-74.5 43h-432v168h397q42 0 66 25.5t24 68.5v250q0 44 -24.5 74.5t-65.5 30.5h-707v-248l-172 47v193q0 72 51 123t123 51h756q215 0 215 -291v-166q0 -101 -38 -156.5t-120 -85.5 q106 -13 158.5 -77t52.5 -154v-213q0 -291 -215 -291h-837q-72 0 -123 51t-51 123z" />
<glyph unicode="4" horiz-adv-x="1681" d="M113 348v135l942 951h157v-918h308v-168h-308v-348h-178v348h-921zM367 516h667v674z" />
<glyph unicode="5" horiz-adv-x="1681" d="M186 244q74 -33 183 -55.5t178 -22.5h575q72 0 118 46t46 105v226q0 65 -31.5 105t-76.5 40h-899l67 746h965v-168h-811l-35 -412h741q66 0 117 -28.5t80.5 -76t44 -104t14.5 -119.5v-192q0 -64 -18.5 -122t-55.5 -106t-100 -77t-143 -29h-619q-81 0 -157 11.5t-113 29.5 z" />
<glyph unicode="6" horiz-adv-x="1681" d="M223 334v377q0 159 51 285.5t137.5 210.5t208.5 139.5t258 79.5t291 24l99 -141q-185 0 -330.5 -26.5t-262.5 -84.5t-186.5 -159t-85.5 -242q130 34 291 34h527q66 0 117 -28.5t80.5 -76.5t44 -104.5t14.5 -119.5v-168q0 -63 -19 -121t-56 -106.5t-100 -77.5t-143 -29 h-618q-80 0 -143 29t-100 77.5t-56 106.5t-19 121zM403 313q0 -59 43 -103t115 -44h576q72 0 117.5 44.5t45.5 102.5v207q0 65 -32 105.5t-76 40.5h-563q-125 0 -226 -37v-99v-217z" />
<glyph unicode="7" horiz-adv-x="1681" d="M205 981v453h1298v-158l-678 -1276h-198l684 1268h-934v-334z" />
<glyph unicode="8" horiz-adv-x="1681" d="M178 291v207q0 186 182 231q-81 30 -116 84.5t-35 157.5v172q0 291 215 291h831q215 0 215 -291v-172q0 -103 -35 -157.5t-116 -84.5q182 -45 182 -231v-207q0 -291 -215 -291h-893q-215 0 -215 291zM354 270q0 -44 24.5 -74t65.5 -30h791q41 0 65.5 30t24.5 74v246 q0 45 -33.5 89t-74.5 44h-754q-41 0 -75 -44t-34 -89v-246zM385 905q0 -43 24 -69.5t66 -26.5h729q42 0 66 26.5t24 69.5v258q0 44 -24.5 74.5t-65.5 30.5h-729q-41 0 -65.5 -30.5t-24.5 -74.5v-258z" />
<glyph unicode="9" horiz-adv-x="1681" d="M205 944v156q0 63 18.5 121t55.5 106.5t100 77.5t143 29h619q80 0 143 -29t100 -77.5t55.5 -106.5t18.5 -121v-377q0 -159 -51 -284t-137.5 -206.5t-209 -134.5t-257.5 -75.5t-291 -22.5l-98 141q148 0 270 15.5t231 52.5t185 94.5t123 145.5t55 202q-101 -37 -291 -37 h-526q-66 0 -117 28.5t-80.5 77t-44 105t-14.5 119.5zM381 928q0 -65 32 -106.5t76 -41.5h564q124 0 225 37v109v194q0 59 -43 103.5t-115 44.5h-575q-72 0 -118 -45t-46 -103v-192z" />
<glyph unicode=":" horiz-adv-x="563" d="M152 59v152q0 25 17 42t42 17h141q25 0 42.5 -17t17.5 -42v-152q0 -25 -17.5 -42t-42.5 -17h-141q-25 0 -42 17t-17 42zM152 811v152q0 25 17 42t42 17h141q25 0 42.5 -17t17.5 -42v-152q0 -25 -17.5 -42t-42.5 -17h-141q-25 0 -42 17t-17 42z" />
<glyph unicode=";" horiz-adv-x="563" d="M152 59v152q0 25 17 42t42 17h141q25 0 42.5 -17t17.5 -42v-129q0 -26 -19 -64l-145 -305h-92l92 293h-37q-25 0 -42 14.5t-17 38.5zM152 811v152q0 25 17 42t42 17h141q25 0 42.5 -17t17.5 -42v-152q0 -25 -17.5 -42t-42.5 -17h-141q-25 0 -42 17t-17 42z" />
<glyph unicode="&#x3c;" horiz-adv-x="1331" d="M186 643v145l854 412v-160l-690 -329l690 -318v-160z" />
<glyph unicode="=" horiz-adv-x="1331" d="M150 449v141h1032v-141h-1032zM150 844v141h1032v-141h-1032z" />
<glyph unicode="&#x3e;" horiz-adv-x="1331" d="M291 233v160l690 318l-690 329v160l854 -412v-145z" />
<glyph unicode="?" horiz-adv-x="1052" d="M18 1098v162q0 72 51.5 123t123.5 51h614q72 0 123 -51t51 -123v-226q0 -56 -14 -83t-68 -64l-330 -225v-230h-176v246q0 50 41 78l375 256v256h-619v-217zM350 59v152q0 25 17.5 42t42.5 17h141q25 0 42 -17t17 -42v-152q0 -25 -17 -42t-42 -17h-141q-25 0 -42.5 17 t-17.5 42z" />
<glyph unicode="@" horiz-adv-x="1855" d="M180 238v409q0 87 15.5 162t52.5 143.5t93.5 116.5t144.5 76.5t200 28.5h483q112 0 200 -28.5t144.5 -76.5t93.5 -116.5t52.5 -143.5t15.5 -162v-473q0 -72 -51 -123t-123 -51h-174q-50 0 -89.5 24.5t-49.5 73.5q-93 -98 -287 -98h-252q-54 0 -95.5 39.5t-41.5 91.5v260 q0 55 37 94t100 39h527v224h-500v-99l-146 39v66q0 52 42 91.5t96 39.5h522q55 0 96 -37.5t41 -93.5v-566q0 -24 12.5 -36.5t32.5 -12.5h160v508q0 89 -17.5 158t-58 124.5t-113 85t-174.5 29.5h-483q-102 0 -174.5 -29.5t-112.5 -85.5t-57.5 -124.5t-17.5 -157.5v-409 q0 -89 17.5 -158t57.5 -124.5t112.5 -85.5t174.5 -30h651v-129h-651q-112 0 -200 28.5t-144.5 76.5t-93.5 116.5t-52.5 143.5t-15.5 162zM666 172q0 -14 8.5 -23.5t21.5 -9.5h269q105 0 209 33v211h-478q-13 0 -21.5 -9.5t-8.5 -23.5v-178z" />
<glyph unicode="A" horiz-adv-x="1562" d="M-2 0l723 1434h149l695 -1434h-193l-176 369h-827l-183 -369h-188zM451 535h665l-330 686z" />
<glyph unicode="B" horiz-adv-x="1638" d="M205 0v1434h1073q72 0 123 -51t51 -123v-338q0 -75 -44.5 -131t-113.5 -56q70 0 114 -55.5t44 -130.5v-375q0 -72 -51 -123t-123 -51h-1073zM385 170h801q41 0 65.5 30t24.5 74v283q0 43 -24 68.5t-66 25.5h-801v-481zM385 819h801q42 0 66 25.5t24 68.5v246 q0 44 -24.5 74.5t-65.5 30.5h-801v-445z" />
<glyph unicode="C" horiz-adv-x="1615" d="M188 174v1086q0 72 51 123t123 51h912q72 0 123 -51t51 -123v-271l-180 -47v326h-893v-1102h893v334l180 -47v-279q0 -72 -51 -123t-123 -51h-912q-72 0 -123 51t-51 123z" />
<glyph unicode="D" horiz-adv-x="1732" d="M205 0v1434h692q138 0 249.5 -28t184 -71.5t126.5 -107.5t82 -123.5t44.5 -132.5t20.5 -122t4 -104v-57q0 -55 -4 -104t-20.5 -122t-44.5 -132.5t-82 -123t-126.5 -107t-184 -71.5t-249.5 -28h-692zM385 166h500q534 0 534 541v20q0 541 -534 541h-500v-1102z" />
<glyph unicode="E" horiz-adv-x="1505" d="M205 0v1434h1192v-166h-1012v-439h594v-165h-594v-498h1026v-166h-1206z" />
<glyph unicode="F" horiz-adv-x="1404" d="M205 0v1434h1159v-166h-979v-439h561v-165h-561v-664h-180z" />
<glyph unicode="G" horiz-adv-x="1732" d="M188 174v1086q0 72 51 123t123 51h1014q72 0 123 -51t51 -123v-166l-180 -47v221h-995v-1102h991v457h-455v165h641v-614q0 -72 -51 -123t-123 -51h-1016q-72 0 -123 51t-51 123z" />
<glyph unicode="H" horiz-adv-x="1767" d="M205 0v1434h180v-605h997v605h181v-1434h-181v664h-997v-664h-180z" />
<glyph unicode="I" horiz-adv-x="589" d="M205 0v1434h180v-1434h-180z" />
<glyph unicode="J" horiz-adv-x="1337" d="M104 174v416l177 47v-469h680v1266h180v-1260q0 -72 -51 -123t-123 -51h-688q-72 0 -123.5 51t-51.5 123z" />
<glyph unicode="K" horiz-adv-x="1503" d="M205 0v1434h180v-639l795 639h243l-845 -682l950 -752h-264l-879 684v-684h-180z" />
<glyph unicode="L" horiz-adv-x="1349" d="M205 0v1434h180v-1268h936v-166h-1116z" />
<glyph unicode="M" horiz-adv-x="1921" d="M205 0v1434h174l586 -914l581 914h170v-1434h-180v1100l-575 -910l-580 906v-1096h-176z" />
<glyph unicode="N" horiz-adv-x="1806" d="M205 0v1434h149l1071 -1139v1139h177v-1434h-150l-1071 1141v-1141h-176z" />
<glyph unicode="O" horiz-adv-x="1769" d="M188 174v1086q0 72 51 123t123 51h1045q72 0 123 -51t51 -123v-1086q0 -72 -51 -123t-123 -51h-1045q-72 0 -123 51t-51 123zM375 170h1020v1094h-1020v-1094z" />
<glyph unicode="P" horiz-adv-x="1599" d="M205 0v1434h1073q72 0 123 -51t51 -123v-517q0 -72 -51 -123t-123 -51h-893v-569h-180zM385 739h797q41 0 65.5 30.5t24.5 74.5v315q0 44 -24.5 74.5t-65.5 30.5h-797v-525z" />
<glyph unicode="Q" horiz-adv-x="1769" d="M188 174v1086q0 72 51 123t123 51h1045q72 0 123 -51t51 -123v-1086q0 -72 -51 -123t-123 -51h-233l137 -307h-162l-135 307h-652q-72 0 -123 51t-51 123zM375 170h563l-131 295l131 59l160 -354h297v1094h-1020v-1094z" />
<glyph unicode="R" horiz-adv-x="1628" d="M205 0v1434h1073q72 0 123 -51t51 -123v-498q0 -72 -51 -123t-123 -51h-334l586 -588h-240l-583 588h-322v-588h-180zM385 758h803q41 0 62.5 29.5t21.5 74.5v297q0 45 -21.5 75t-62.5 30h-803v-506z" />
<glyph unicode="S" horiz-adv-x="1611" d="M162 174v115l172 47v-170h938v483h-922q-72 0 -123 51t-51 123v437q0 72 51 123t123 51h907q72 0 123.5 -51t51.5 -123v-115l-172 -47v170h-900v-449h922q72 0 123 -51t51 -123v-471q0 -72 -51 -123t-123 -51h-946q-72 0 -123 51t-51 123z" />
<glyph unicode="T" horiz-adv-x="1359" d="M0 1268v166h1360v-166h-590v-1268h-180v1268h-590z" />
<glyph unicode="U" horiz-adv-x="1714" d="M197 174v1260h182v-1264h956v1264h183v-1260q0 -72 -51.5 -123t-123.5 -51h-972q-72 0 -123 51t-51 123z" />
<glyph unicode="V" horiz-adv-x="1490" d="M-4 1434h194l558 -1170l557 1170h190l-698 -1434h-105z" />
<glyph unicode="W" horiz-adv-x="1943" d="M14 1434h183l360 -1123l367 1123h116l355 -1110l360 1110h174l-479 -1434h-127l-350 1079l-359 -1079h-127z" />
<glyph unicode="X" horiz-adv-x="1441" d="M-4 0l610 743l-571 691h221l461 -564l457 564h200l-557 -678l625 -756h-221l-514 625l-510 -625h-201z" />
<glyph unicode="Y" horiz-adv-x="1386" d="M-37 1434h223l508 -635l529 635h200l-639 -777v-657h-180v653z" />
<glyph unicode="Z" horiz-adv-x="1402" d="M57 0v86l971 1182h-870v166h1153v-86l-971 -1182h965v-166h-1248z" />
<glyph unicode="[" horiz-adv-x="677" d="M231 -150v1733h310v-133h-156v-1466h156v-134h-310z" />
<glyph unicode="\" horiz-adv-x="1140" d="M0 1397l117 73l1024 -1433l-117 -74z" />
<glyph unicode="]" horiz-adv-x="677" d="M137 -16h156v1466h-156v133h309v-1733h-309v134z" />
<glyph unicode="^" horiz-adv-x="1331" d="M217 774l377 660h143l379 -660l-135 -51l-315 565l-316 -565z" />
<glyph unicode="_" horiz-adv-x="1024" d="M0 -154h1024v-102h-1024v102z" />
<glyph unicode="`" horiz-adv-x="681" d="M59 1384l84 146l410 -260l-41 -74z" />
<glyph unicode="a" horiz-adv-x="1349" d="M162 141v312q0 58 40.5 100.5t104.5 42.5h711v274h-678v-118l-158 41v88q0 56 43.5 98.5t100.5 42.5h710q58 0 102 -41.5t44 -101.5v-879h-164v113q-57 -57 -135 -85t-193 -28h-383q-64 0 -104.5 41.5t-40.5 99.5zM326 199q0 -21 13 -34t34 -13h387q72 0 142.5 13.5 t115.5 35.5v250h-645q-20 0 -33.5 -14t-13.5 -34v-204z" />
<glyph unicode="b" horiz-adv-x="1349" d="M168 0v1434h164v-525q58 57 135 85t192 28h383q64 0 105 -42t41 -99v-740q0 -57 -41 -99t-105 -42h-383q-116 0 -192.5 27.5t-134.5 85.5v-113h-164zM332 201q45 -22 115.5 -35.5t142.5 -13.5h434v718h-434q-72 0 -142.5 -13.5t-115.5 -35.5v-620z" />
<glyph unicode="c" d="M162 141v738q0 56 44 99.5t101 43.5h731q57 0 100.5 -43.5t43.5 -99.5v-183l-160 -39v211h-694v-716h694v217l160 -39v-189q0 -56 -43.5 -98.5t-100.5 -42.5h-731q-57 0 -101 43t-44 98z" />
<glyph unicode="d" horiz-adv-x="1349" d="M162 141v740q0 58 40.5 99.5t104.5 41.5h383q212 0 328 -113v525h164v-1434h-164v113q-57 -57 -135 -85t-193 -28h-383q-64 0 -104.5 41.5t-40.5 99.5zM326 152h434q72 0 142.5 13.5t115.5 35.5v620q-45 22 -115.5 35.5t-142.5 13.5h-434v-718z" />
<glyph unicode="e" d="M162 141v738q0 56 44 99.5t101 43.5h731q57 0 100.5 -43.5t43.5 -99.5v-422h-856v-305h696v116l160 -39v-88q0 -56 -43.5 -98.5t-100.5 -42.5h-731q-57 0 -101 43t-44 98zM326 602h692v268h-692v-268z" />
<glyph unicode="f" horiz-adv-x="794" d="M41 870v152h203v270q0 58 40.5 100t104.5 42h330l35 -152h-346v-260h317v-152h-317v-870h-164v870h-203z" />
<glyph unicode="g" horiz-adv-x="1323" d="M139 -88q0 69 30 122.5t75 82.5q-62 42 -62 125q0 42 26.5 81t70.5 64q-48 11 -82.5 50.5t-34.5 88.5v353q0 56 44 99.5t101 43.5h574q47 0 88 -33.5t53 -79.5q66 133 178 133h25v-163q-27 4 -51 4q-101 0 -148 -72v-285q0 -55 -44 -98t-101 -43h-473q-40 0 -60 -23.5 t-20 -56.5t20.5 -55.5t59.5 -22.5h671q57 0 101.5 -43.5t44.5 -99.5v-252q0 -55 -44.5 -98t-101.5 -43h-794q-57 0 -101.5 43t-44.5 98v80zM287 -35v-129h723q57 0 57 53v142q0 51 -57 51h-619q-35 0 -69 6q-35 -38 -35 -123zM319 530h549v347h-549v-347z" />
<glyph unicode="h" horiz-adv-x="1304" d="M168 0v1434h164v-525q58 57 135 85t192 28h332q64 0 105 -42t41 -99v-881h-164v870h-383q-72 0 -142.5 -13.5t-115.5 -35.5v-821h-164z" />
<glyph unicode="i" horiz-adv-x="501" d="M152 1284v90q0 25 17 42.5t42 17.5h80q25 0 42 -17.5t17 -42.5v-90q0 -25 -17 -42t-42 -17h-80q-25 0 -42 17t-17 42zM170 0v1022h164v-1022h-164z" />
<glyph unicode="j" horiz-adv-x="501" d="M-8 -158h178v1180h164v-1190q0 -57 -41 -99t-105 -42h-161zM152 1284v90q0 25 17 42.5t42 17.5h80q25 0 42 -17.5t17 -42.5v-90q0 -25 -17 -42t-42 -17h-80q-25 0 -42 17t-17 42z" />
<glyph unicode="k" horiz-adv-x="1126" d="M170 0v1434h164v-848l543 436h210l-612 -487l688 -535h-231l-598 467v-467h-164z" />
<glyph unicode="l" horiz-adv-x="499" d="M168 0v1434h164v-1434h-164z" />
<glyph unicode="m" horiz-adv-x="1806" d="M168 0v1022h164v-113q58 57 135 85t192 28h181q54 0 92 -32t49 -79q58 56 135.5 83.5t192.5 27.5h184q64 0 104.5 -41.5t40.5 -99.5v-881h-163v870h-236q-151 0 -254 -47v-823h-164v870h-231q-72 0 -142.5 -13.5t-115.5 -35.5v-821h-164z" />
<glyph unicode="n" horiz-adv-x="1304" d="M168 0v1022h164v-113q58 57 135 85t192 28h332q64 0 105 -42t41 -99v-881h-164v870h-383q-72 0 -142.5 -13.5t-115.5 -35.5v-821h-164z" />
<glyph unicode="o" d="M162 141v738q0 56 44 99.5t101 43.5h729q57 0 101.5 -43.5t44.5 -99.5v-738q0 -55 -44.5 -98t-101.5 -43h-729q-57 0 -101 43t-44 98zM328 152h688v716h-688v-716z" />
<glyph unicode="p" horiz-adv-x="1349" d="M168 -309v1331h164v-113q58 57 135 85t192 28h383q64 0 105 -42t41 -99v-740q0 -57 -41 -99t-105 -42h-383q-116 0 -192.5 27.5t-134.5 85.5v-422h-164zM332 201q45 -22 115.5 -35.5t142.5 -13.5h434v718h-434q-72 0 -142.5 -13.5t-115.5 -35.5v-620z" />
<glyph unicode="q" horiz-adv-x="1400" d="M162 141v740q0 58 40.5 99.5t104.5 41.5h383q212 0 328 -113v113h164v-1331h-164v422q-57 -57 -135 -85t-193 -28h-383q-64 0 -104.5 41.5t-40.5 99.5zM326 152h434q72 0 142.5 13.5t115.5 35.5v620q-45 22 -115.5 35.5t-142.5 13.5h-434v-718z" />
<glyph unicode="r" horiz-adv-x="985" d="M168 0v1022h164v-113q58 57 135 85t192 28h119q64 0 105 -42t41 -99v-185l-156 -26v200h-178q-72 0 -142.5 -13.5t-115.5 -35.5v-821h-164z" />
<glyph unicode="s" d="M162 139v90l155 41v-129h703v305h-698q-60 0 -103 43.5t-43 100.5v289q0 60 44 101.5t102 41.5h696q57 0 100 -42.5t43 -98.5v-88l-155 -41v118h-666v-270h696q65 0 105.5 -42.5t40.5 -100.5v-316q0 -58 -44 -99.5t-102 -41.5h-731q-57 0 -100 42t-43 97z" />
<glyph unicode="t" horiz-adv-x="794" d="M41 870v152h203v262l164 33v-295h317v-152h-317v-718h346l-35 -152h-330q-64 0 -104.5 41.5t-40.5 99.5v729h-203z" />
<glyph unicode="u" horiz-adv-x="1304" d="M168 141v881h164v-870h383q72 0 142.5 13.5t115.5 35.5v821h164v-1022h-164v113q-57 -57 -135 -85t-193 -28h-332q-64 0 -104.5 41.5t-40.5 99.5z" />
<glyph unicode="v" horiz-adv-x="1130" d="M10 1022h174l383 -782l383 782h170l-510 -1022h-90z" />
<glyph unicode="w" horiz-adv-x="1540" d="M31 1022h168l260 -752l264 752h106l256 -741l263 741h161l-370 -1022h-115l-254 721l-258 -721h-115z" />
<glyph unicode="x" horiz-adv-x="1091" d="M2 0l438 528l-411 494h207l307 -369l307 369h190l-401 -483l451 -539h-207l-348 414l-342 -414h-191z" />
<glyph unicode="y" horiz-adv-x="1130" d="M10 1022h174l383 -784l383 784h170l-592 -1188q-72 -143 -204 -143h-185l-26 151h252l116 234z" />
<glyph unicode="z" horiz-adv-x="1142" d="M57 0v74l734 796h-656v152h930v-76l-731 -796h731v-150h-1008z" />
<glyph unicode="{" horiz-adv-x="677" d="M117 657v119h47q40 0 65 27.5t25 79.5v526q0 74 44 124t114 50h217v-133h-140q-81 0 -81 -92v-467q0 -67 -38.5 -114.5t-109.5 -59.5q70 -10 109 -56t39 -118v-467q0 -92 81 -92h140v-134h-217q-70 0 -114 50.5t-44 124.5v526q0 52 -25 79t-65 27h-47z" />
<glyph unicode="|" horiz-adv-x="681" d="M268 -512v2048h146v-2048h-146z" />
<glyph unicode="}" horiz-adv-x="677" d="M49 -16h139q82 0 82 92v467q0 72 39 118t109 56q-71 12 -109.5 59.5t-38.5 114.5v467q0 92 -82 92h-139v133h217q70 0 114 -50t44 -124v-526q0 -52 25 -79.5t65 -27.5h47v-119h-47q-40 0 -65 -27t-25 -79v-526q0 -74 -44 -124.5t-114 -50.5h-217v134z" />
<glyph unicode="~" horiz-adv-x="1275" d="M154 559v176q0 61 43 106.5t106 45.5h119q38 0 98 -29l334 -170h64q53 0 53 62v122h149v-176q0 -61 -43 -106t-106 -45h-119q-40 0 -98 28l-334 170h-64q-53 0 -53 -61v-123h-149z" />
<glyph unicode="&#xa1;" horiz-adv-x="595" d="M168 864v152q0 25 17 42t42 17h142q25 0 42 -17t17 -42v-152q0 -25 -17 -42t-42 -17h-142q-25 0 -42 17t-17 42zM188 -358l50 1001h120l52 -1001h-222z" />
<glyph unicode="&#xa2;" horiz-adv-x="1681" d="M215 334v768q0 61 48.5 107t111.5 46h323v179h140v-179h311q63 0 111.5 -46.5t48.5 -106.5v-197l-170 -43v228h-301v-744h301v234l170 -43v-203q0 -60 -48.5 -107t-111.5 -47h-311v-274h-140v274h-323q-63 0 -111.5 46.5t-48.5 107.5zM393 346h305v744h-305v-744z" />
<glyph unicode="&#xa3;" horiz-adv-x="1681" d="M143 -20v172q32 17 193 67v432h-193v162h193v293q0 62 15.5 119t46 104.5t82.5 76t118 28.5h670q72 0 123 -51t51 -123v-193l-172 -47v248h-627q-131 0 -131 -146v-309h444v-162h-444v-405q48 14 201 14q143 0 347.5 -29.5t311.5 -64.5v256l176 -47v-201q0 -72 -51 -123 t-123 -51q-21 0 -51 4t-52 8.5t-69 14.5t-69 14q-252 53 -420 53q-178 0 -327 -33.5t-243 -80.5z" />
<glyph unicode="&#xa4;" horiz-adv-x="1331" d="M182 311l109 109q-94 132 -94 272q0 143 94 275l-109 106l103 103l106 -107q124 90 275 90q153 0 276 -90l107 107l100 -103l-107 -106q95 -130 95 -275q0 -150 -95 -272l107 -109l-100 -100l-107 108q-126 -92 -272 -92q-157 0 -279 92l-106 -108zM352 692 q0 -130 91 -223.5t223 -93.5t223.5 93.5t91.5 223.5q0 131 -91.5 225.5t-223.5 94.5t-223 -94.5t-91 -225.5z" />
<glyph unicode="&#xa5;" horiz-adv-x="1681" d="M111 1434h223l508 -635l528 635h201l-522 -635h282v-148h-399v-164h399v-147h-399v-340h-180v340h-400v147h400v164h-400v148h281z" />
<glyph unicode="&#xa6;" horiz-adv-x="681" d="M268 -358v716h146v-716h-146zM268 666v716h146v-716h-146z" />
<glyph unicode="&#xa7;" horiz-adv-x="1355" d="M139 733v119q0 64 32.5 125t94.5 90v215q0 63 45.5 107.5t108.5 44.5h536q63 0 108.5 -44.5t45.5 -107.5v-131l-156 -43v176h-530v-192l709 -361q60 -31 77 -76.5t17 -128.5v-118q0 -63 -32 -122.5t-93 -88.5v-238q0 -63 -45.5 -107.5t-108.5 -44.5h-586q-63 0 -108 44.5 t-45 107.5v141l156 43v-186h579v215l-698 354q-68 34 -87.5 79t-19.5 128zM297 678l717 -365q55 30 55 86v189l-717 362q-55 -28 -55 -90v-182z" />
<glyph unicode="&#xa8;" horiz-adv-x="681" d="M35 1278v121q0 20 13.5 33.5t33.5 13.5h115q20 0 33.5 -13.5t13.5 -33.5v-121q0 -20 -13.5 -33.5t-33.5 -13.5h-115q-20 0 -33.5 13.5t-13.5 33.5zM438 1278v121q0 20 13.5 33.5t33.5 13.5h115q20 0 33.5 -13.5t13.5 -33.5v-121q0 -20 -13.5 -33.5t-33.5 -13.5h-115 q-20 0 -33.5 13.5t-13.5 33.5z" />
<glyph unicode="&#xa9;" horiz-adv-x="1699" d="M180 588v258q0 79 18.5 153.5t59 143t99 119.5t144 81.5t187.5 30.5h324q102 0 187.5 -30.5t144 -81.5t99 -119.5t59 -143t18.5 -153.5v-258q0 -79 -18.5 -153.5t-59 -143t-99 -120t-144 -82t-187.5 -30.5h-324q-102 0 -187.5 30.5t-144 82t-99 120t-59 143t-18.5 153.5z M324 588q0 -78 22.5 -148t65.5 -126.5t114.5 -90t161.5 -33.5h324q90 0 161.5 33.5t114.5 90t65.5 126.5t22.5 148v258q0 78 -22.5 148t-65.5 126.5t-114.5 89.5t-161.5 33h-324q-90 0 -161.5 -33t-114.5 -89.5t-65.5 -126.5t-22.5 -148v-258zM516 461v512q0 42 35 75t80 33 h446q45 0 79 -33t34 -75v-123l-131 -31v142h-408v-488h408v145l131 -30v-127q0 -42 -34 -75.5t-79 -33.5h-446q-44 0 -79.5 33t-35.5 76z" />
<glyph unicode="&#xaa;" horiz-adv-x="1062" d="M168 823v232q0 40 29 70t75 30h473v141h-417v-63l-146 29v63q0 39 35 74t74 35h493q40 0 75.5 -35.5t35.5 -73.5v-608h-150v78q-81 -78 -235 -78h-231q-39 0 -75 34.5t-36 71.5zM193 436v133h702v-133h-702zM317 891q0 -14 10 -23.5t25 -9.5h209q109 0 184 35v125h-393 q-15 0 -25 -9.5t-10 -23.5v-94z" />
<glyph unicode="&#xab;" horiz-adv-x="1148" d="M66 467v151l440 363l72 -70l-326 -368l326 -369l-72 -72zM565 467v151l441 363l71 -70l-325 -368l325 -369l-71 -72z" />
<glyph unicode="&#xac;" horiz-adv-x="1331" d="M119 831v140h1020v-586h-150v446h-870z" />
<glyph unicode="&#xad;" horiz-adv-x="688" d="M37 467v147h614v-147h-614z" />
<glyph unicode="&#xae;" horiz-adv-x="1077" d="M98 924v161q0 65 20.5 125.5t59.5 111.5t105 81.5t149 30.5h213q83 0 149 -30.5t105 -81.5t59.5 -111.5t20.5 -125.5v-161q0 -65 -20.5 -125.5t-59.5 -110.5t-105 -80t-149 -30h-213q-83 0 -149 30t-105 80t-59.5 110.5t-20.5 125.5zM207 924q0 -104 58 -175t167 -71h213 q109 0 167 71t58 175v161q0 104 -58 176t-167 72h-213q-109 0 -167 -72t-58 -176v-161zM330 791v430h340q31 0 54.5 -22t23.5 -50v-127q0 -28 -23.5 -50t-54.5 -22h-41l174 -159h-129l-166 159h-80v-159h-98zM428 1030h199q14 0 14 23v61q0 7 -4 14t-10 7h-199v-105z" />
<glyph unicode="&#xaf;" horiz-adv-x="681" d="M35 1251v131h612v-131h-612z" />
<glyph unicode="&#xb0;" horiz-adv-x="819" d="M96 1149q0 126 93 215.5t221 89.5t220.5 -89.5t92.5 -215.5t-92.5 -215.5t-220.5 -89.5t-221 89.5t-93 215.5zM217 1149q0 -79 56.5 -136t136.5 -57q79 0 135.5 56.5t56.5 136.5q0 79 -56 135.5t-136 56.5t-136.5 -56.5t-56.5 -135.5z" />
<glyph unicode="&#xb1;" horiz-adv-x="1124" d="M45 0v141h1034v-141h-1034zM45 694v142h442v399h150v-399h442v-142h-442v-399h-150v399h-442z" />
<glyph unicode="&#xb2;" horiz-adv-x="905" d="M137 717v65q0 51 39 78l459 332v111h-342v-152l-131 37v139q0 43 32.5 75t79.5 32h385q47 0 81 -32t34 -75v-143q0 -32 -14.5 -52.5t-48.5 -44.5l-334 -239h301v115l131 -37v-103q0 -43 -34 -74.5t-81 -31.5h-557z" />
<glyph unicode="&#xb3;" horiz-adv-x="905" d="M115 823v103l131 37v-115h356q12 0 20.5 8.5t8.5 24.5v94q0 21 -11.5 33t-27.5 12h-223v127h206q11 0 20 7.5t9 21.5v94q0 33 -29 33h-315v-111l-131 37v98q0 43 33 75t80 32h368q41 0 69.5 -15t41.5 -41t18.5 -50.5t5.5 -53.5v-76q0 -66 -43 -106q70 -40 70 -115v-100 q0 -29 -5.5 -53.5t-18.5 -50.5t-41.5 -41t-69.5 -15h-410q-47 0 -79.5 31.5t-32.5 74.5z" />
<glyph unicode="&#xb4;" horiz-adv-x="681" d="M129 1270l410 260l84 -146l-453 -188z" />
<glyph unicode="&#xb5;" horiz-adv-x="1325" d="M168 -309v1331h164v-772q0 -42 32.5 -70t67.5 -28h283q72 0 142.5 13.5t115.5 35.5v821h164v-872h90l-35 -150h-88q-51 0 -86.5 28t-44.5 85q-57 -57 -135 -85t-193 -28h-158q-54 0 -97.5 14.5t-61.5 40.5v-364h-160z" />
<glyph unicode="&#xb6;" horiz-adv-x="1298" d="M131 803v448q0 71 56 127t130 56h877v-146h-98v-1306q0 -72 -51 -123.5t-123 -51.5h-441l-47 146h287v670h-404q-75 0 -130.5 54t-55.5 126zM842 -47h133v1335h-133v-1335z" />
<glyph unicode="&#xb7;" horiz-adv-x="1024" d="M379 516v156q0 26 17.5 43.5t43.5 17.5h146q26 0 43.5 -17.5t17.5 -43.5v-156q0 -26 -17.5 -43.5t-43.5 -17.5h-146q-26 0 -43.5 17.5t-17.5 43.5z" />
<glyph unicode="&#xb8;" horiz-adv-x="681" d="M133 -225l111 28v-55h194v109h-184v168h106v-62h123q32 0 57 -25t25 -57v-166q0 -32 -25 -56t-57 -24h-268q-33 0 -57.5 24.5t-24.5 57.5v58z" />
<glyph unicode="&#xb9;" horiz-adv-x="905" d="M268 1243v94l303 109v-729h-143v549z" />
<glyph unicode="&#xba;" horiz-adv-x="1062" d="M168 825v500q0 38 35.5 73.5t75.5 35.5h505q40 0 75.5 -35.5t35.5 -73.5v-500q0 -38 -35.5 -73t-75.5 -35h-505q-40 0 -75.5 35t-35.5 73zM193 436v133h677v-133h-677zM319 858h424v434h-424v-434z" />
<glyph unicode="&#xbb;" horiz-adv-x="1148" d="M72 174l325 369l-325 368l71 70l441 -363v-151l-441 -365zM571 174l326 369l-326 368l72 70l440 -363v-151l-440 -365z" />
<glyph unicode="&#xbc;" horiz-adv-x="1765" d="M217 0l1053 1434h162l-1053 -1434h-162zM221 1243v94l303 109v-729h-143v549zM829 180v105l420 432h160v-408h154v-129h-154v-180h-143v180h-437zM1026 309h240v246z" />
<glyph unicode="&#xbd;" horiz-adv-x="1765" d="M160 0l1052 1434h162l-1052 -1434h-162zM164 1243v94l303 109v-729h-143v549zM956 0v66q0 50 39 77l459 332v111h-342v-152l-131 37v139q0 43 33 75t80 32h385q47 0 80.5 -32t33.5 -75v-143q0 -32 -14.5 -52t-48.5 -44l-334 -240h301v115l131 -37v-103q0 -43 -34 -74.5 t-81 -31.5h-557z" />
<glyph unicode="&#xbe;" horiz-adv-x="1765" d="M109 823v103l131 37v-115h356q12 0 20.5 8.5t8.5 24.5v94q0 21 -11.5 33t-27.5 12h-224v127h207q11 0 20 7.5t9 21.5v94q0 33 -29 33h-315v-111l-131 37v98q0 43 33 75t80 32h368q41 0 69.5 -15t41.5 -41t18.5 -50.5t5.5 -53.5v-76q0 -66 -43 -106q70 -40 70 -115v-100 q0 -29 -5.5 -53.5t-18.5 -50.5t-41.5 -41t-69.5 -15h-410q-47 0 -79.5 31.5t-32.5 74.5zM340 0l1053 1434h161l-1052 -1434h-162zM952 180v105l420 432h160v-408h154v-129h-154v-180h-143v180h-437zM1149 309h240v246z" />
<glyph unicode="&#xbf;" horiz-adv-x="1052" d="M88 41q0 56 14 83t68 64l330 226v229h176v-246q0 -50 -41 -78l-375 -256v-256h619v218l172 -48v-161q0 -72 -51 -123t-123 -51h-615q-72 0 -123 51t-51 123v225zM459 864v152q0 25 17 42t42 17h141q25 0 42.5 -17t17.5 -42v-152q0 -25 -17.5 -42t-42.5 -17h-141 q-25 0 -42 17t-17 42z" />
<glyph unicode="&#xc0;" horiz-adv-x="1562" d="M-2 0l723 1434h149l695 -1434h-193l-176 369h-827l-183 -369h-188zM451 535h665l-330 686zM496 1733l84 145l409 -260l-41 -74z" />
<glyph unicode="&#xc1;" horiz-adv-x="1562" d="M-2 0l723 1434h149l695 -1434h-193l-176 369h-827l-183 -369h-188zM451 535h665l-330 686zM602 1618l410 260l84 -145l-453 -189z" />
<glyph unicode="&#xc2;" horiz-adv-x="1562" d="M-2 0l723 1434h149l695 -1434h-193l-176 369h-827l-183 -369h-188zM446 1606l285 245h156l282 -245l-47 -62l-313 178l-313 -178zM451 535h665l-330 686z" />
<glyph unicode="&#xc3;" horiz-adv-x="1562" d="M-2 0l723 1434h149l695 -1434h-193l-176 369h-827l-183 -369h-188zM451 535h665l-330 686zM451 1569v147q0 50 34.5 88.5t83.5 38.5h68q34 0 70 -22l211 -129h26q25 0 25 34v107h129v-147q0 -50 -35 -88.5t-84 -38.5h-68q-33 0 -69 22l-211 129h-27q-24 0 -24 -35v-106 h-129z" />
<glyph unicode="&#xc4;" horiz-adv-x="1562" d="M-2 0l723 1434h149l695 -1434h-193l-176 369h-827l-183 -369h-188zM451 535h665l-330 686zM481 1626v121q0 20 13.5 33.5t33.5 13.5h115q20 0 33.5 -13.5t13.5 -33.5v-121q0 -20 -13.5 -33.5t-33.5 -13.5h-115q-20 0 -33.5 13.5t-13.5 33.5zM885 1626v121q0 20 13.5 33.5 t33.5 13.5h115q20 0 33.5 -13.5t13.5 -33.5v-121q0 -20 -13.5 -33.5t-33.5 -13.5h-115q-20 0 -33.5 13.5t-13.5 33.5z" />
<glyph unicode="&#xc5;" horiz-adv-x="1562" d="M-2 0l676 1341q-41 16 -67.5 50t-26.5 79v132q0 63 47.5 102t109.5 39h117q61 0 109.5 -39t48.5 -102v-132q0 -45 -27.5 -79t-69.5 -50l650 -1341h-193l-176 369h-827l-183 -369h-188zM451 535h665l-330 686zM692 1434h207v204h-207v-204z" />
<glyph unicode="&#xc6;" horiz-adv-x="2523" d="M-27 0l1104 1434h1338v-166h-1012v-439h594v-165h-594v-498h1026v-166h-1206v369h-742l-282 -369h-226zM606 535h617v733h-56z" />
<glyph unicode="&#xc7;" horiz-adv-x="1615" d="M188 174v1086q0 72 51 123t123 51h912q72 0 123 -51t51 -123v-271l-180 -47v326h-893v-1102h893v334l180 -47v-279q0 -72 -51 -123t-123 -51h-447v-37h123q32 0 57 -25t25 -57v-166q0 -32 -25 -56t-57 -24h-268q-33 0 -57.5 24.5t-24.5 57.5v58l111 28v-55h194v109h-184 v143h-359q-72 0 -123 51t-51 123z" />
<glyph unicode="&#xc8;" horiz-adv-x="1505" d="M205 0v1434h1192v-166h-1012v-439h594v-165h-594v-498h1026v-166h-1206zM494 1733l84 145l409 -260l-41 -74z" />
<glyph unicode="&#xc9;" horiz-adv-x="1505" d="M205 0v1434h1192v-166h-1012v-439h594v-165h-594v-498h1026v-166h-1206zM604 1618l410 260l84 -145l-453 -189z" />
<glyph unicode="&#xca;" horiz-adv-x="1505" d="M205 0v1434h1192v-166h-1012v-439h594v-165h-594v-498h1026v-166h-1206zM438 1606l285 245h156l282 -245l-47 -62l-313 178l-314 -178z" />
<glyph unicode="&#xcb;" horiz-adv-x="1505" d="M205 0v1434h1192v-166h-1012v-439h594v-165h-594v-498h1026v-166h-1206zM489 1626v121q0 20 14 33.5t34 13.5h114q20 0 33.5 -13.5t13.5 -33.5v-121q0 -20 -13.5 -33.5t-33.5 -13.5h-114q-20 0 -34 13.5t-14 33.5zM893 1626v121q0 20 13.5 33.5t33.5 13.5h115 q20 0 33.5 -13.5t13.5 -33.5v-121q0 -20 -13.5 -33.5t-33.5 -13.5h-115q-20 0 -33.5 13.5t-13.5 33.5z" />
<glyph unicode="&#xcc;" horiz-adv-x="589" d="M-16 1733l84 145l409 -260l-41 -74zM205 0v1434h180v-1434h-180z" />
<glyph unicode="&#xcd;" horiz-adv-x="589" d="M113 1618l409 260l84 -145l-452 -189zM205 0v1434h180v-1434h-180z" />
<glyph unicode="&#xce;" horiz-adv-x="589" d="M-68 1606l285 245h156l282 -245l-47 -62l-313 178l-313 -178zM205 0v1434h180v-1434h-180z" />
<glyph unicode="&#xcf;" horiz-adv-x="589" d="M-12 1626v121q0 20 13.5 33.5t33.5 13.5h115q20 0 33.5 -13.5t13.5 -33.5v-121q0 -20 -13.5 -33.5t-33.5 -13.5h-115q-20 0 -33.5 13.5t-13.5 33.5zM205 0v1434h180v-1434h-180zM391 1626v121q0 20 13.5 33.5t33.5 13.5h115q20 0 33.5 -13.5t13.5 -33.5v-121 q0 -20 -13.5 -33.5t-33.5 -13.5h-115q-20 0 -33.5 13.5t-13.5 33.5z" />
<glyph unicode="&#xd0;" horiz-adv-x="1732" d="M51 651v148h154v635h692q138 0 249.5 -28t184 -71.5t126.5 -107.5t82 -123.5t44.5 -132.5t20.5 -122t4 -104v-57q0 -55 -4 -104t-20.5 -122t-44.5 -132.5t-82 -123t-126.5 -107t-184 -71.5t-249.5 -28h-692v651h-154zM385 166h500q534 0 534 541v20q0 541 -534 541h-500 v-469h518v-148h-518v-485z" />
<glyph unicode="&#xd1;" horiz-adv-x="1806" d="M205 0v1434h149l1071 -1139v1139h177v-1434h-150l-1071 1141v-1141h-176zM580 1569v147q0 50 34.5 88.5t83.5 38.5h68q34 0 70 -22l211 -129h26q25 0 25 34v107h129v-147q0 -50 -35 -88.5t-84 -38.5h-68q-33 0 -69 22l-211 129h-27q-24 0 -24 -35v-106h-129z" />
<glyph unicode="&#xd2;" horiz-adv-x="1769" d="M188 174v1086q0 72 51 123t123 51h1045q72 0 123 -51t51 -123v-1086q0 -72 -51 -123t-123 -51h-1045q-72 0 -123 51t-51 123zM375 170h1020v1094h-1020v-1094zM602 1733l84 145l410 -260l-41 -74z" />
<glyph unicode="&#xd3;" horiz-adv-x="1769" d="M188 174v1086q0 72 51 123t123 51h1045q72 0 123 -51t51 -123v-1086q0 -72 -51 -123t-123 -51h-1045q-72 0 -123 51t-51 123zM375 170h1020v1094h-1020v-1094zM672 1618l409 260l84 -145l-452 -189z" />
<glyph unicode="&#xd4;" horiz-adv-x="1769" d="M188 174v1086q0 72 51 123t123 51h1045q72 0 123 -51t51 -123v-1086q0 -72 -51 -123t-123 -51h-1045q-72 0 -123 51t-51 123zM375 170h1020v1094h-1020v-1094zM522 1606l285 245h156l282 -245l-47 -62l-313 178l-314 -178z" />
<glyph unicode="&#xd5;" horiz-adv-x="1769" d="M188 174v1086q0 72 51 123t123 51h1045q72 0 123 -51t51 -123v-1086q0 -72 -51 -123t-123 -51h-1045q-72 0 -123 51t-51 123zM375 170h1020v1094h-1020v-1094zM561 1569v147q0 50 35 88.5t84 38.5h68q33 0 69 -22l211 -129h27q24 0 24 34v107h129v-147q0 -50 -34.5 -88.5 t-83.5 -38.5h-68q-34 0 -70 22l-211 129h-26q-25 0 -25 -35v-106h-129z" />
<glyph unicode="&#xd6;" horiz-adv-x="1769" d="M188 174v1086q0 72 51 123t123 51h1045q72 0 123 -51t51 -123v-1086q0 -72 -51 -123t-123 -51h-1045q-72 0 -123 51t-51 123zM375 170h1020v1094h-1020v-1094zM578 1626v121q0 20 13.5 33.5t33.5 13.5h114q20 0 33.5 -13.5t13.5 -33.5v-121q0 -20 -13.5 -33.5 t-33.5 -13.5h-114q-20 0 -33.5 13.5t-13.5 33.5zM981 1626v121q0 20 13.5 33.5t33.5 13.5h115q20 0 33.5 -13.5t13.5 -33.5v-121q0 -20 -13.5 -33.5t-33.5 -13.5h-115q-20 0 -33.5 13.5t-13.5 33.5z" />
<glyph unicode="&#xd7;" horiz-adv-x="1331" d="M242 399l323 324l-317 315l102 103l318 -316l315 316l104 -103l-317 -317l324 -322l-103 -102l-323 321l-324 -321z" />
<glyph unicode="&#xd8;" horiz-adv-x="1769" d="M170 -129l111 147q-42 22 -67.5 64t-25.5 92v1086q0 72 51 123t123 51h979l152 202l106 -73l-112 -150q42 -22 68 -63t26 -90v-1086q0 -72 -51 -123t-123 -51h-979l-152 -203zM375 170h18l821 1094h-839v-1094zM555 170h840v1094h-21z" />
<glyph unicode="&#xd9;" horiz-adv-x="1714" d="M197 174v1260h182v-1264h956v1264h183v-1260q0 -72 -51.5 -123t-123.5 -51h-972q-72 0 -123 51t-51 123zM575 1733l84 145l410 -260l-41 -74z" />
<glyph unicode="&#xda;" horiz-adv-x="1714" d="M197 174v1260h182v-1264h956v1264h183v-1260q0 -72 -51.5 -123t-123.5 -51h-972q-72 0 -123 51t-51 123zM645 1618l410 260l84 -145l-453 -189z" />
<glyph unicode="&#xdb;" horiz-adv-x="1714" d="M197 174v1260h182v-1264h956v1264h183v-1260q0 -72 -51.5 -123t-123.5 -51h-972q-72 0 -123 51t-51 123zM496 1606l284 245h156l283 -245l-48 -62l-313 178l-313 -178z" />
<glyph unicode="&#xdc;" horiz-adv-x="1714" d="M197 174v1260h182v-1264h956v1264h183v-1260q0 -72 -51.5 -123t-123.5 -51h-972q-72 0 -123 51t-51 123zM551 1626v121q0 20 13.5 33.5t33.5 13.5h115q20 0 33.5 -13.5t13.5 -33.5v-121q0 -20 -13.5 -33.5t-33.5 -13.5h-115q-20 0 -33.5 13.5t-13.5 33.5zM954 1626v121 q0 20 13.5 33.5t33.5 13.5h115q20 0 33.5 -13.5t13.5 -33.5v-121q0 -20 -13.5 -33.5t-33.5 -13.5h-115q-20 0 -33.5 13.5t-13.5 33.5z" />
<glyph unicode="&#xdd;" horiz-adv-x="1386" d="M-37 1434h223l508 -635l529 635h200l-639 -777v-657h-180v653zM530 1618l410 260l84 -145l-453 -189z" />
<glyph unicode="&#xde;" horiz-adv-x="1611" d="M205 0v1434h180v-263h893q72 0 123 -51t51 -123v-516q0 -72 -51 -123t-123 -51h-893v-307h-180zM385 477h797q41 0 65.5 30.5t24.5 74.5v315q0 44 -24.5 74t-65.5 30h-797v-524z" />
<glyph unicode="&#xdf;" horiz-adv-x="1411" d="M41 870v152h203v270q0 58 40.5 100t104.5 42h633q182 0 182 -246v-37q0 -87 -31.5 -133t-101.5 -72q90 -11 134 -65.5t44 -130.5v-504q0 -246 -182 -246h-399l-33 141h373q36 0 56.5 25t20.5 63v531q0 43 -27 76.5t-85 33.5h-322v152h328q37 0 57.5 21.5t20.5 58.5v92 q0 38 -21 63t-57 25h-571v-1282h-164v870h-203z" />
<glyph unicode="&#xe0;" horiz-adv-x="1349" d="M162 141v312q0 58 40.5 100.5t104.5 42.5h711v274h-678v-118l-158 41v88q0 56 43.5 98.5t100.5 42.5h710q58 0 102 -41.5t44 -101.5v-879h-164v113q-57 -57 -135 -85t-193 -28h-383q-64 0 -104.5 41.5t-40.5 99.5zM326 199q0 -21 13 -34t34 -13h387q72 0 142.5 13.5 t115.5 35.5v250h-645q-20 0 -33.5 -14t-13.5 -34v-204zM428 1384l84 146l410 -260l-41 -74z" />
<glyph unicode="&#xe1;" horiz-adv-x="1349" d="M162 141v312q0 58 40.5 100.5t104.5 42.5h711v274h-678v-118l-158 41v88q0 56 43.5 98.5t100.5 42.5h710q58 0 102 -41.5t44 -101.5v-879h-164v113q-57 -57 -135 -85t-193 -28h-383q-64 0 -104.5 41.5t-40.5 99.5zM326 199q0 -21 13 -34t34 -13h387q72 0 142.5 13.5 t115.5 35.5v250h-645q-20 0 -33.5 -14t-13.5 -34v-204zM428 1270l410 260l84 -146l-453 -188z" />
<glyph unicode="&#xe2;" horiz-adv-x="1349" d="M162 141v312q0 58 40.5 100.5t104.5 42.5h711v274h-678v-118l-158 41v88q0 56 43.5 98.5t100.5 42.5h710q58 0 102 -41.5t44 -101.5v-879h-164v113q-57 -57 -135 -85t-193 -28h-383q-64 0 -104.5 41.5t-40.5 99.5zM313 1257l285 246h156l282 -246l-47 -61l-313 178 l-314 -178zM326 199q0 -21 13 -34t34 -13h387q72 0 142.5 13.5t115.5 35.5v250h-645q-20 0 -33.5 -14t-13.5 -34v-204z" />
<glyph unicode="&#xe3;" horiz-adv-x="1349" d="M162 141v312q0 58 40.5 100.5t104.5 42.5h711v274h-678v-118l-158 41v88q0 56 43.5 98.5t100.5 42.5h710q58 0 102 -41.5t44 -101.5v-879h-164v113q-57 -57 -135 -85t-193 -28h-383q-64 0 -104.5 41.5t-40.5 99.5zM326 199q0 -21 13 -34t34 -13h387q72 0 142.5 13.5 t115.5 35.5v250h-645q-20 0 -33.5 -14t-13.5 -34v-204zM350 1221v147q0 50 35 88.5t84 38.5h68q33 0 69 -22l211 -130h27q24 0 24 35v107h129v-148q0 -50 -34.5 -88.5t-83.5 -38.5h-68q-32 0 -70 23l-211 129h-26q-25 0 -25 -35v-106h-129z" />
<glyph unicode="&#xe4;" horiz-adv-x="1349" d="M162 141v312q0 58 40.5 100.5t104.5 42.5h711v274h-678v-118l-158 41v88q0 56 43.5 98.5t100.5 42.5h710q58 0 102 -41.5t44 -101.5v-879h-164v113q-57 -57 -135 -85t-193 -28h-383q-64 0 -104.5 41.5t-40.5 99.5zM326 199q0 -21 13 -34t34 -13h387q72 0 142.5 13.5 t115.5 35.5v250h-645q-20 0 -33.5 -14t-13.5 -34v-204zM369 1278v121q0 20 13.5 33.5t33.5 13.5h114q20 0 34 -13.5t14 -33.5v-121q0 -20 -14 -33.5t-34 -13.5h-114q-20 0 -33.5 13.5t-13.5 33.5zM772 1278v121q0 20 13.5 33.5t33.5 13.5h115q20 0 33.5 -13.5t13.5 -33.5 v-121q0 -20 -13.5 -33.5t-33.5 -13.5h-115q-20 0 -33.5 13.5t-13.5 33.5z" />
<glyph unicode="&#xe5;" horiz-adv-x="1349" d="M162 141v312q0 58 40.5 100.5t104.5 42.5h711v274h-678v-118l-158 41v88q0 56 43.5 98.5t100.5 42.5h710q58 0 102 -41.5t44 -101.5v-879h-164v113q-57 -57 -135 -85t-193 -28h-383q-64 0 -104.5 41.5t-40.5 99.5zM326 199q0 -21 13 -34t34 -13h387q72 0 142.5 13.5 t115.5 35.5v250h-645q-20 0 -33.5 -14t-13.5 -34v-204zM459 1346v131q0 63 47.5 102t109.5 39h117q61 0 109.5 -39t48.5 -102v-131q0 -63 -48 -102.5t-110 -39.5h-117q-61 0 -109 39.5t-48 102.5zM571 1309h207v204h-207v-204z" />
<glyph unicode="&#xe6;" horiz-adv-x="2199" d="M162 141v318q0 58 40.5 100.5t104.5 42.5h711v268h-678v-118l-158 41v88q0 56 43.5 98.5t100.5 42.5h655q75 0 121 -66q21 29 54 47.5t67 18.5h671q57 0 100.5 -43.5t43.5 -99.5v-422h-856v-305h696v116l160 -39v-88q0 -56 -43.5 -98.5t-100.5 -42.5h-727q-44 0 -83 27.5 t-54 68.5q-110 -96 -309 -96h-414q-64 0 -104.5 41.5t-40.5 99.5zM326 199q0 -21 13 -34t34 -13h387q72 0 142.5 13.5t115.5 35.5v256h-645q-20 0 -33.5 -13.5t-13.5 -33.5v-211zM1182 602h692v268h-692v-268z" />
<glyph unicode="&#xe7;" d="M162 141v738q0 56 44 99.5t101 43.5h731q57 0 100.5 -43.5t43.5 -99.5v-183l-160 -39v211h-694v-716h694v217l160 -39v-189q0 -56 -43.5 -98.5t-100.5 -42.5h-356v-37h123q32 0 57 -25t25 -57v-166q0 -32 -25 -56t-57 -24h-268q-33 0 -57.5 24.5t-24.5 57.5v58l110 28 v-55h195v109h-185v143h-268q-57 0 -101 43t-44 98z" />
<glyph unicode="&#xe8;" d="M162 141v738q0 56 44 99.5t101 43.5h731q57 0 100.5 -43.5t43.5 -99.5v-422h-856v-305h696v116l160 -39v-88q0 -56 -43.5 -98.5t-100.5 -42.5h-731q-57 0 -101 43t-44 98zM326 602h692v268h-692v-268zM424 1384l84 146l410 -260l-41 -74z" />
<glyph unicode="&#xe9;" d="M162 141v738q0 56 44 99.5t101 43.5h731q57 0 100.5 -43.5t43.5 -99.5v-422h-856v-305h696v116l160 -39v-88q0 -56 -43.5 -98.5t-100.5 -42.5h-731q-57 0 -101 43t-44 98zM326 602h692v268h-692v-268zM424 1270l410 260l84 -146l-453 -188z" />
<glyph unicode="&#xea;" d="M162 141v738q0 56 44 99.5t101 43.5h731q57 0 100.5 -43.5t43.5 -99.5v-422h-856v-305h696v116l160 -39v-88q0 -56 -43.5 -98.5t-100.5 -42.5h-731q-57 0 -101 43t-44 98zM309 1257l285 246h156l282 -246l-47 -61l-313 178l-314 -178zM326 602h692v268h-692v-268z" />
<glyph unicode="&#xeb;" d="M162 141v738q0 56 44 99.5t101 43.5h731q57 0 100.5 -43.5t43.5 -99.5v-422h-856v-305h696v116l160 -39v-88q0 -56 -43.5 -98.5t-100.5 -42.5h-731q-57 0 -101 43t-44 98zM326 602h692v268h-692v-268zM365 1278v121q0 20 13.5 33.5t33.5 13.5h114q20 0 33.5 -13.5 t13.5 -33.5v-121q0 -20 -13.5 -33.5t-33.5 -13.5h-114q-20 0 -33.5 13.5t-13.5 33.5zM768 1278v121q0 20 13.5 33.5t33.5 13.5h115q20 0 33.5 -13.5t13.5 -33.5v-121q0 -20 -13.5 -33.5t-33.5 -13.5h-115q-20 0 -33.5 13.5t-13.5 33.5z" />
<glyph unicode="&#xec;" horiz-adv-x="501" d="M4 1384l84 146l410 -260l-41 -74zM170 0v1022h164v-1022h-164z" />
<glyph unicode="&#xed;" horiz-adv-x="501" d="M4 1270l410 260l84 -146l-453 -188zM170 0v1022h164v-1022h-164z" />
<glyph unicode="&#xee;" horiz-adv-x="501" d="M-111 1257l285 246h156l282 -246l-47 -61l-313 178l-313 -178zM170 0v1022h164v-1022h-164z" />
<glyph unicode="&#xef;" horiz-adv-x="501" d="M-55 1278v121q0 20 13.5 33.5t33.5 13.5h114q20 0 34 -13.5t14 -33.5v-121q0 -20 -14 -33.5t-34 -13.5h-114q-20 0 -33.5 13.5t-13.5 33.5zM170 0v1022h164v-1022h-164zM348 1278v121q0 20 13.5 33.5t33.5 13.5h115q20 0 33.5 -13.5t13.5 -33.5v-121q0 -20 -13.5 -33.5 t-33.5 -13.5h-115q-20 0 -33.5 13.5t-13.5 33.5z" />
<glyph unicode="&#xf0;" d="M162 141v738q0 56 44 99.5t101 43.5h383q212 0 328 -113q-18 154 -127 291l-242 -115v111l170 80q-62 56 -145 106l135 93q91 -59 156 -127l217 102v-111l-150 -71q150 -208 150 -459v-668q0 -55 -44.5 -98t-101.5 -43h-729q-57 0 -101 43t-44 98zM328 152h688v667 q-90 49 -256 49h-432v-716z" />
<glyph unicode="&#xf1;" horiz-adv-x="1304" d="M168 0v1022h164v-113q58 57 135 85t192 28h332q64 0 105 -42t41 -99v-881h-164v870h-383q-72 0 -142.5 -13.5t-115.5 -35.5v-821h-164zM328 1221v147q0 50 34.5 88.5t83.5 38.5h68q34 0 70 -22l211 -130h26q25 0 25 35v107h129v-148q0 -50 -35 -88.5t-84 -38.5h-68 q-31 0 -69 23l-211 129h-27q-24 0 -24 -35v-106h-129z" />
<glyph unicode="&#xf2;" d="M162 141v738q0 56 44 99.5t101 43.5h729q57 0 101.5 -43.5t44.5 -99.5v-738q0 -55 -44.5 -98t-101.5 -43h-729q-57 0 -101 43t-44 98zM328 152h688v716h-688v-716zM424 1384l84 146l410 -260l-41 -74z" />
<glyph unicode="&#xf3;" d="M162 141v738q0 56 44 99.5t101 43.5h729q57 0 101.5 -43.5t44.5 -99.5v-738q0 -55 -44.5 -98t-101.5 -43h-729q-57 0 -101 43t-44 98zM328 152h688v716h-688v-716zM424 1270l410 260l84 -146l-453 -188z" />
<glyph unicode="&#xf4;" d="M162 141v738q0 56 44 99.5t101 43.5h729q57 0 101.5 -43.5t44.5 -99.5v-738q0 -55 -44.5 -98t-101.5 -43h-729q-57 0 -101 43t-44 98zM309 1257l285 246h156l282 -246l-47 -61l-313 178l-314 -178zM328 152h688v716h-688v-716z" />
<glyph unicode="&#xf5;" d="M162 141v738q0 56 44 99.5t101 43.5h729q57 0 101.5 -43.5t44.5 -99.5v-738q0 -55 -44.5 -98t-101.5 -43h-729q-57 0 -101 43t-44 98zM328 152h688v716h-688v-716zM348 1221v147q0 50 35 88.5t84 38.5h68q33 0 69 -22l211 -130h27q24 0 24 35v107h129v-148 q0 -50 -34.5 -88.5t-83.5 -38.5h-68q-32 0 -70 23l-211 129h-26q-25 0 -25 -35v-106h-129z" />
<glyph unicode="&#xf6;" d="M162 141v738q0 56 44 99.5t101 43.5h729q57 0 101.5 -43.5t44.5 -99.5v-738q0 -55 -44.5 -98t-101.5 -43h-729q-57 0 -101 43t-44 98zM328 152h688v716h-688v-716zM365 1278v121q0 20 13.5 33.5t33.5 13.5h114q20 0 33.5 -13.5t13.5 -33.5v-121q0 -20 -13.5 -33.5 t-33.5 -13.5h-114q-20 0 -33.5 13.5t-13.5 33.5zM768 1278v121q0 20 13.5 33.5t33.5 13.5h115q20 0 33.5 -13.5t13.5 -33.5v-121q0 -20 -13.5 -33.5t-33.5 -13.5h-115q-20 0 -33.5 13.5t-13.5 33.5z" />
<glyph unicode="&#xf7;" horiz-adv-x="1124" d="M47 647v141h1032v-141h-1032zM457 289v119q0 20 13.5 33.5t33.5 13.5h119q20 0 33.5 -13.5t13.5 -33.5v-119q0 -20 -13.5 -33.5t-33.5 -13.5h-119q-20 0 -33.5 13.5t-13.5 33.5zM457 1028v119q0 20 13.5 33.5t33.5 13.5h119q20 0 33.5 -13.5t13.5 -33.5v-119 q0 -20 -13.5 -33.5t-33.5 -13.5h-119q-20 0 -33.5 13.5t-13.5 33.5z" />
<glyph unicode="&#xf8;" d="M154 -133l98 143q-39 18 -64.5 54t-25.5 77v738q0 56 44 99.5t101 43.5h635l139 203l109 -70l-100 -145q40 -19 66 -55t26 -76v-738q0 -55 -44.5 -98t-101.5 -43h-637l-137 -203zM328 152h20l490 716h-510v-716zM504 152h512v716h-23z" />
<glyph unicode="&#xf9;" horiz-adv-x="1304" d="M168 141v881h164v-870h383q72 0 142.5 13.5t115.5 35.5v821h164v-1022h-164v113q-57 -57 -135 -85t-193 -28h-332q-64 0 -104.5 41.5t-40.5 99.5zM406 1384l83 146l410 -260l-41 -74z" />
<glyph unicode="&#xfa;" horiz-adv-x="1304" d="M168 141v881h164v-870h383q72 0 142.5 13.5t115.5 35.5v821h164v-1022h-164v113q-57 -57 -135 -85t-193 -28h-332q-64 0 -104.5 41.5t-40.5 99.5zM406 1270l409 260l84 -146l-453 -188z" />
<glyph unicode="&#xfb;" horiz-adv-x="1304" d="M168 141v881h164v-870h383q72 0 142.5 13.5t115.5 35.5v821h164v-1022h-164v113q-57 -57 -135 -85t-193 -28h-332q-64 0 -104.5 41.5t-40.5 99.5zM291 1257l284 246h156l283 -246l-47 -61l-314 178l-313 -178z" />
<glyph unicode="&#xfc;" horiz-adv-x="1304" d="M168 141v881h164v-870h383q72 0 142.5 13.5t115.5 35.5v821h164v-1022h-164v113q-57 -57 -135 -85t-193 -28h-332q-64 0 -104.5 41.5t-40.5 99.5zM346 1278v121q0 20 13.5 33.5t33.5 13.5h115q20 0 33.5 -13.5t13.5 -33.5v-121q0 -20 -13.5 -33.5t-33.5 -13.5h-115 q-20 0 -33.5 13.5t-13.5 33.5zM750 1278v121q0 20 13.5 33.5t33.5 13.5h114q20 0 33.5 -13.5t13.5 -33.5v-121q0 -20 -13.5 -33.5t-33.5 -13.5h-114q-20 0 -33.5 13.5t-13.5 33.5z" />
<glyph unicode="&#xfd;" horiz-adv-x="1130" d="M10 1022h174l383 -784l383 784h170l-592 -1188q-72 -143 -204 -143h-185l-26 151h252l116 234zM346 1270l410 260l84 -146l-453 -188z" />
<glyph unicode="&#xfe;" horiz-adv-x="1349" d="M168 -309v1743h164v-525q58 57 135 85t192 28h383q64 0 105 -42t41 -99v-740q0 -57 -41 -99t-105 -42h-383q-116 0 -192.5 27.5t-134.5 85.5v-422h-164zM332 201q45 -22 115.5 -35.5t142.5 -13.5h434v718h-434q-72 0 -142.5 -13.5t-115.5 -35.5v-620z" />
<glyph unicode="&#xff;" horiz-adv-x="1130" d="M10 1022h174l383 -784l383 784h170l-592 -1188q-72 -143 -204 -143h-185l-26 151h252l116 234zM287 1278v121q0 20 13.5 33.5t33.5 13.5h115q20 0 33.5 -13.5t13.5 -33.5v-121q0 -20 -13.5 -33.5t-33.5 -13.5h-115q-20 0 -33.5 13.5t-13.5 33.5zM690 1278v121 q0 20 13.5 33.5t33.5 13.5h115q20 0 33.5 -13.5t13.5 -33.5v-121q0 -20 -13.5 -33.5t-33.5 -13.5h-115q-20 0 -33.5 13.5t-13.5 33.5z" />
<glyph unicode="&#x152;" horiz-adv-x="2686" d="M188 174v1086q0 72 51 123t123 51h2216v-166h-1011v-439h594v-165h-594v-498h1026v-166h-2231q-72 0 -123 51t-51 123zM375 170h1011v1094h-1011v-1094z" />
<glyph unicode="&#x153;" horiz-adv-x="2199" d="M162 141v738q0 56 44 99.5t101 43.5h674q35 0 67.5 -19.5t53.5 -50.5q21 31 54 50.5t69 19.5h669q57 0 100.5 -43.5t43.5 -99.5v-422h-856v-305h696v116l160 -39v-88q0 -56 -43.5 -98.5t-100.5 -42.5h-669q-36 0 -69.5 18.5t-53.5 49.5q-45 -68 -121 -68h-674 q-57 0 -101 43t-44 98zM328 152h688v716h-688v-716zM1182 602h692v268h-692v-268z" />
<glyph unicode="&#x178;" horiz-adv-x="1386" d="M-37 1434h223l508 -635l529 635h200l-639 -777v-657h-180v653zM387 1626v121q0 20 13.5 33.5t33.5 13.5h115q20 0 33.5 -13.5t13.5 -33.5v-121q0 -20 -13.5 -33.5t-33.5 -13.5h-115q-20 0 -33.5 13.5t-13.5 33.5zM791 1626v121q0 20 13.5 33.5t33.5 13.5h114 q20 0 33.5 -13.5t13.5 -33.5v-121q0 -20 -13.5 -33.5t-33.5 -13.5h-114q-20 0 -33.5 13.5t-13.5 33.5z" />
<glyph unicode="&#x2c6;" horiz-adv-x="681" d="M-20 1257l284 246h156l282 -246l-47 -61l-313 178l-313 -178z" />
<glyph unicode="&#x2dc;" horiz-adv-x="681" d="M18 1221v147q0 50 35 88.5t84 38.5h68q33 0 69 -22l211 -130h27q25 0 25 35v107h129v-148q0 -50 -35 -88.5t-84 -38.5h-68q-31 0 -69 23l-211 129h-27q-25 0 -25 -35v-106h-129z" />
<glyph unicode="&#x2000;" horiz-adv-x="939" />
<glyph unicode="&#x2001;" horiz-adv-x="1878" />
<glyph unicode="&#x2002;" horiz-adv-x="939" />
<glyph unicode="&#x2003;" horiz-adv-x="1878" />
<glyph unicode="&#x2004;" horiz-adv-x="626" />
<glyph unicode="&#x2005;" horiz-adv-x="469" />
<glyph unicode="&#x2006;" horiz-adv-x="313" />
<glyph unicode="&#x2007;" horiz-adv-x="313" />
<glyph unicode="&#x2008;" horiz-adv-x="234" />
<glyph unicode="&#x2009;" horiz-adv-x="375" />
<glyph unicode="&#x200a;" horiz-adv-x="104" />
<glyph unicode="&#x2010;" horiz-adv-x="688" d="M37 467v147h614v-147h-614z" />
<glyph unicode="&#x2011;" horiz-adv-x="688" d="M37 467v147h614v-147h-614z" />
<glyph unicode="&#x2012;" horiz-adv-x="688" d="M37 467v147h614v-147h-614z" />
<glyph unicode="&#x2013;" horiz-adv-x="1024" d="M0 479v123h1024v-123h-1024z" />
<glyph unicode="&#x2014;" horiz-adv-x="2048" d="M0 479v123h2048v-123h-2048z" />
<glyph unicode="&#x2018;" horiz-adv-x="530" d="M131 1247v125q0 25 17.5 43.5t41.5 18.5h142q24 0 41.5 -18.5t17.5 -43.5v-149q0 -24 -17 -39t-42 -15h-49l104 -327h-96l-144 338q-16 40 -16 67z" />
<glyph unicode="&#x2019;" horiz-adv-x="530" d="M139 1223v149q0 25 17.5 43.5t42.5 18.5h141q24 0 41.5 -18.5t17.5 -43.5v-125q0 -27 -16 -67l-143 -338h-97l105 327h-49q-25 0 -42.5 15t-17.5 39z" />
<glyph unicode="&#x201a;" horiz-adv-x="530" d="M135 59v150q0 25 17.5 43t42.5 18h141q25 0 42 -18t17 -43v-125q0 -28 -16 -68l-143 -338h-97l105 328h-49q-26 0 -43 14.5t-17 38.5z" />
<glyph unicode="&#x201c;" horiz-adv-x="997" d="M131 1247v125q0 25 17.5 43.5t41.5 18.5h142q24 0 41.5 -18.5t17.5 -43.5v-149q0 -24 -17 -39t-42 -15h-49l104 -327h-96l-144 338q-16 40 -16 67zM598 1247v125q0 25 17.5 43.5t41.5 18.5h142q24 0 41.5 -18.5t17.5 -43.5v-149q0 -24 -17 -39t-42 -15h-49l104 -327h-96 l-144 338q-16 40 -16 67z" />
<glyph unicode="&#x201d;" horiz-adv-x="997" d="M139 1223v149q0 25 17.5 43.5t42.5 18.5h141q24 0 41.5 -18.5t17.5 -43.5v-125q0 -27 -16 -67l-143 -338h-97l105 327h-49q-25 0 -42.5 15t-17.5 39zM606 1223v149q0 25 17.5 43.5t42.5 18.5h141q24 0 41.5 -18.5t17.5 -43.5v-125q0 -27 -16 -67l-143 -338h-97l105 327 h-49q-25 0 -42.5 15t-17.5 39z" />
<glyph unicode="&#x201e;" horiz-adv-x="1013" d="M135 59v150q0 25 17.5 43t42.5 18h141q25 0 42 -18t17 -43v-125q0 -28 -16 -68l-143 -338h-97l105 328h-49q-26 0 -43 14.5t-17 38.5zM618 59v150q0 25 17.5 43t42.5 18h141q25 0 42.5 -18t17.5 -43v-125q0 -26 -17 -68l-143 -338h-96l104 328h-49q-26 0 -43 14.5 t-17 38.5z" />
<glyph unicode="&#x2022;" horiz-adv-x="1331" d="M344 707q0 133 94 227t228 94t227.5 -94t93.5 -227q0 -134 -94 -228t-227 -94q-134 0 -228 94.5t-94 227.5z" />
<glyph unicode="&#x2026;" horiz-adv-x="1615" d="M152 53v135q0 22 15.5 38t37.5 16h129q22 0 37.5 -16t15.5 -38v-135q0 -22 -15.5 -37.5t-37.5 -15.5h-129q-22 0 -37.5 15.5t-15.5 37.5zM690 53v135q0 22 15.5 38t37.5 16h129q22 0 38 -16t16 -38v-135q0 -22 -16 -37.5t-38 -15.5h-129q-22 0 -37.5 15.5t-15.5 37.5z M1229 53v135q0 22 15.5 38t37.5 16h129q22 0 37.5 -16t15.5 -38v-135q0 -22 -15.5 -37.5t-37.5 -15.5h-129q-22 0 -37.5 15.5t-15.5 37.5z" />
<glyph unicode="&#x202f;" horiz-adv-x="375" />
<glyph unicode="&#x2039;" horiz-adv-x="649" d="M66 467v151l440 363l72 -70l-326 -368l326 -369l-72 -72z" />
<glyph unicode="&#x203a;" horiz-adv-x="649" d="M72 174l325 369l-325 368l71 70l441 -363v-151l-441 -365z" />
<glyph unicode="&#x205f;" horiz-adv-x="469" />
<glyph unicode="&#x20ac;" horiz-adv-x="1681" d="M82 500v147h213v164h-213v147h213v302q0 72 51 123t123 51h911q72 0 123 -51t51 -123v-168l-180 -48v224h-893v-310h600v-147h-600v-164h600v-147h-600v-334h893v231l180 -47v-176q0 -72 -51 -123t-123 -51h-911q-72 0 -123 51t-51 123v326h-213z" />
<glyph unicode="&#x2122;" horiz-adv-x="1568" d="M12 1313v121h619v-121h-242v-514h-135v514h-242zM735 799v635h123l246 -357l246 357h116v-635h-133v393l-231 -336l-238 334v-391h-129z" />
<glyph unicode="&#x25fc;" horiz-adv-x="1024" d="M0 0v1024h1024v-1024h-1024z" />
</font>
</defs>
</svg>
